%TF.GenerationSoftware,KiCad,Pcbnew,(5.1.9-0-10_14)*%
%TF.CreationDate,2021-11-27T16:04:38+01:00*%
%TF.ProjectId,SoundCore Knobs,536f756e-6443-46f7-9265-204b6e6f6273,rev?*%
%TF.SameCoordinates,Original*%
%TF.FileFunction,Soldermask,Top*%
%TF.FilePolarity,Negative*%
%FSLAX46Y46*%
G04 Gerber Fmt 4.6, Leading zero omitted, Abs format (unit mm)*
G04 Created by KiCad (PCBNEW (5.1.9-0-10_14)) date 2021-11-27 16:04:38*
%MOMM*%
%LPD*%
G01*
G04 APERTURE LIST*
%ADD10C,1.500000*%
%ADD11C,2.700000*%
%ADD12O,1.700000X1.700000*%
%ADD13R,1.700000X1.700000*%
%ADD14C,0.950000*%
%ADD15R,1.300000X1.600000*%
%ADD16R,1.000000X1.000000*%
%ADD17C,0.700000*%
%ADD18O,2.720000X3.240000*%
%ADD19C,1.800000*%
%ADD20R,1.800000X1.800000*%
%ADD21O,0.890000X1.550000*%
%ADD22R,1.200000X1.550000*%
%ADD23R,1.500000X1.550000*%
%ADD24O,1.250000X0.950000*%
%ADD25R,0.400000X1.350000*%
%ADD26R,1.500000X2.000000*%
%ADD27R,3.800000X2.000000*%
%ADD28C,1.524000*%
%ADD29R,1.500000X1.000000*%
%ADD30R,1.600000X0.550000*%
%ADD31R,0.550000X1.600000*%
%ADD32R,1.000000X1.500000*%
G04 APERTURE END LIST*
%TO.C,R4*%
G36*
G01*
X164680000Y-68453001D02*
X164680000Y-67202999D01*
G75*
G02*
X164929999Y-66953000I249999J0D01*
G01*
X165555001Y-66953000D01*
G75*
G02*
X165805000Y-67202999I0J-249999D01*
G01*
X165805000Y-68453001D01*
G75*
G02*
X165555001Y-68703000I-249999J0D01*
G01*
X164929999Y-68703000D01*
G75*
G02*
X164680000Y-68453001I0J249999D01*
G01*
G37*
G36*
G01*
X161755000Y-68453001D02*
X161755000Y-67202999D01*
G75*
G02*
X162004999Y-66953000I249999J0D01*
G01*
X162630001Y-66953000D01*
G75*
G02*
X162880000Y-67202999I0J-249999D01*
G01*
X162880000Y-68453001D01*
G75*
G02*
X162630001Y-68703000I-249999J0D01*
G01*
X162004999Y-68703000D01*
G75*
G02*
X161755000Y-68453001I0J249999D01*
G01*
G37*
%TD*%
%TO.C,U1*%
G36*
G01*
X171376000Y-70645000D02*
X171376000Y-70345000D01*
G75*
G02*
X171526000Y-70195000I150000J0D01*
G01*
X173226000Y-70195000D01*
G75*
G02*
X173376000Y-70345000I0J-150000D01*
G01*
X173376000Y-70645000D01*
G75*
G02*
X173226000Y-70795000I-150000J0D01*
G01*
X171526000Y-70795000D01*
G75*
G02*
X171376000Y-70645000I0J150000D01*
G01*
G37*
G36*
G01*
X171376000Y-71915000D02*
X171376000Y-71615000D01*
G75*
G02*
X171526000Y-71465000I150000J0D01*
G01*
X173226000Y-71465000D01*
G75*
G02*
X173376000Y-71615000I0J-150000D01*
G01*
X173376000Y-71915000D01*
G75*
G02*
X173226000Y-72065000I-150000J0D01*
G01*
X171526000Y-72065000D01*
G75*
G02*
X171376000Y-71915000I0J150000D01*
G01*
G37*
G36*
G01*
X171376000Y-73185000D02*
X171376000Y-72885000D01*
G75*
G02*
X171526000Y-72735000I150000J0D01*
G01*
X173226000Y-72735000D01*
G75*
G02*
X173376000Y-72885000I0J-150000D01*
G01*
X173376000Y-73185000D01*
G75*
G02*
X173226000Y-73335000I-150000J0D01*
G01*
X171526000Y-73335000D01*
G75*
G02*
X171376000Y-73185000I0J150000D01*
G01*
G37*
G36*
G01*
X171376000Y-74455000D02*
X171376000Y-74155000D01*
G75*
G02*
X171526000Y-74005000I150000J0D01*
G01*
X173226000Y-74005000D01*
G75*
G02*
X173376000Y-74155000I0J-150000D01*
G01*
X173376000Y-74455000D01*
G75*
G02*
X173226000Y-74605000I-150000J0D01*
G01*
X171526000Y-74605000D01*
G75*
G02*
X171376000Y-74455000I0J150000D01*
G01*
G37*
G36*
G01*
X171376000Y-75725000D02*
X171376000Y-75425000D01*
G75*
G02*
X171526000Y-75275000I150000J0D01*
G01*
X173226000Y-75275000D01*
G75*
G02*
X173376000Y-75425000I0J-150000D01*
G01*
X173376000Y-75725000D01*
G75*
G02*
X173226000Y-75875000I-150000J0D01*
G01*
X171526000Y-75875000D01*
G75*
G02*
X171376000Y-75725000I0J150000D01*
G01*
G37*
G36*
G01*
X171376000Y-76995000D02*
X171376000Y-76695000D01*
G75*
G02*
X171526000Y-76545000I150000J0D01*
G01*
X173226000Y-76545000D01*
G75*
G02*
X173376000Y-76695000I0J-150000D01*
G01*
X173376000Y-76995000D01*
G75*
G02*
X173226000Y-77145000I-150000J0D01*
G01*
X171526000Y-77145000D01*
G75*
G02*
X171376000Y-76995000I0J150000D01*
G01*
G37*
G36*
G01*
X171376000Y-78265000D02*
X171376000Y-77965000D01*
G75*
G02*
X171526000Y-77815000I150000J0D01*
G01*
X173226000Y-77815000D01*
G75*
G02*
X173376000Y-77965000I0J-150000D01*
G01*
X173376000Y-78265000D01*
G75*
G02*
X173226000Y-78415000I-150000J0D01*
G01*
X171526000Y-78415000D01*
G75*
G02*
X171376000Y-78265000I0J150000D01*
G01*
G37*
G36*
G01*
X171376000Y-79535000D02*
X171376000Y-79235000D01*
G75*
G02*
X171526000Y-79085000I150000J0D01*
G01*
X173226000Y-79085000D01*
G75*
G02*
X173376000Y-79235000I0J-150000D01*
G01*
X173376000Y-79535000D01*
G75*
G02*
X173226000Y-79685000I-150000J0D01*
G01*
X171526000Y-79685000D01*
G75*
G02*
X171376000Y-79535000I0J150000D01*
G01*
G37*
G36*
G01*
X166376000Y-79535000D02*
X166376000Y-79235000D01*
G75*
G02*
X166526000Y-79085000I150000J0D01*
G01*
X168226000Y-79085000D01*
G75*
G02*
X168376000Y-79235000I0J-150000D01*
G01*
X168376000Y-79535000D01*
G75*
G02*
X168226000Y-79685000I-150000J0D01*
G01*
X166526000Y-79685000D01*
G75*
G02*
X166376000Y-79535000I0J150000D01*
G01*
G37*
G36*
G01*
X166376000Y-78265000D02*
X166376000Y-77965000D01*
G75*
G02*
X166526000Y-77815000I150000J0D01*
G01*
X168226000Y-77815000D01*
G75*
G02*
X168376000Y-77965000I0J-150000D01*
G01*
X168376000Y-78265000D01*
G75*
G02*
X168226000Y-78415000I-150000J0D01*
G01*
X166526000Y-78415000D01*
G75*
G02*
X166376000Y-78265000I0J150000D01*
G01*
G37*
G36*
G01*
X166376000Y-76995000D02*
X166376000Y-76695000D01*
G75*
G02*
X166526000Y-76545000I150000J0D01*
G01*
X168226000Y-76545000D01*
G75*
G02*
X168376000Y-76695000I0J-150000D01*
G01*
X168376000Y-76995000D01*
G75*
G02*
X168226000Y-77145000I-150000J0D01*
G01*
X166526000Y-77145000D01*
G75*
G02*
X166376000Y-76995000I0J150000D01*
G01*
G37*
G36*
G01*
X166376000Y-75725000D02*
X166376000Y-75425000D01*
G75*
G02*
X166526000Y-75275000I150000J0D01*
G01*
X168226000Y-75275000D01*
G75*
G02*
X168376000Y-75425000I0J-150000D01*
G01*
X168376000Y-75725000D01*
G75*
G02*
X168226000Y-75875000I-150000J0D01*
G01*
X166526000Y-75875000D01*
G75*
G02*
X166376000Y-75725000I0J150000D01*
G01*
G37*
G36*
G01*
X166376000Y-74455000D02*
X166376000Y-74155000D01*
G75*
G02*
X166526000Y-74005000I150000J0D01*
G01*
X168226000Y-74005000D01*
G75*
G02*
X168376000Y-74155000I0J-150000D01*
G01*
X168376000Y-74455000D01*
G75*
G02*
X168226000Y-74605000I-150000J0D01*
G01*
X166526000Y-74605000D01*
G75*
G02*
X166376000Y-74455000I0J150000D01*
G01*
G37*
G36*
G01*
X166376000Y-73185000D02*
X166376000Y-72885000D01*
G75*
G02*
X166526000Y-72735000I150000J0D01*
G01*
X168226000Y-72735000D01*
G75*
G02*
X168376000Y-72885000I0J-150000D01*
G01*
X168376000Y-73185000D01*
G75*
G02*
X168226000Y-73335000I-150000J0D01*
G01*
X166526000Y-73335000D01*
G75*
G02*
X166376000Y-73185000I0J150000D01*
G01*
G37*
G36*
G01*
X166376000Y-71915000D02*
X166376000Y-71615000D01*
G75*
G02*
X166526000Y-71465000I150000J0D01*
G01*
X168226000Y-71465000D01*
G75*
G02*
X168376000Y-71615000I0J-150000D01*
G01*
X168376000Y-71915000D01*
G75*
G02*
X168226000Y-72065000I-150000J0D01*
G01*
X166526000Y-72065000D01*
G75*
G02*
X166376000Y-71915000I0J150000D01*
G01*
G37*
G36*
G01*
X166376000Y-70645000D02*
X166376000Y-70345000D01*
G75*
G02*
X166526000Y-70195000I150000J0D01*
G01*
X168226000Y-70195000D01*
G75*
G02*
X168376000Y-70345000I0J-150000D01*
G01*
X168376000Y-70645000D01*
G75*
G02*
X168226000Y-70795000I-150000J0D01*
G01*
X166526000Y-70795000D01*
G75*
G02*
X166376000Y-70645000I0J150000D01*
G01*
G37*
%TD*%
D10*
%TO.C,SW9*%
X257252000Y-68078000D03*
X257252000Y-73078000D03*
%TD*%
%TO.C,SW8*%
X232360000Y-68078000D03*
X232360000Y-73078000D03*
%TD*%
%TO.C,SW7*%
X207476000Y-68134000D03*
X207476000Y-73134000D03*
%TD*%
%TO.C,SW6*%
X182330000Y-68134000D03*
X182330000Y-73134000D03*
%TD*%
%TO.C,SW5*%
X257260000Y-59498000D03*
X257260000Y-64498000D03*
%TD*%
%TO.C,SW4*%
X232360000Y-59442000D03*
X232360000Y-64442000D03*
%TD*%
%TO.C,SW3*%
X207476000Y-59498000D03*
X207476000Y-64498000D03*
%TD*%
%TO.C,SW2*%
X182322000Y-59442000D03*
X182322000Y-64442000D03*
%TD*%
D11*
%TO.C,H4*%
X72800000Y-58000000D03*
%TD*%
%TO.C,H3*%
X269000000Y-95000000D03*
%TD*%
%TO.C,H2*%
X72800000Y-95000000D03*
%TD*%
%TO.C,H1*%
X269000000Y-58100000D03*
%TD*%
%TO.C,C2*%
G36*
G01*
X168976000Y-67177999D02*
X168976000Y-68478001D01*
G75*
G02*
X168726001Y-68728000I-249999J0D01*
G01*
X168075999Y-68728000D01*
G75*
G02*
X167826000Y-68478001I0J249999D01*
G01*
X167826000Y-67177999D01*
G75*
G02*
X168075999Y-66928000I249999J0D01*
G01*
X168726001Y-66928000D01*
G75*
G02*
X168976000Y-67177999I0J-249999D01*
G01*
G37*
G36*
G01*
X171926000Y-67177999D02*
X171926000Y-68478001D01*
G75*
G02*
X171676001Y-68728000I-249999J0D01*
G01*
X171025999Y-68728000D01*
G75*
G02*
X170776000Y-68478001I0J249999D01*
G01*
X170776000Y-67177999D01*
G75*
G02*
X171025999Y-66928000I249999J0D01*
G01*
X171676001Y-66928000D01*
G75*
G02*
X171926000Y-67177999I0J-249999D01*
G01*
G37*
%TD*%
%TO.C,C1*%
G36*
G01*
X111598001Y-63372000D02*
X110297999Y-63372000D01*
G75*
G02*
X110048000Y-63122001I0J249999D01*
G01*
X110048000Y-62471999D01*
G75*
G02*
X110297999Y-62222000I249999J0D01*
G01*
X111598001Y-62222000D01*
G75*
G02*
X111848000Y-62471999I0J-249999D01*
G01*
X111848000Y-63122001D01*
G75*
G02*
X111598001Y-63372000I-249999J0D01*
G01*
G37*
G36*
G01*
X111598001Y-66322000D02*
X110297999Y-66322000D01*
G75*
G02*
X110048000Y-66072001I0J249999D01*
G01*
X110048000Y-65421999D01*
G75*
G02*
X110297999Y-65172000I249999J0D01*
G01*
X111598001Y-65172000D01*
G75*
G02*
X111848000Y-65421999I0J-249999D01*
G01*
X111848000Y-66072001D01*
G75*
G02*
X111598001Y-66322000I-249999J0D01*
G01*
G37*
%TD*%
%TO.C,J4*%
G36*
G01*
X165784000Y-55858000D02*
X165784000Y-58758000D01*
G75*
G02*
X165534000Y-59008000I-250000J0D01*
G01*
X164534000Y-59008000D01*
G75*
G02*
X164284000Y-58758000I0J250000D01*
G01*
X164284000Y-55858000D01*
G75*
G02*
X164534000Y-55608000I250000J0D01*
G01*
X165534000Y-55608000D01*
G75*
G02*
X165784000Y-55858000I0J-250000D01*
G01*
G37*
G36*
G01*
X176484000Y-55858000D02*
X176484000Y-58758000D01*
G75*
G02*
X176234000Y-59008000I-250000J0D01*
G01*
X175234000Y-59008000D01*
G75*
G02*
X174984000Y-58758000I0J250000D01*
G01*
X174984000Y-55858000D01*
G75*
G02*
X175234000Y-55608000I250000J0D01*
G01*
X176234000Y-55608000D01*
G75*
G02*
X176484000Y-55858000I0J-250000D01*
G01*
G37*
G36*
G01*
X167884000Y-61558000D02*
X167884000Y-64558000D01*
G75*
G02*
X167634000Y-64808000I-250000J0D01*
G01*
X167134000Y-64808000D01*
G75*
G02*
X166884000Y-64558000I0J250000D01*
G01*
X166884000Y-61558000D01*
G75*
G02*
X167134000Y-61308000I250000J0D01*
G01*
X167634000Y-61308000D01*
G75*
G02*
X167884000Y-61558000I0J-250000D01*
G01*
G37*
G36*
G01*
X169884000Y-61558000D02*
X169884000Y-64558000D01*
G75*
G02*
X169634000Y-64808000I-250000J0D01*
G01*
X169134000Y-64808000D01*
G75*
G02*
X168884000Y-64558000I0J250000D01*
G01*
X168884000Y-61558000D01*
G75*
G02*
X169134000Y-61308000I250000J0D01*
G01*
X169634000Y-61308000D01*
G75*
G02*
X169884000Y-61558000I0J-250000D01*
G01*
G37*
G36*
G01*
X171884000Y-61558000D02*
X171884000Y-64558000D01*
G75*
G02*
X171634000Y-64808000I-250000J0D01*
G01*
X171134000Y-64808000D01*
G75*
G02*
X170884000Y-64558000I0J250000D01*
G01*
X170884000Y-61558000D01*
G75*
G02*
X171134000Y-61308000I250000J0D01*
G01*
X171634000Y-61308000D01*
G75*
G02*
X171884000Y-61558000I0J-250000D01*
G01*
G37*
G36*
G01*
X173884000Y-61558000D02*
X173884000Y-64558000D01*
G75*
G02*
X173634000Y-64808000I-250000J0D01*
G01*
X173134000Y-64808000D01*
G75*
G02*
X172884000Y-64558000I0J250000D01*
G01*
X172884000Y-61558000D01*
G75*
G02*
X173134000Y-61308000I250000J0D01*
G01*
X173634000Y-61308000D01*
G75*
G02*
X173884000Y-61558000I0J-250000D01*
G01*
G37*
%TD*%
D12*
%TO.C,J8*%
X109424000Y-57668000D03*
X111964000Y-57668000D03*
X114504000Y-57668000D03*
D13*
X117044000Y-57668000D03*
%TD*%
D14*
%TO.C,U10*%
X124674000Y-61236000D03*
X124674000Y-65636000D03*
D15*
X130124000Y-57536000D03*
X126424000Y-57536000D03*
X123624000Y-57536000D03*
X130124000Y-69336000D03*
X126424000Y-69336000D03*
X123624000Y-69336000D03*
%TD*%
%TO.C,R12*%
G36*
G01*
X135200000Y-59925001D02*
X135200000Y-58674999D01*
G75*
G02*
X135449999Y-58425000I249999J0D01*
G01*
X136075001Y-58425000D01*
G75*
G02*
X136325000Y-58674999I0J-249999D01*
G01*
X136325000Y-59925001D01*
G75*
G02*
X136075001Y-60175000I-249999J0D01*
G01*
X135449999Y-60175000D01*
G75*
G02*
X135200000Y-59925001I0J249999D01*
G01*
G37*
G36*
G01*
X132275000Y-59925001D02*
X132275000Y-58674999D01*
G75*
G02*
X132524999Y-58425000I249999J0D01*
G01*
X133150001Y-58425000D01*
G75*
G02*
X133400000Y-58674999I0J-249999D01*
G01*
X133400000Y-59925001D01*
G75*
G02*
X133150001Y-60175000I-249999J0D01*
G01*
X132524999Y-60175000D01*
G75*
G02*
X132275000Y-59925001I0J249999D01*
G01*
G37*
%TD*%
%TO.C,R11*%
G36*
G01*
X133400000Y-61174999D02*
X133400000Y-62425001D01*
G75*
G02*
X133150001Y-62675000I-249999J0D01*
G01*
X132524999Y-62675000D01*
G75*
G02*
X132275000Y-62425001I0J249999D01*
G01*
X132275000Y-61174999D01*
G75*
G02*
X132524999Y-60925000I249999J0D01*
G01*
X133150001Y-60925000D01*
G75*
G02*
X133400000Y-61174999I0J-249999D01*
G01*
G37*
G36*
G01*
X136325000Y-61174999D02*
X136325000Y-62425001D01*
G75*
G02*
X136075001Y-62675000I-249999J0D01*
G01*
X135449999Y-62675000D01*
G75*
G02*
X135200000Y-62425001I0J249999D01*
G01*
X135200000Y-61174999D01*
G75*
G02*
X135449999Y-60925000I249999J0D01*
G01*
X136075001Y-60925000D01*
G75*
G02*
X136325000Y-61174999I0J-249999D01*
G01*
G37*
%TD*%
%TO.C,R10*%
G36*
G01*
X133400000Y-63674999D02*
X133400000Y-64925001D01*
G75*
G02*
X133150001Y-65175000I-249999J0D01*
G01*
X132524999Y-65175000D01*
G75*
G02*
X132275000Y-64925001I0J249999D01*
G01*
X132275000Y-63674999D01*
G75*
G02*
X132524999Y-63425000I249999J0D01*
G01*
X133150001Y-63425000D01*
G75*
G02*
X133400000Y-63674999I0J-249999D01*
G01*
G37*
G36*
G01*
X136325000Y-63674999D02*
X136325000Y-64925001D01*
G75*
G02*
X136075001Y-65175000I-249999J0D01*
G01*
X135449999Y-65175000D01*
G75*
G02*
X135200000Y-64925001I0J249999D01*
G01*
X135200000Y-63674999D01*
G75*
G02*
X135449999Y-63425000I249999J0D01*
G01*
X136075001Y-63425000D01*
G75*
G02*
X136325000Y-63674999I0J-249999D01*
G01*
G37*
%TD*%
%TO.C,R9*%
G36*
G01*
X133400000Y-66174999D02*
X133400000Y-67425001D01*
G75*
G02*
X133150001Y-67675000I-249999J0D01*
G01*
X132524999Y-67675000D01*
G75*
G02*
X132275000Y-67425001I0J249999D01*
G01*
X132275000Y-66174999D01*
G75*
G02*
X132524999Y-65925000I249999J0D01*
G01*
X133150001Y-65925000D01*
G75*
G02*
X133400000Y-66174999I0J-249999D01*
G01*
G37*
G36*
G01*
X136325000Y-66174999D02*
X136325000Y-67425001D01*
G75*
G02*
X136075001Y-67675000I-249999J0D01*
G01*
X135449999Y-67675000D01*
G75*
G02*
X135200000Y-67425001I0J249999D01*
G01*
X135200000Y-66174999D01*
G75*
G02*
X135449999Y-65925000I249999J0D01*
G01*
X136075001Y-65925000D01*
G75*
G02*
X136325000Y-66174999I0J-249999D01*
G01*
G37*
%TD*%
%TO.C,R8*%
G36*
G01*
X133400000Y-68674999D02*
X133400000Y-69925001D01*
G75*
G02*
X133150001Y-70175000I-249999J0D01*
G01*
X132524999Y-70175000D01*
G75*
G02*
X132275000Y-69925001I0J249999D01*
G01*
X132275000Y-68674999D01*
G75*
G02*
X132524999Y-68425000I249999J0D01*
G01*
X133150001Y-68425000D01*
G75*
G02*
X133400000Y-68674999I0J-249999D01*
G01*
G37*
G36*
G01*
X136325000Y-68674999D02*
X136325000Y-69925001D01*
G75*
G02*
X136075001Y-70175000I-249999J0D01*
G01*
X135449999Y-70175000D01*
G75*
G02*
X135200000Y-69925001I0J249999D01*
G01*
X135200000Y-68674999D01*
G75*
G02*
X135449999Y-68425000I249999J0D01*
G01*
X136075001Y-68425000D01*
G75*
G02*
X136325000Y-68674999I0J-249999D01*
G01*
G37*
%TD*%
D16*
%TO.C,SW1*%
X99712000Y-56668000D03*
D17*
X103312000Y-56768000D03*
X101312000Y-56768000D03*
D16*
X100012000Y-58068000D03*
X104912000Y-56668000D03*
X104612000Y-58068000D03*
%TD*%
%TO.C,J7*%
G36*
G01*
X152068000Y-55858000D02*
X152068000Y-58758000D01*
G75*
G02*
X151818000Y-59008000I-250000J0D01*
G01*
X150818000Y-59008000D01*
G75*
G02*
X150568000Y-58758000I0J250000D01*
G01*
X150568000Y-55858000D01*
G75*
G02*
X150818000Y-55608000I250000J0D01*
G01*
X151818000Y-55608000D01*
G75*
G02*
X152068000Y-55858000I0J-250000D01*
G01*
G37*
G36*
G01*
X162768000Y-55858000D02*
X162768000Y-58758000D01*
G75*
G02*
X162518000Y-59008000I-250000J0D01*
G01*
X161518000Y-59008000D01*
G75*
G02*
X161268000Y-58758000I0J250000D01*
G01*
X161268000Y-55858000D01*
G75*
G02*
X161518000Y-55608000I250000J0D01*
G01*
X162518000Y-55608000D01*
G75*
G02*
X162768000Y-55858000I0J-250000D01*
G01*
G37*
G36*
G01*
X154168000Y-61558000D02*
X154168000Y-64558000D01*
G75*
G02*
X153918000Y-64808000I-250000J0D01*
G01*
X153418000Y-64808000D01*
G75*
G02*
X153168000Y-64558000I0J250000D01*
G01*
X153168000Y-61558000D01*
G75*
G02*
X153418000Y-61308000I250000J0D01*
G01*
X153918000Y-61308000D01*
G75*
G02*
X154168000Y-61558000I0J-250000D01*
G01*
G37*
G36*
G01*
X156168000Y-61558000D02*
X156168000Y-64558000D01*
G75*
G02*
X155918000Y-64808000I-250000J0D01*
G01*
X155418000Y-64808000D01*
G75*
G02*
X155168000Y-64558000I0J250000D01*
G01*
X155168000Y-61558000D01*
G75*
G02*
X155418000Y-61308000I250000J0D01*
G01*
X155918000Y-61308000D01*
G75*
G02*
X156168000Y-61558000I0J-250000D01*
G01*
G37*
G36*
G01*
X158168000Y-61558000D02*
X158168000Y-64558000D01*
G75*
G02*
X157918000Y-64808000I-250000J0D01*
G01*
X157418000Y-64808000D01*
G75*
G02*
X157168000Y-64558000I0J250000D01*
G01*
X157168000Y-61558000D01*
G75*
G02*
X157418000Y-61308000I250000J0D01*
G01*
X157918000Y-61308000D01*
G75*
G02*
X158168000Y-61558000I0J-250000D01*
G01*
G37*
G36*
G01*
X160168000Y-61558000D02*
X160168000Y-64558000D01*
G75*
G02*
X159918000Y-64808000I-250000J0D01*
G01*
X159418000Y-64808000D01*
G75*
G02*
X159168000Y-64558000I0J250000D01*
G01*
X159168000Y-61558000D01*
G75*
G02*
X159418000Y-61308000I250000J0D01*
G01*
X159918000Y-61308000D01*
G75*
G02*
X160168000Y-61558000I0J-250000D01*
G01*
G37*
%TD*%
D18*
%TO.C,RV4*%
X152500000Y-85600000D03*
X162100000Y-85600000D03*
D19*
X159800000Y-93100000D03*
X157300000Y-93100000D03*
D20*
X154800000Y-93100000D03*
%TD*%
D21*
%TO.C,J3*%
X90684000Y-58400000D03*
X97684000Y-58400000D03*
D22*
X91284000Y-58400000D03*
X97084000Y-58400000D03*
D23*
X93184000Y-58400000D03*
X95184000Y-58400000D03*
D24*
X91684000Y-61100000D03*
X96684000Y-61100000D03*
D25*
X92884000Y-61100000D03*
X93534000Y-61100000D03*
X94184000Y-61100000D03*
X94834000Y-61100000D03*
X95484000Y-61100000D03*
%TD*%
%TO.C,R6*%
G36*
G01*
X144654000Y-63646999D02*
X144654000Y-64897001D01*
G75*
G02*
X144404001Y-65147000I-249999J0D01*
G01*
X143778999Y-65147000D01*
G75*
G02*
X143529000Y-64897001I0J249999D01*
G01*
X143529000Y-63646999D01*
G75*
G02*
X143778999Y-63397000I249999J0D01*
G01*
X144404001Y-63397000D01*
G75*
G02*
X144654000Y-63646999I0J-249999D01*
G01*
G37*
G36*
G01*
X147579000Y-63646999D02*
X147579000Y-64897001D01*
G75*
G02*
X147329001Y-65147000I-249999J0D01*
G01*
X146703999Y-65147000D01*
G75*
G02*
X146454000Y-64897001I0J249999D01*
G01*
X146454000Y-63646999D01*
G75*
G02*
X146703999Y-63397000I249999J0D01*
G01*
X147329001Y-63397000D01*
G75*
G02*
X147579000Y-63646999I0J-249999D01*
G01*
G37*
%TD*%
%TO.C,R5*%
G36*
G01*
X144592000Y-61106999D02*
X144592000Y-62357001D01*
G75*
G02*
X144342001Y-62607000I-249999J0D01*
G01*
X143716999Y-62607000D01*
G75*
G02*
X143467000Y-62357001I0J249999D01*
G01*
X143467000Y-61106999D01*
G75*
G02*
X143716999Y-60857000I249999J0D01*
G01*
X144342001Y-60857000D01*
G75*
G02*
X144592000Y-61106999I0J-249999D01*
G01*
G37*
G36*
G01*
X147517000Y-61106999D02*
X147517000Y-62357001D01*
G75*
G02*
X147267001Y-62607000I-249999J0D01*
G01*
X146641999Y-62607000D01*
G75*
G02*
X146392000Y-62357001I0J249999D01*
G01*
X146392000Y-61106999D01*
G75*
G02*
X146641999Y-60857000I249999J0D01*
G01*
X147267001Y-60857000D01*
G75*
G02*
X147517000Y-61106999I0J-249999D01*
G01*
G37*
%TD*%
D26*
%TO.C,U3*%
X122392000Y-86522000D03*
X117792000Y-86522000D03*
X120092000Y-86522000D03*
D27*
X120092000Y-92822000D03*
%TD*%
D28*
%TO.C,U2*%
X76130000Y-60190000D03*
X76130000Y-62730000D03*
X76130000Y-65270000D03*
X76130000Y-67810000D03*
%TD*%
%TO.C,C23*%
G36*
G01*
X261849999Y-78700000D02*
X263150001Y-78700000D01*
G75*
G02*
X263400000Y-78949999I0J-249999D01*
G01*
X263400000Y-79600001D01*
G75*
G02*
X263150001Y-79850000I-249999J0D01*
G01*
X261849999Y-79850000D01*
G75*
G02*
X261600000Y-79600001I0J249999D01*
G01*
X261600000Y-78949999D01*
G75*
G02*
X261849999Y-78700000I249999J0D01*
G01*
G37*
G36*
G01*
X261849999Y-75750000D02*
X263150001Y-75750000D01*
G75*
G02*
X263400000Y-75999999I0J-249999D01*
G01*
X263400000Y-76650001D01*
G75*
G02*
X263150001Y-76900000I-249999J0D01*
G01*
X261849999Y-76900000D01*
G75*
G02*
X261600000Y-76650001I0J249999D01*
G01*
X261600000Y-75999999D01*
G75*
G02*
X261849999Y-75750000I249999J0D01*
G01*
G37*
%TD*%
%TO.C,C22*%
G36*
G01*
X226549999Y-78700000D02*
X227850001Y-78700000D01*
G75*
G02*
X228100000Y-78949999I0J-249999D01*
G01*
X228100000Y-79600001D01*
G75*
G02*
X227850001Y-79850000I-249999J0D01*
G01*
X226549999Y-79850000D01*
G75*
G02*
X226300000Y-79600001I0J249999D01*
G01*
X226300000Y-78949999D01*
G75*
G02*
X226549999Y-78700000I249999J0D01*
G01*
G37*
G36*
G01*
X226549999Y-75750000D02*
X227850001Y-75750000D01*
G75*
G02*
X228100000Y-75999999I0J-249999D01*
G01*
X228100000Y-76650001D01*
G75*
G02*
X227850001Y-76900000I-249999J0D01*
G01*
X226549999Y-76900000D01*
G75*
G02*
X226300000Y-76650001I0J249999D01*
G01*
X226300000Y-75999999D01*
G75*
G02*
X226549999Y-75750000I249999J0D01*
G01*
G37*
%TD*%
%TO.C,C21*%
G36*
G01*
X211749999Y-78700000D02*
X213050001Y-78700000D01*
G75*
G02*
X213300000Y-78949999I0J-249999D01*
G01*
X213300000Y-79600001D01*
G75*
G02*
X213050001Y-79850000I-249999J0D01*
G01*
X211749999Y-79850000D01*
G75*
G02*
X211500000Y-79600001I0J249999D01*
G01*
X211500000Y-78949999D01*
G75*
G02*
X211749999Y-78700000I249999J0D01*
G01*
G37*
G36*
G01*
X211749999Y-75750000D02*
X213050001Y-75750000D01*
G75*
G02*
X213300000Y-75999999I0J-249999D01*
G01*
X213300000Y-76650001D01*
G75*
G02*
X213050001Y-76900000I-249999J0D01*
G01*
X211749999Y-76900000D01*
G75*
G02*
X211500000Y-76650001I0J249999D01*
G01*
X211500000Y-75999999D01*
G75*
G02*
X211749999Y-75750000I249999J0D01*
G01*
G37*
%TD*%
%TO.C,C20*%
G36*
G01*
X176349999Y-78600000D02*
X177650001Y-78600000D01*
G75*
G02*
X177900000Y-78849999I0J-249999D01*
G01*
X177900000Y-79500001D01*
G75*
G02*
X177650001Y-79750000I-249999J0D01*
G01*
X176349999Y-79750000D01*
G75*
G02*
X176100000Y-79500001I0J249999D01*
G01*
X176100000Y-78849999D01*
G75*
G02*
X176349999Y-78600000I249999J0D01*
G01*
G37*
G36*
G01*
X176349999Y-75650000D02*
X177650001Y-75650000D01*
G75*
G02*
X177900000Y-75899999I0J-249999D01*
G01*
X177900000Y-76550001D01*
G75*
G02*
X177650001Y-76800000I-249999J0D01*
G01*
X176349999Y-76800000D01*
G75*
G02*
X176100000Y-76550001I0J249999D01*
G01*
X176100000Y-75899999D01*
G75*
G02*
X176349999Y-75650000I249999J0D01*
G01*
G37*
%TD*%
%TO.C,C19*%
G36*
G01*
X152049999Y-78700000D02*
X153350001Y-78700000D01*
G75*
G02*
X153600000Y-78949999I0J-249999D01*
G01*
X153600000Y-79600001D01*
G75*
G02*
X153350001Y-79850000I-249999J0D01*
G01*
X152049999Y-79850000D01*
G75*
G02*
X151800000Y-79600001I0J249999D01*
G01*
X151800000Y-78949999D01*
G75*
G02*
X152049999Y-78700000I249999J0D01*
G01*
G37*
G36*
G01*
X152049999Y-75750000D02*
X153350001Y-75750000D01*
G75*
G02*
X153600000Y-75999999I0J-249999D01*
G01*
X153600000Y-76650001D01*
G75*
G02*
X153350001Y-76900000I-249999J0D01*
G01*
X152049999Y-76900000D01*
G75*
G02*
X151800000Y-76650001I0J249999D01*
G01*
X151800000Y-75999999D01*
G75*
G02*
X152049999Y-75750000I249999J0D01*
G01*
G37*
%TD*%
%TO.C,C18*%
G36*
G01*
X126649999Y-78700000D02*
X127950001Y-78700000D01*
G75*
G02*
X128200000Y-78949999I0J-249999D01*
G01*
X128200000Y-79600001D01*
G75*
G02*
X127950001Y-79850000I-249999J0D01*
G01*
X126649999Y-79850000D01*
G75*
G02*
X126400000Y-79600001I0J249999D01*
G01*
X126400000Y-78949999D01*
G75*
G02*
X126649999Y-78700000I249999J0D01*
G01*
G37*
G36*
G01*
X126649999Y-75750000D02*
X127950001Y-75750000D01*
G75*
G02*
X128200000Y-75999999I0J-249999D01*
G01*
X128200000Y-76650001D01*
G75*
G02*
X127950001Y-76900000I-249999J0D01*
G01*
X126649999Y-76900000D01*
G75*
G02*
X126400000Y-76650001I0J249999D01*
G01*
X126400000Y-75999999D01*
G75*
G02*
X126649999Y-75750000I249999J0D01*
G01*
G37*
%TD*%
%TO.C,C17*%
G36*
G01*
X101749999Y-78700000D02*
X103050001Y-78700000D01*
G75*
G02*
X103300000Y-78949999I0J-249999D01*
G01*
X103300000Y-79600001D01*
G75*
G02*
X103050001Y-79850000I-249999J0D01*
G01*
X101749999Y-79850000D01*
G75*
G02*
X101500000Y-79600001I0J249999D01*
G01*
X101500000Y-78949999D01*
G75*
G02*
X101749999Y-78700000I249999J0D01*
G01*
G37*
G36*
G01*
X101749999Y-75750000D02*
X103050001Y-75750000D01*
G75*
G02*
X103300000Y-75999999I0J-249999D01*
G01*
X103300000Y-76650001D01*
G75*
G02*
X103050001Y-76900000I-249999J0D01*
G01*
X101749999Y-76900000D01*
G75*
G02*
X101500000Y-76650001I0J249999D01*
G01*
X101500000Y-75999999D01*
G75*
G02*
X101749999Y-75750000I249999J0D01*
G01*
G37*
%TD*%
%TO.C,C16*%
G36*
G01*
X76649999Y-78625000D02*
X77950001Y-78625000D01*
G75*
G02*
X78200000Y-78874999I0J-249999D01*
G01*
X78200000Y-79525001D01*
G75*
G02*
X77950001Y-79775000I-249999J0D01*
G01*
X76649999Y-79775000D01*
G75*
G02*
X76400000Y-79525001I0J249999D01*
G01*
X76400000Y-78874999D01*
G75*
G02*
X76649999Y-78625000I249999J0D01*
G01*
G37*
G36*
G01*
X76649999Y-75675000D02*
X77950001Y-75675000D01*
G75*
G02*
X78200000Y-75924999I0J-249999D01*
G01*
X78200000Y-76575001D01*
G75*
G02*
X77950001Y-76825000I-249999J0D01*
G01*
X76649999Y-76825000D01*
G75*
G02*
X76400000Y-76575001I0J249999D01*
G01*
X76400000Y-75924999D01*
G75*
G02*
X76649999Y-75675000I249999J0D01*
G01*
G37*
%TD*%
%TO.C,C15*%
G36*
G01*
X257136000Y-96418001D02*
X257136000Y-95117999D01*
G75*
G02*
X257385999Y-94868000I249999J0D01*
G01*
X258036001Y-94868000D01*
G75*
G02*
X258286000Y-95117999I0J-249999D01*
G01*
X258286000Y-96418001D01*
G75*
G02*
X258036001Y-96668000I-249999J0D01*
G01*
X257385999Y-96668000D01*
G75*
G02*
X257136000Y-96418001I0J249999D01*
G01*
G37*
G36*
G01*
X254186000Y-96418001D02*
X254186000Y-95117999D01*
G75*
G02*
X254435999Y-94868000I249999J0D01*
G01*
X255086001Y-94868000D01*
G75*
G02*
X255336000Y-95117999I0J-249999D01*
G01*
X255336000Y-96418001D01*
G75*
G02*
X255086001Y-96668000I-249999J0D01*
G01*
X254435999Y-96668000D01*
G75*
G02*
X254186000Y-96418001I0J249999D01*
G01*
G37*
%TD*%
%TO.C,C14*%
G36*
G01*
X232300000Y-96450001D02*
X232300000Y-95149999D01*
G75*
G02*
X232549999Y-94900000I249999J0D01*
G01*
X233200001Y-94900000D01*
G75*
G02*
X233450000Y-95149999I0J-249999D01*
G01*
X233450000Y-96450001D01*
G75*
G02*
X233200001Y-96700000I-249999J0D01*
G01*
X232549999Y-96700000D01*
G75*
G02*
X232300000Y-96450001I0J249999D01*
G01*
G37*
G36*
G01*
X229350000Y-96450001D02*
X229350000Y-95149999D01*
G75*
G02*
X229599999Y-94900000I249999J0D01*
G01*
X230250001Y-94900000D01*
G75*
G02*
X230500000Y-95149999I0J-249999D01*
G01*
X230500000Y-96450001D01*
G75*
G02*
X230250001Y-96700000I-249999J0D01*
G01*
X229599999Y-96700000D01*
G75*
G02*
X229350000Y-96450001I0J249999D01*
G01*
G37*
%TD*%
%TO.C,C13*%
G36*
G01*
X207300000Y-96450001D02*
X207300000Y-95149999D01*
G75*
G02*
X207549999Y-94900000I249999J0D01*
G01*
X208200001Y-94900000D01*
G75*
G02*
X208450000Y-95149999I0J-249999D01*
G01*
X208450000Y-96450001D01*
G75*
G02*
X208200001Y-96700000I-249999J0D01*
G01*
X207549999Y-96700000D01*
G75*
G02*
X207300000Y-96450001I0J249999D01*
G01*
G37*
G36*
G01*
X204350000Y-96450001D02*
X204350000Y-95149999D01*
G75*
G02*
X204599999Y-94900000I249999J0D01*
G01*
X205250001Y-94900000D01*
G75*
G02*
X205500000Y-95149999I0J-249999D01*
G01*
X205500000Y-96450001D01*
G75*
G02*
X205250001Y-96700000I-249999J0D01*
G01*
X204599999Y-96700000D01*
G75*
G02*
X204350000Y-96450001I0J249999D01*
G01*
G37*
%TD*%
%TO.C,C12*%
G36*
G01*
X182100000Y-96450001D02*
X182100000Y-95149999D01*
G75*
G02*
X182349999Y-94900000I249999J0D01*
G01*
X183000001Y-94900000D01*
G75*
G02*
X183250000Y-95149999I0J-249999D01*
G01*
X183250000Y-96450001D01*
G75*
G02*
X183000001Y-96700000I-249999J0D01*
G01*
X182349999Y-96700000D01*
G75*
G02*
X182100000Y-96450001I0J249999D01*
G01*
G37*
G36*
G01*
X179150000Y-96450001D02*
X179150000Y-95149999D01*
G75*
G02*
X179399999Y-94900000I249999J0D01*
G01*
X180050001Y-94900000D01*
G75*
G02*
X180300000Y-95149999I0J-249999D01*
G01*
X180300000Y-96450001D01*
G75*
G02*
X180050001Y-96700000I-249999J0D01*
G01*
X179399999Y-96700000D01*
G75*
G02*
X179150000Y-96450001I0J249999D01*
G01*
G37*
%TD*%
%TO.C,C11*%
G36*
G01*
X157100000Y-96350001D02*
X157100000Y-95049999D01*
G75*
G02*
X157349999Y-94800000I249999J0D01*
G01*
X158000001Y-94800000D01*
G75*
G02*
X158250000Y-95049999I0J-249999D01*
G01*
X158250000Y-96350001D01*
G75*
G02*
X158000001Y-96600000I-249999J0D01*
G01*
X157349999Y-96600000D01*
G75*
G02*
X157100000Y-96350001I0J249999D01*
G01*
G37*
G36*
G01*
X154150000Y-96350001D02*
X154150000Y-95049999D01*
G75*
G02*
X154399999Y-94800000I249999J0D01*
G01*
X155050001Y-94800000D01*
G75*
G02*
X155300000Y-95049999I0J-249999D01*
G01*
X155300000Y-96350001D01*
G75*
G02*
X155050001Y-96600000I-249999J0D01*
G01*
X154399999Y-96600000D01*
G75*
G02*
X154150000Y-96350001I0J249999D01*
G01*
G37*
%TD*%
%TO.C,C10*%
G36*
G01*
X132300000Y-96450001D02*
X132300000Y-95149999D01*
G75*
G02*
X132549999Y-94900000I249999J0D01*
G01*
X133200001Y-94900000D01*
G75*
G02*
X133450000Y-95149999I0J-249999D01*
G01*
X133450000Y-96450001D01*
G75*
G02*
X133200001Y-96700000I-249999J0D01*
G01*
X132549999Y-96700000D01*
G75*
G02*
X132300000Y-96450001I0J249999D01*
G01*
G37*
G36*
G01*
X129350000Y-96450001D02*
X129350000Y-95149999D01*
G75*
G02*
X129599999Y-94900000I249999J0D01*
G01*
X130250001Y-94900000D01*
G75*
G02*
X130500000Y-95149999I0J-249999D01*
G01*
X130500000Y-96450001D01*
G75*
G02*
X130250001Y-96700000I-249999J0D01*
G01*
X129599999Y-96700000D01*
G75*
G02*
X129350000Y-96450001I0J249999D01*
G01*
G37*
%TD*%
%TO.C,C9*%
G36*
G01*
X107400000Y-96450001D02*
X107400000Y-95149999D01*
G75*
G02*
X107649999Y-94900000I249999J0D01*
G01*
X108300001Y-94900000D01*
G75*
G02*
X108550000Y-95149999I0J-249999D01*
G01*
X108550000Y-96450001D01*
G75*
G02*
X108300001Y-96700000I-249999J0D01*
G01*
X107649999Y-96700000D01*
G75*
G02*
X107400000Y-96450001I0J249999D01*
G01*
G37*
G36*
G01*
X104450000Y-96450001D02*
X104450000Y-95149999D01*
G75*
G02*
X104699999Y-94900000I249999J0D01*
G01*
X105350001Y-94900000D01*
G75*
G02*
X105600000Y-95149999I0J-249999D01*
G01*
X105600000Y-96450001D01*
G75*
G02*
X105350001Y-96700000I-249999J0D01*
G01*
X104699999Y-96700000D01*
G75*
G02*
X104450000Y-96450001I0J249999D01*
G01*
G37*
%TD*%
%TO.C,C8*%
G36*
G01*
X82384000Y-96650001D02*
X82384000Y-95349999D01*
G75*
G02*
X82633999Y-95100000I249999J0D01*
G01*
X83284001Y-95100000D01*
G75*
G02*
X83534000Y-95349999I0J-249999D01*
G01*
X83534000Y-96650001D01*
G75*
G02*
X83284001Y-96900000I-249999J0D01*
G01*
X82633999Y-96900000D01*
G75*
G02*
X82384000Y-96650001I0J249999D01*
G01*
G37*
G36*
G01*
X79434000Y-96650001D02*
X79434000Y-95349999D01*
G75*
G02*
X79683999Y-95100000I249999J0D01*
G01*
X80334001Y-95100000D01*
G75*
G02*
X80584000Y-95349999I0J-249999D01*
G01*
X80584000Y-96650001D01*
G75*
G02*
X80334001Y-96900000I-249999J0D01*
G01*
X79683999Y-96900000D01*
G75*
G02*
X79434000Y-96650001I0J249999D01*
G01*
G37*
%TD*%
%TO.C,C7*%
G36*
G01*
X162880000Y-95117999D02*
X162880000Y-96418001D01*
G75*
G02*
X162630001Y-96668000I-249999J0D01*
G01*
X161979999Y-96668000D01*
G75*
G02*
X161730000Y-96418001I0J249999D01*
G01*
X161730000Y-95117999D01*
G75*
G02*
X161979999Y-94868000I249999J0D01*
G01*
X162630001Y-94868000D01*
G75*
G02*
X162880000Y-95117999I0J-249999D01*
G01*
G37*
G36*
G01*
X165830000Y-95117999D02*
X165830000Y-96418001D01*
G75*
G02*
X165580001Y-96668000I-249999J0D01*
G01*
X164929999Y-96668000D01*
G75*
G02*
X164680000Y-96418001I0J249999D01*
G01*
X164680000Y-95117999D01*
G75*
G02*
X164929999Y-94868000I249999J0D01*
G01*
X165580001Y-94868000D01*
G75*
G02*
X165830000Y-95117999I0J-249999D01*
G01*
G37*
%TD*%
%TO.C,U7*%
G36*
G01*
X171376000Y-82837000D02*
X171376000Y-82537000D01*
G75*
G02*
X171526000Y-82387000I150000J0D01*
G01*
X173226000Y-82387000D01*
G75*
G02*
X173376000Y-82537000I0J-150000D01*
G01*
X173376000Y-82837000D01*
G75*
G02*
X173226000Y-82987000I-150000J0D01*
G01*
X171526000Y-82987000D01*
G75*
G02*
X171376000Y-82837000I0J150000D01*
G01*
G37*
G36*
G01*
X171376000Y-84107000D02*
X171376000Y-83807000D01*
G75*
G02*
X171526000Y-83657000I150000J0D01*
G01*
X173226000Y-83657000D01*
G75*
G02*
X173376000Y-83807000I0J-150000D01*
G01*
X173376000Y-84107000D01*
G75*
G02*
X173226000Y-84257000I-150000J0D01*
G01*
X171526000Y-84257000D01*
G75*
G02*
X171376000Y-84107000I0J150000D01*
G01*
G37*
G36*
G01*
X171376000Y-85377000D02*
X171376000Y-85077000D01*
G75*
G02*
X171526000Y-84927000I150000J0D01*
G01*
X173226000Y-84927000D01*
G75*
G02*
X173376000Y-85077000I0J-150000D01*
G01*
X173376000Y-85377000D01*
G75*
G02*
X173226000Y-85527000I-150000J0D01*
G01*
X171526000Y-85527000D01*
G75*
G02*
X171376000Y-85377000I0J150000D01*
G01*
G37*
G36*
G01*
X171376000Y-86647000D02*
X171376000Y-86347000D01*
G75*
G02*
X171526000Y-86197000I150000J0D01*
G01*
X173226000Y-86197000D01*
G75*
G02*
X173376000Y-86347000I0J-150000D01*
G01*
X173376000Y-86647000D01*
G75*
G02*
X173226000Y-86797000I-150000J0D01*
G01*
X171526000Y-86797000D01*
G75*
G02*
X171376000Y-86647000I0J150000D01*
G01*
G37*
G36*
G01*
X171376000Y-87917000D02*
X171376000Y-87617000D01*
G75*
G02*
X171526000Y-87467000I150000J0D01*
G01*
X173226000Y-87467000D01*
G75*
G02*
X173376000Y-87617000I0J-150000D01*
G01*
X173376000Y-87917000D01*
G75*
G02*
X173226000Y-88067000I-150000J0D01*
G01*
X171526000Y-88067000D01*
G75*
G02*
X171376000Y-87917000I0J150000D01*
G01*
G37*
G36*
G01*
X171376000Y-89187000D02*
X171376000Y-88887000D01*
G75*
G02*
X171526000Y-88737000I150000J0D01*
G01*
X173226000Y-88737000D01*
G75*
G02*
X173376000Y-88887000I0J-150000D01*
G01*
X173376000Y-89187000D01*
G75*
G02*
X173226000Y-89337000I-150000J0D01*
G01*
X171526000Y-89337000D01*
G75*
G02*
X171376000Y-89187000I0J150000D01*
G01*
G37*
G36*
G01*
X171376000Y-90457000D02*
X171376000Y-90157000D01*
G75*
G02*
X171526000Y-90007000I150000J0D01*
G01*
X173226000Y-90007000D01*
G75*
G02*
X173376000Y-90157000I0J-150000D01*
G01*
X173376000Y-90457000D01*
G75*
G02*
X173226000Y-90607000I-150000J0D01*
G01*
X171526000Y-90607000D01*
G75*
G02*
X171376000Y-90457000I0J150000D01*
G01*
G37*
G36*
G01*
X171376000Y-91727000D02*
X171376000Y-91427000D01*
G75*
G02*
X171526000Y-91277000I150000J0D01*
G01*
X173226000Y-91277000D01*
G75*
G02*
X173376000Y-91427000I0J-150000D01*
G01*
X173376000Y-91727000D01*
G75*
G02*
X173226000Y-91877000I-150000J0D01*
G01*
X171526000Y-91877000D01*
G75*
G02*
X171376000Y-91727000I0J150000D01*
G01*
G37*
G36*
G01*
X166376000Y-91727000D02*
X166376000Y-91427000D01*
G75*
G02*
X166526000Y-91277000I150000J0D01*
G01*
X168226000Y-91277000D01*
G75*
G02*
X168376000Y-91427000I0J-150000D01*
G01*
X168376000Y-91727000D01*
G75*
G02*
X168226000Y-91877000I-150000J0D01*
G01*
X166526000Y-91877000D01*
G75*
G02*
X166376000Y-91727000I0J150000D01*
G01*
G37*
G36*
G01*
X166376000Y-90457000D02*
X166376000Y-90157000D01*
G75*
G02*
X166526000Y-90007000I150000J0D01*
G01*
X168226000Y-90007000D01*
G75*
G02*
X168376000Y-90157000I0J-150000D01*
G01*
X168376000Y-90457000D01*
G75*
G02*
X168226000Y-90607000I-150000J0D01*
G01*
X166526000Y-90607000D01*
G75*
G02*
X166376000Y-90457000I0J150000D01*
G01*
G37*
G36*
G01*
X166376000Y-89187000D02*
X166376000Y-88887000D01*
G75*
G02*
X166526000Y-88737000I150000J0D01*
G01*
X168226000Y-88737000D01*
G75*
G02*
X168376000Y-88887000I0J-150000D01*
G01*
X168376000Y-89187000D01*
G75*
G02*
X168226000Y-89337000I-150000J0D01*
G01*
X166526000Y-89337000D01*
G75*
G02*
X166376000Y-89187000I0J150000D01*
G01*
G37*
G36*
G01*
X166376000Y-87917000D02*
X166376000Y-87617000D01*
G75*
G02*
X166526000Y-87467000I150000J0D01*
G01*
X168226000Y-87467000D01*
G75*
G02*
X168376000Y-87617000I0J-150000D01*
G01*
X168376000Y-87917000D01*
G75*
G02*
X168226000Y-88067000I-150000J0D01*
G01*
X166526000Y-88067000D01*
G75*
G02*
X166376000Y-87917000I0J150000D01*
G01*
G37*
G36*
G01*
X166376000Y-86647000D02*
X166376000Y-86347000D01*
G75*
G02*
X166526000Y-86197000I150000J0D01*
G01*
X168226000Y-86197000D01*
G75*
G02*
X168376000Y-86347000I0J-150000D01*
G01*
X168376000Y-86647000D01*
G75*
G02*
X168226000Y-86797000I-150000J0D01*
G01*
X166526000Y-86797000D01*
G75*
G02*
X166376000Y-86647000I0J150000D01*
G01*
G37*
G36*
G01*
X166376000Y-85377000D02*
X166376000Y-85077000D01*
G75*
G02*
X166526000Y-84927000I150000J0D01*
G01*
X168226000Y-84927000D01*
G75*
G02*
X168376000Y-85077000I0J-150000D01*
G01*
X168376000Y-85377000D01*
G75*
G02*
X168226000Y-85527000I-150000J0D01*
G01*
X166526000Y-85527000D01*
G75*
G02*
X166376000Y-85377000I0J150000D01*
G01*
G37*
G36*
G01*
X166376000Y-84107000D02*
X166376000Y-83807000D01*
G75*
G02*
X166526000Y-83657000I150000J0D01*
G01*
X168226000Y-83657000D01*
G75*
G02*
X168376000Y-83807000I0J-150000D01*
G01*
X168376000Y-84107000D01*
G75*
G02*
X168226000Y-84257000I-150000J0D01*
G01*
X166526000Y-84257000D01*
G75*
G02*
X166376000Y-84107000I0J150000D01*
G01*
G37*
G36*
G01*
X166376000Y-82837000D02*
X166376000Y-82537000D01*
G75*
G02*
X166526000Y-82387000I150000J0D01*
G01*
X168226000Y-82387000D01*
G75*
G02*
X168376000Y-82537000I0J-150000D01*
G01*
X168376000Y-82837000D01*
G75*
G02*
X168226000Y-82987000I-150000J0D01*
G01*
X166526000Y-82987000D01*
G75*
G02*
X166376000Y-82837000I0J150000D01*
G01*
G37*
%TD*%
D18*
%TO.C,RV8*%
X252600000Y-85600000D03*
X262200000Y-85600000D03*
D19*
X259900000Y-93100000D03*
X257400000Y-93100000D03*
D20*
X254900000Y-93100000D03*
%TD*%
D18*
%TO.C,RV7*%
X227600000Y-85600000D03*
X237200000Y-85600000D03*
D19*
X234900000Y-93100000D03*
X232400000Y-93100000D03*
D20*
X229900000Y-93100000D03*
%TD*%
D18*
%TO.C,RV6*%
X202600000Y-85600000D03*
X212200000Y-85600000D03*
D19*
X209900000Y-93100000D03*
X207400000Y-93100000D03*
D20*
X204900000Y-93100000D03*
%TD*%
D18*
%TO.C,RV5*%
X177500000Y-85600000D03*
X187100000Y-85600000D03*
D19*
X184800000Y-93100000D03*
X182300000Y-93100000D03*
D20*
X179800000Y-93100000D03*
%TD*%
D18*
%TO.C,RV3*%
X127600000Y-85600000D03*
X137200000Y-85600000D03*
D19*
X134900000Y-93100000D03*
X132400000Y-93100000D03*
D20*
X129900000Y-93100000D03*
%TD*%
D18*
%TO.C,RV2*%
X102700000Y-85600000D03*
X112300000Y-85600000D03*
D19*
X110000000Y-93100000D03*
X107500000Y-93100000D03*
D20*
X105000000Y-93100000D03*
%TD*%
D18*
%TO.C,RV1*%
X77600000Y-85700000D03*
X87200000Y-85700000D03*
D19*
X84900000Y-93200000D03*
X82400000Y-93200000D03*
D20*
X79900000Y-93200000D03*
%TD*%
D29*
%TO.C,D11*%
X259702000Y-79207000D03*
X259702000Y-76007000D03*
X254802000Y-79207000D03*
X254802000Y-76007000D03*
%TD*%
%TO.C,D10*%
X234750000Y-79207000D03*
X234750000Y-76007000D03*
X229850000Y-79207000D03*
X229850000Y-76007000D03*
%TD*%
%TO.C,D9*%
X209750000Y-79207000D03*
X209750000Y-76007000D03*
X204850000Y-79207000D03*
X204850000Y-76007000D03*
%TD*%
%TO.C,D8*%
X184750000Y-79207000D03*
X184750000Y-76007000D03*
X179850000Y-79207000D03*
X179850000Y-76007000D03*
%TD*%
%TO.C,D7*%
X159750000Y-79207000D03*
X159750000Y-76007000D03*
X154850000Y-79207000D03*
X154850000Y-76007000D03*
%TD*%
%TO.C,D6*%
X134734000Y-79207000D03*
X134734000Y-76007000D03*
X129834000Y-79207000D03*
X129834000Y-76007000D03*
%TD*%
%TO.C,D5*%
X109740400Y-79232400D03*
X109740400Y-76032400D03*
X104840400Y-79232400D03*
X104840400Y-76032400D03*
%TD*%
%TO.C,D4*%
X84746800Y-79334000D03*
X84746800Y-76134000D03*
X79846800Y-79334000D03*
X79846800Y-76134000D03*
%TD*%
D30*
%TO.C,U5*%
X90442000Y-76216000D03*
X90442000Y-75416000D03*
X90442000Y-74616000D03*
X90442000Y-73816000D03*
X90442000Y-73016000D03*
X90442000Y-72216000D03*
X90442000Y-71416000D03*
X90442000Y-70616000D03*
D31*
X91892000Y-69166000D03*
X92692000Y-69166000D03*
X93492000Y-69166000D03*
X94292000Y-69166000D03*
X95092000Y-69166000D03*
X95892000Y-69166000D03*
X96692000Y-69166000D03*
X97492000Y-69166000D03*
D30*
X98942000Y-70616000D03*
X98942000Y-71416000D03*
X98942000Y-72216000D03*
X98942000Y-73016000D03*
X98942000Y-73816000D03*
X98942000Y-74616000D03*
X98942000Y-75416000D03*
X98942000Y-76216000D03*
D31*
X97492000Y-77666000D03*
X96692000Y-77666000D03*
X95892000Y-77666000D03*
X95092000Y-77666000D03*
X94292000Y-77666000D03*
X93492000Y-77666000D03*
X92692000Y-77666000D03*
X91892000Y-77666000D03*
%TD*%
%TO.C,F1*%
G36*
G01*
X96457000Y-63139000D02*
X96457000Y-64389000D01*
G75*
G02*
X96207000Y-64639000I-250000J0D01*
G01*
X95457000Y-64639000D01*
G75*
G02*
X95207000Y-64389000I0J250000D01*
G01*
X95207000Y-63139000D01*
G75*
G02*
X95457000Y-62889000I250000J0D01*
G01*
X96207000Y-62889000D01*
G75*
G02*
X96457000Y-63139000I0J-250000D01*
G01*
G37*
G36*
G01*
X99257000Y-63139000D02*
X99257000Y-64389000D01*
G75*
G02*
X99007000Y-64639000I-250000J0D01*
G01*
X98257000Y-64639000D01*
G75*
G02*
X98007000Y-64389000I0J250000D01*
G01*
X98007000Y-63139000D01*
G75*
G02*
X98257000Y-62889000I250000J0D01*
G01*
X99007000Y-62889000D01*
G75*
G02*
X99257000Y-63139000I0J-250000D01*
G01*
G37*
%TD*%
D32*
%TO.C,D3*%
X118644000Y-61568000D03*
X115444000Y-61568000D03*
X118644000Y-66468000D03*
X115444000Y-66468000D03*
%TD*%
%TO.C,C6*%
G36*
G01*
X125568001Y-89280000D02*
X124267999Y-89280000D01*
G75*
G02*
X124018000Y-89030001I0J249999D01*
G01*
X124018000Y-88379999D01*
G75*
G02*
X124267999Y-88130000I249999J0D01*
G01*
X125568001Y-88130000D01*
G75*
G02*
X125818000Y-88379999I0J-249999D01*
G01*
X125818000Y-89030001D01*
G75*
G02*
X125568001Y-89280000I-249999J0D01*
G01*
G37*
G36*
G01*
X125568001Y-92230000D02*
X124267999Y-92230000D01*
G75*
G02*
X124018000Y-91980001I0J249999D01*
G01*
X124018000Y-91329999D01*
G75*
G02*
X124267999Y-91080000I249999J0D01*
G01*
X125568001Y-91080000D01*
G75*
G02*
X125818000Y-91329999I0J-249999D01*
G01*
X125818000Y-91980001D01*
G75*
G02*
X125568001Y-92230000I-249999J0D01*
G01*
G37*
%TD*%
%TO.C,C5*%
G36*
G01*
X114514399Y-91080000D02*
X115814401Y-91080000D01*
G75*
G02*
X116064400Y-91329999I0J-249999D01*
G01*
X116064400Y-91980001D01*
G75*
G02*
X115814401Y-92230000I-249999J0D01*
G01*
X114514399Y-92230000D01*
G75*
G02*
X114264400Y-91980001I0J249999D01*
G01*
X114264400Y-91329999D01*
G75*
G02*
X114514399Y-91080000I249999J0D01*
G01*
G37*
G36*
G01*
X114514399Y-88130000D02*
X115814401Y-88130000D01*
G75*
G02*
X116064400Y-88379999I0J-249999D01*
G01*
X116064400Y-89030001D01*
G75*
G02*
X115814401Y-89280000I-249999J0D01*
G01*
X114514399Y-89280000D01*
G75*
G02*
X114264400Y-89030001I0J249999D01*
G01*
X114264400Y-88379999D01*
G75*
G02*
X114514399Y-88130000I249999J0D01*
G01*
G37*
%TD*%
%TO.C,C3*%
G36*
G01*
X84140000Y-72257999D02*
X84140000Y-73558001D01*
G75*
G02*
X83890001Y-73808000I-249999J0D01*
G01*
X83239999Y-73808000D01*
G75*
G02*
X82990000Y-73558001I0J249999D01*
G01*
X82990000Y-72257999D01*
G75*
G02*
X83239999Y-72008000I249999J0D01*
G01*
X83890001Y-72008000D01*
G75*
G02*
X84140000Y-72257999I0J-249999D01*
G01*
G37*
G36*
G01*
X87090000Y-72257999D02*
X87090000Y-73558001D01*
G75*
G02*
X86840001Y-73808000I-249999J0D01*
G01*
X86189999Y-73808000D01*
G75*
G02*
X85940000Y-73558001I0J249999D01*
G01*
X85940000Y-72257999D01*
G75*
G02*
X86189999Y-72008000I249999J0D01*
G01*
X86840001Y-72008000D01*
G75*
G02*
X87090000Y-72257999I0J-249999D01*
G01*
G37*
%TD*%
M02*
