%TF.GenerationSoftware,KiCad,Pcbnew,(5.1.9-0-10_14)*%
%TF.CreationDate,2021-11-27T16:04:38+01:00*%
%TF.ProjectId,SoundCore Knobs,536f756e-6443-46f7-9265-204b6e6f6273,rev?*%
%TF.SameCoordinates,Original*%
%TF.FileFunction,Legend,Top*%
%TF.FilePolarity,Positive*%
%FSLAX46Y46*%
G04 Gerber Fmt 4.6, Leading zero omitted, Abs format (unit mm)*
G04 Created by KiCad (PCBNEW (5.1.9-0-10_14)) date 2021-11-27 16:04:38*
%MOMM*%
%LPD*%
G01*
G04 APERTURE LIST*
%ADD10C,0.300000*%
%ADD11C,0.120000*%
%ADD12C,0.150000*%
G04 APERTURE END LIST*
D10*
X267609523Y-89657142D02*
X267704761Y-89371428D01*
X267704761Y-88895238D01*
X267609523Y-88704761D01*
X267514285Y-88609523D01*
X267323809Y-88514285D01*
X267133333Y-88514285D01*
X266942857Y-88609523D01*
X266847619Y-88704761D01*
X266752380Y-88895238D01*
X266657142Y-89276190D01*
X266561904Y-89466666D01*
X266466666Y-89561904D01*
X266276190Y-89657142D01*
X266085714Y-89657142D01*
X265895238Y-89561904D01*
X265800000Y-89466666D01*
X265704761Y-89276190D01*
X265704761Y-88800000D01*
X265800000Y-88514285D01*
X267704761Y-87371428D02*
X267609523Y-87561904D01*
X267514285Y-87657142D01*
X267323809Y-87752380D01*
X266752380Y-87752380D01*
X266561904Y-87657142D01*
X266466666Y-87561904D01*
X266371428Y-87371428D01*
X266371428Y-87085714D01*
X266466666Y-86895238D01*
X266561904Y-86800000D01*
X266752380Y-86704761D01*
X267323809Y-86704761D01*
X267514285Y-86800000D01*
X267609523Y-86895238D01*
X267704761Y-87085714D01*
X267704761Y-87371428D01*
X266371428Y-84990476D02*
X267704761Y-84990476D01*
X266371428Y-85847619D02*
X267419047Y-85847619D01*
X267609523Y-85752380D01*
X267704761Y-85561904D01*
X267704761Y-85276190D01*
X267609523Y-85085714D01*
X267514285Y-84990476D01*
X266371428Y-84038095D02*
X267704761Y-84038095D01*
X266561904Y-84038095D02*
X266466666Y-83942857D01*
X266371428Y-83752380D01*
X266371428Y-83466666D01*
X266466666Y-83276190D01*
X266657142Y-83180952D01*
X267704761Y-83180952D01*
X267704761Y-81371428D02*
X265704761Y-81371428D01*
X267609523Y-81371428D02*
X267704761Y-81561904D01*
X267704761Y-81942857D01*
X267609523Y-82133333D01*
X267514285Y-82228571D01*
X267323809Y-82323809D01*
X266752380Y-82323809D01*
X266561904Y-82228571D01*
X266466666Y-82133333D01*
X266371428Y-81942857D01*
X266371428Y-81561904D01*
X266466666Y-81371428D01*
X267514285Y-79276190D02*
X267609523Y-79371428D01*
X267704761Y-79657142D01*
X267704761Y-79847619D01*
X267609523Y-80133333D01*
X267419047Y-80323809D01*
X267228571Y-80419047D01*
X266847619Y-80514285D01*
X266561904Y-80514285D01*
X266180952Y-80419047D01*
X265990476Y-80323809D01*
X265800000Y-80133333D01*
X265704761Y-79847619D01*
X265704761Y-79657142D01*
X265800000Y-79371428D01*
X265895238Y-79276190D01*
X267704761Y-78133333D02*
X267609523Y-78323809D01*
X267514285Y-78419047D01*
X267323809Y-78514285D01*
X266752380Y-78514285D01*
X266561904Y-78419047D01*
X266466666Y-78323809D01*
X266371428Y-78133333D01*
X266371428Y-77847619D01*
X266466666Y-77657142D01*
X266561904Y-77561904D01*
X266752380Y-77466666D01*
X267323809Y-77466666D01*
X267514285Y-77561904D01*
X267609523Y-77657142D01*
X267704761Y-77847619D01*
X267704761Y-78133333D01*
X267704761Y-76609523D02*
X266371428Y-76609523D01*
X266752380Y-76609523D02*
X266561904Y-76514285D01*
X266466666Y-76419047D01*
X266371428Y-76228571D01*
X266371428Y-76038095D01*
X267609523Y-74609523D02*
X267704761Y-74800000D01*
X267704761Y-75180952D01*
X267609523Y-75371428D01*
X267419047Y-75466666D01*
X266657142Y-75466666D01*
X266466666Y-75371428D01*
X266371428Y-75180952D01*
X266371428Y-74800000D01*
X266466666Y-74609523D01*
X266657142Y-74514285D01*
X266847619Y-74514285D01*
X267038095Y-75466666D01*
X267704761Y-72133333D02*
X265704761Y-72133333D01*
X267704761Y-70990476D02*
X266561904Y-71847619D01*
X265704761Y-70990476D02*
X266847619Y-72133333D01*
X266371428Y-70133333D02*
X267704761Y-70133333D01*
X266561904Y-70133333D02*
X266466666Y-70038095D01*
X266371428Y-69847619D01*
X266371428Y-69561904D01*
X266466666Y-69371428D01*
X266657142Y-69276190D01*
X267704761Y-69276190D01*
X267704761Y-68038095D02*
X267609523Y-68228571D01*
X267514285Y-68323809D01*
X267323809Y-68419047D01*
X266752380Y-68419047D01*
X266561904Y-68323809D01*
X266466666Y-68228571D01*
X266371428Y-68038095D01*
X266371428Y-67752380D01*
X266466666Y-67561904D01*
X266561904Y-67466666D01*
X266752380Y-67371428D01*
X267323809Y-67371428D01*
X267514285Y-67466666D01*
X267609523Y-67561904D01*
X267704761Y-67752380D01*
X267704761Y-68038095D01*
X267704761Y-66514285D02*
X265704761Y-66514285D01*
X266466666Y-66514285D02*
X266371428Y-66323809D01*
X266371428Y-65942857D01*
X266466666Y-65752380D01*
X266561904Y-65657142D01*
X266752380Y-65561904D01*
X267323809Y-65561904D01*
X267514285Y-65657142D01*
X267609523Y-65752380D01*
X267704761Y-65942857D01*
X267704761Y-66323809D01*
X267609523Y-66514285D01*
X267609523Y-64800000D02*
X267704761Y-64609523D01*
X267704761Y-64228571D01*
X267609523Y-64038095D01*
X267419047Y-63942857D01*
X267323809Y-63942857D01*
X267133333Y-64038095D01*
X267038095Y-64228571D01*
X267038095Y-64514285D01*
X266942857Y-64704761D01*
X266752380Y-64800000D01*
X266657142Y-64800000D01*
X266466666Y-64704761D01*
X266371428Y-64514285D01*
X266371428Y-64228571D01*
X266466666Y-64038095D01*
X77892857Y-63357142D02*
X78035714Y-63428571D01*
X78321428Y-63428571D01*
X78464285Y-63357142D01*
X78535714Y-63214285D01*
X78535714Y-63142857D01*
X78464285Y-63000000D01*
X78321428Y-62928571D01*
X78107142Y-62928571D01*
X77964285Y-62857142D01*
X77892857Y-62714285D01*
X77892857Y-62642857D01*
X77964285Y-62500000D01*
X78107142Y-62428571D01*
X78321428Y-62428571D01*
X78464285Y-62500000D01*
X79821428Y-63357142D02*
X79678571Y-63428571D01*
X79392857Y-63428571D01*
X79250000Y-63357142D01*
X79178571Y-63285714D01*
X79107142Y-63142857D01*
X79107142Y-62714285D01*
X79178571Y-62571428D01*
X79250000Y-62500000D01*
X79392857Y-62428571D01*
X79678571Y-62428571D01*
X79821428Y-62500000D01*
X80678571Y-63428571D02*
X80535714Y-63357142D01*
X80464285Y-63214285D01*
X80464285Y-61928571D01*
X77821428Y-60857142D02*
X77964285Y-60928571D01*
X78250000Y-60928571D01*
X78392857Y-60857142D01*
X78464285Y-60714285D01*
X78464285Y-60642857D01*
X78392857Y-60500000D01*
X78250000Y-60428571D01*
X78035714Y-60428571D01*
X77892857Y-60357142D01*
X77821428Y-60214285D01*
X77821428Y-60142857D01*
X77892857Y-60000000D01*
X78035714Y-59928571D01*
X78250000Y-59928571D01*
X78392857Y-60000000D01*
X79750000Y-60928571D02*
X79750000Y-59428571D01*
X79750000Y-60857142D02*
X79607142Y-60928571D01*
X79321428Y-60928571D01*
X79178571Y-60857142D01*
X79107142Y-60785714D01*
X79035714Y-60642857D01*
X79035714Y-60214285D01*
X79107142Y-60071428D01*
X79178571Y-60000000D01*
X79321428Y-59928571D01*
X79607142Y-59928571D01*
X79750000Y-60000000D01*
X81107142Y-60928571D02*
X81107142Y-60142857D01*
X81035714Y-60000000D01*
X80892857Y-59928571D01*
X80607142Y-59928571D01*
X80464285Y-60000000D01*
X81107142Y-60857142D02*
X80964285Y-60928571D01*
X80607142Y-60928571D01*
X80464285Y-60857142D01*
X80392857Y-60714285D01*
X80392857Y-60571428D01*
X80464285Y-60428571D01*
X80607142Y-60357142D01*
X80964285Y-60357142D01*
X81107142Y-60285714D01*
X78714285Y-67428571D02*
X78714285Y-68642857D01*
X78642857Y-68785714D01*
X78571428Y-68857142D01*
X78428571Y-68928571D01*
X78214285Y-68928571D01*
X78071428Y-68857142D01*
X78714285Y-68357142D02*
X78571428Y-68428571D01*
X78285714Y-68428571D01*
X78142857Y-68357142D01*
X78071428Y-68285714D01*
X78000000Y-68142857D01*
X78000000Y-67714285D01*
X78071428Y-67571428D01*
X78142857Y-67500000D01*
X78285714Y-67428571D01*
X78571428Y-67428571D01*
X78714285Y-67500000D01*
X79428571Y-67428571D02*
X79428571Y-68428571D01*
X79428571Y-67571428D02*
X79500000Y-67500000D01*
X79642857Y-67428571D01*
X79857142Y-67428571D01*
X80000000Y-67500000D01*
X80071428Y-67642857D01*
X80071428Y-68428571D01*
X81428571Y-68428571D02*
X81428571Y-66928571D01*
X81428571Y-68357142D02*
X81285714Y-68428571D01*
X81000000Y-68428571D01*
X80857142Y-68357142D01*
X80785714Y-68285714D01*
X80714285Y-68142857D01*
X80714285Y-67714285D01*
X80785714Y-67571428D01*
X80857142Y-67500000D01*
X81000000Y-67428571D01*
X81285714Y-67428571D01*
X81428571Y-67500000D01*
X77857142Y-64928571D02*
X78214285Y-65928571D01*
X78571428Y-64928571D01*
X79785714Y-65857142D02*
X79642857Y-65928571D01*
X79357142Y-65928571D01*
X79214285Y-65857142D01*
X79142857Y-65785714D01*
X79071428Y-65642857D01*
X79071428Y-65214285D01*
X79142857Y-65071428D01*
X79214285Y-65000000D01*
X79357142Y-64928571D01*
X79642857Y-64928571D01*
X79785714Y-65000000D01*
X81071428Y-65857142D02*
X80928571Y-65928571D01*
X80642857Y-65928571D01*
X80500000Y-65857142D01*
X80428571Y-65785714D01*
X80357142Y-65642857D01*
X80357142Y-65214285D01*
X80428571Y-65071428D01*
X80500000Y-65000000D01*
X80642857Y-64928571D01*
X80928571Y-64928571D01*
X81071428Y-65000000D01*
X89806571Y-77480000D02*
X90163714Y-77480000D01*
X90020857Y-77837142D02*
X90163714Y-77480000D01*
X90020857Y-77122857D01*
X90449428Y-77694285D02*
X90163714Y-77480000D01*
X90449428Y-77265714D01*
D11*
%TO.C,R4*%
X163052936Y-68738000D02*
X164507064Y-68738000D01*
X163052936Y-66918000D02*
X164507064Y-66918000D01*
%TO.C,U1*%
X169876000Y-69880000D02*
X166376000Y-69880000D01*
X169876000Y-69880000D02*
X171826000Y-69880000D01*
X169876000Y-80000000D02*
X167926000Y-80000000D01*
X169876000Y-80000000D02*
X171826000Y-80000000D01*
%TO.C,SW9*%
X260652368Y-70578000D02*
G75*
G03*
X260652368Y-70578000I-3400368J0D01*
G01*
X258666214Y-70578000D02*
G75*
G03*
X258666214Y-70578000I-1414214J0D01*
G01*
X261252000Y-66578000D02*
X261252000Y-74578000D01*
X261252000Y-74578000D02*
X253252000Y-74578000D01*
X253252000Y-74578000D02*
X253252000Y-66578000D01*
X253252000Y-66578000D02*
X261252000Y-66578000D01*
%TO.C,SW8*%
X235760368Y-70578000D02*
G75*
G03*
X235760368Y-70578000I-3400368J0D01*
G01*
X233774214Y-70578000D02*
G75*
G03*
X233774214Y-70578000I-1414214J0D01*
G01*
X236360000Y-66578000D02*
X236360000Y-74578000D01*
X236360000Y-74578000D02*
X228360000Y-74578000D01*
X228360000Y-74578000D02*
X228360000Y-66578000D01*
X228360000Y-66578000D02*
X236360000Y-66578000D01*
%TO.C,SW7*%
X210876368Y-70634000D02*
G75*
G03*
X210876368Y-70634000I-3400368J0D01*
G01*
X208890214Y-70634000D02*
G75*
G03*
X208890214Y-70634000I-1414214J0D01*
G01*
X211476000Y-66634000D02*
X211476000Y-74634000D01*
X211476000Y-74634000D02*
X203476000Y-74634000D01*
X203476000Y-74634000D02*
X203476000Y-66634000D01*
X203476000Y-66634000D02*
X211476000Y-66634000D01*
%TO.C,SW6*%
X185730368Y-70634000D02*
G75*
G03*
X185730368Y-70634000I-3400368J0D01*
G01*
X183744214Y-70634000D02*
G75*
G03*
X183744214Y-70634000I-1414214J0D01*
G01*
X186330000Y-66634000D02*
X186330000Y-74634000D01*
X186330000Y-74634000D02*
X178330000Y-74634000D01*
X178330000Y-74634000D02*
X178330000Y-66634000D01*
X178330000Y-66634000D02*
X186330000Y-66634000D01*
%TO.C,SW5*%
X260660368Y-61998000D02*
G75*
G03*
X260660368Y-61998000I-3400368J0D01*
G01*
X258674214Y-61998000D02*
G75*
G03*
X258674214Y-61998000I-1414214J0D01*
G01*
X261260000Y-57998000D02*
X261260000Y-65998000D01*
X261260000Y-65998000D02*
X253260000Y-65998000D01*
X253260000Y-65998000D02*
X253260000Y-57998000D01*
X253260000Y-57998000D02*
X261260000Y-57998000D01*
%TO.C,SW4*%
X235760368Y-61942000D02*
G75*
G03*
X235760368Y-61942000I-3400368J0D01*
G01*
X233774214Y-61942000D02*
G75*
G03*
X233774214Y-61942000I-1414214J0D01*
G01*
X236360000Y-57942000D02*
X236360000Y-65942000D01*
X236360000Y-65942000D02*
X228360000Y-65942000D01*
X228360000Y-65942000D02*
X228360000Y-57942000D01*
X228360000Y-57942000D02*
X236360000Y-57942000D01*
%TO.C,SW3*%
X210876368Y-61998000D02*
G75*
G03*
X210876368Y-61998000I-3400368J0D01*
G01*
X208890214Y-61998000D02*
G75*
G03*
X208890214Y-61998000I-1414214J0D01*
G01*
X211476000Y-57998000D02*
X211476000Y-65998000D01*
X211476000Y-65998000D02*
X203476000Y-65998000D01*
X203476000Y-65998000D02*
X203476000Y-57998000D01*
X203476000Y-57998000D02*
X211476000Y-57998000D01*
%TO.C,SW2*%
X185722368Y-61942000D02*
G75*
G03*
X185722368Y-61942000I-3400368J0D01*
G01*
X183736214Y-61942000D02*
G75*
G03*
X183736214Y-61942000I-1414214J0D01*
G01*
X186322000Y-57942000D02*
X186322000Y-65942000D01*
X186322000Y-65942000D02*
X178322000Y-65942000D01*
X178322000Y-65942000D02*
X178322000Y-57942000D01*
X178322000Y-57942000D02*
X186322000Y-57942000D01*
%TO.C,C2*%
X170587252Y-66918000D02*
X169164748Y-66918000D01*
X170587252Y-68738000D02*
X169164748Y-68738000D01*
%TO.C,C1*%
X111858000Y-64983252D02*
X111858000Y-63560748D01*
X110038000Y-64983252D02*
X110038000Y-63560748D01*
%TO.C,J4*%
X174724000Y-55698000D02*
X166044000Y-55698000D01*
X165344000Y-61918000D02*
X166624000Y-61918000D01*
X165344000Y-63518000D02*
X165344000Y-61918000D01*
X164324000Y-63518000D02*
X165344000Y-63518000D01*
X164324000Y-59268000D02*
X164324000Y-63518000D01*
X174144000Y-61918000D02*
X174144000Y-64808000D01*
X175424000Y-61918000D02*
X174144000Y-61918000D01*
X175424000Y-63518000D02*
X175424000Y-61918000D01*
X176444000Y-63518000D02*
X175424000Y-63518000D01*
X176444000Y-59268000D02*
X176444000Y-63518000D01*
%TO.C,J8*%
X118374000Y-56338000D02*
X118374000Y-57668000D01*
X117044000Y-56338000D02*
X118374000Y-56338000D01*
X115774000Y-56338000D02*
X115774000Y-58998000D01*
X115774000Y-58998000D02*
X108094000Y-58998000D01*
X115774000Y-56338000D02*
X108094000Y-56338000D01*
X108094000Y-56338000D02*
X108094000Y-58998000D01*
%TO.C,U10*%
X121624000Y-58336000D02*
X121624000Y-68336000D01*
X131624000Y-58336000D02*
X121624000Y-58336000D01*
X131624000Y-68336000D02*
X131624000Y-58336000D01*
X121624000Y-68336000D02*
X131624000Y-68336000D01*
%TO.C,R12*%
X133572936Y-60210000D02*
X135027064Y-60210000D01*
X133572936Y-58390000D02*
X135027064Y-58390000D01*
%TO.C,R11*%
X135027064Y-60890000D02*
X133572936Y-60890000D01*
X135027064Y-62710000D02*
X133572936Y-62710000D01*
%TO.C,R10*%
X135027064Y-63390000D02*
X133572936Y-63390000D01*
X135027064Y-65210000D02*
X133572936Y-65210000D01*
%TO.C,R9*%
X135027064Y-65890000D02*
X133572936Y-65890000D01*
X135027064Y-67710000D02*
X133572936Y-67710000D01*
%TO.C,R8*%
X135027064Y-68390000D02*
X133572936Y-68390000D01*
X135027064Y-70210000D02*
X133572936Y-70210000D01*
%TO.C,SW1*%
X99312000Y-56168000D02*
X105312000Y-56168000D01*
X103262000Y-55468000D02*
X103262000Y-56118000D01*
X101362000Y-55468000D02*
X103262000Y-55468000D01*
X101362000Y-56118000D02*
X101362000Y-55468000D01*
%TO.C,J7*%
X161008000Y-55698000D02*
X152328000Y-55698000D01*
X151628000Y-61918000D02*
X152908000Y-61918000D01*
X151628000Y-63518000D02*
X151628000Y-61918000D01*
X150608000Y-63518000D02*
X151628000Y-63518000D01*
X150608000Y-59268000D02*
X150608000Y-63518000D01*
X160428000Y-61918000D02*
X160428000Y-64808000D01*
X161708000Y-61918000D02*
X160428000Y-61918000D01*
X161708000Y-63518000D02*
X161708000Y-61918000D01*
X162728000Y-63518000D02*
X161708000Y-63518000D01*
X162728000Y-59268000D02*
X162728000Y-63518000D01*
%TO.C,J3*%
X90424000Y-59380000D02*
X90424000Y-61360000D01*
X90424000Y-61360000D02*
X90844000Y-61360000D01*
X90424000Y-57410000D02*
X90424000Y-57010000D01*
X97944000Y-57010000D02*
X97944000Y-57410000D01*
X97944000Y-59380000D02*
X97944000Y-61360000D01*
X97944000Y-61360000D02*
X97524000Y-61360000D01*
X95494000Y-62040000D02*
X95944000Y-62040000D01*
X95944000Y-61590000D02*
X95944000Y-62040000D01*
%TO.C,R6*%
X146281064Y-63362000D02*
X144826936Y-63362000D01*
X146281064Y-65182000D02*
X144826936Y-65182000D01*
%TO.C,R5*%
X146219064Y-60822000D02*
X144764936Y-60822000D01*
X146219064Y-62642000D02*
X144764936Y-62642000D01*
%TO.C,U3*%
X123502000Y-85572000D02*
X123502000Y-91582000D01*
X116682000Y-87822000D02*
X116682000Y-91582000D01*
X123502000Y-91582000D02*
X122242000Y-91582000D01*
X116682000Y-91582000D02*
X117942000Y-91582000D01*
%TO.C,U2*%
X74860000Y-70350000D02*
X74860000Y-57650000D01*
X112960000Y-70350000D02*
X74860000Y-70350000D01*
X112960000Y-57650000D02*
X112960000Y-70350000D01*
X74860000Y-57650000D02*
X112960000Y-57650000D01*
X74860000Y-70350000D02*
X74860000Y-57650000D01*
X112960000Y-70350000D02*
X74860000Y-70350000D01*
X112960000Y-57650000D02*
X112960000Y-70350000D01*
X74860000Y-57650000D02*
X112960000Y-57650000D01*
%TO.C,C23*%
X261590000Y-77088748D02*
X261590000Y-78511252D01*
X263410000Y-77088748D02*
X263410000Y-78511252D01*
%TO.C,C22*%
X226290000Y-77088748D02*
X226290000Y-78511252D01*
X228110000Y-77088748D02*
X228110000Y-78511252D01*
%TO.C,C21*%
X211490000Y-77088748D02*
X211490000Y-78511252D01*
X213310000Y-77088748D02*
X213310000Y-78511252D01*
%TO.C,C20*%
X176090000Y-76988748D02*
X176090000Y-78411252D01*
X177910000Y-76988748D02*
X177910000Y-78411252D01*
%TO.C,C19*%
X151790000Y-77088748D02*
X151790000Y-78511252D01*
X153610000Y-77088748D02*
X153610000Y-78511252D01*
%TO.C,C18*%
X126390000Y-77088748D02*
X126390000Y-78511252D01*
X128210000Y-77088748D02*
X128210000Y-78511252D01*
%TO.C,C17*%
X101490000Y-77088748D02*
X101490000Y-78511252D01*
X103310000Y-77088748D02*
X103310000Y-78511252D01*
%TO.C,C16*%
X76390000Y-77013748D02*
X76390000Y-78436252D01*
X78210000Y-77013748D02*
X78210000Y-78436252D01*
%TO.C,C15*%
X255524748Y-96678000D02*
X256947252Y-96678000D01*
X255524748Y-94858000D02*
X256947252Y-94858000D01*
%TO.C,C14*%
X230688748Y-96710000D02*
X232111252Y-96710000D01*
X230688748Y-94890000D02*
X232111252Y-94890000D01*
%TO.C,C13*%
X205688748Y-96710000D02*
X207111252Y-96710000D01*
X205688748Y-94890000D02*
X207111252Y-94890000D01*
%TO.C,C12*%
X180488748Y-96710000D02*
X181911252Y-96710000D01*
X180488748Y-94890000D02*
X181911252Y-94890000D01*
%TO.C,C11*%
X155488748Y-96610000D02*
X156911252Y-96610000D01*
X155488748Y-94790000D02*
X156911252Y-94790000D01*
%TO.C,C10*%
X130688748Y-96710000D02*
X132111252Y-96710000D01*
X130688748Y-94890000D02*
X132111252Y-94890000D01*
%TO.C,C9*%
X105788748Y-96710000D02*
X107211252Y-96710000D01*
X105788748Y-94890000D02*
X107211252Y-94890000D01*
%TO.C,C8*%
X80772748Y-96910000D02*
X82195252Y-96910000D01*
X80772748Y-95090000D02*
X82195252Y-95090000D01*
%TO.C,C7*%
X164491252Y-94858000D02*
X163068748Y-94858000D01*
X164491252Y-96678000D02*
X163068748Y-96678000D01*
%TO.C,U7*%
X169876000Y-82072000D02*
X166376000Y-82072000D01*
X169876000Y-82072000D02*
X171826000Y-82072000D01*
X169876000Y-92192000D02*
X167926000Y-92192000D01*
X169876000Y-92192000D02*
X171826000Y-92192000D01*
%TO.C,D11*%
X253602000Y-74857000D02*
X253602000Y-76007000D01*
X260902000Y-74857000D02*
X253602000Y-74857000D01*
X260902000Y-80357000D02*
X253602000Y-80357000D01*
%TO.C,D10*%
X228650000Y-74857000D02*
X228650000Y-76007000D01*
X235950000Y-74857000D02*
X228650000Y-74857000D01*
X235950000Y-80357000D02*
X228650000Y-80357000D01*
%TO.C,D9*%
X203650000Y-74857000D02*
X203650000Y-76007000D01*
X210950000Y-74857000D02*
X203650000Y-74857000D01*
X210950000Y-80357000D02*
X203650000Y-80357000D01*
%TO.C,D8*%
X178650000Y-74857000D02*
X178650000Y-76007000D01*
X185950000Y-74857000D02*
X178650000Y-74857000D01*
X185950000Y-80357000D02*
X178650000Y-80357000D01*
%TO.C,D7*%
X153650000Y-74857000D02*
X153650000Y-76007000D01*
X160950000Y-74857000D02*
X153650000Y-74857000D01*
X160950000Y-80357000D02*
X153650000Y-80357000D01*
%TO.C,D6*%
X128634000Y-74857000D02*
X128634000Y-76007000D01*
X135934000Y-74857000D02*
X128634000Y-74857000D01*
X135934000Y-80357000D02*
X128634000Y-80357000D01*
%TO.C,D5*%
X103640400Y-74882400D02*
X103640400Y-76032400D01*
X110940400Y-74882400D02*
X103640400Y-74882400D01*
X110940400Y-80382400D02*
X103640400Y-80382400D01*
%TO.C,D4*%
X78646800Y-74984000D02*
X78646800Y-76134000D01*
X85946800Y-74984000D02*
X78646800Y-74984000D01*
X85946800Y-80484000D02*
X78646800Y-80484000D01*
D12*
%TO.C,U5*%
X91292000Y-77041000D02*
X91292000Y-78466000D01*
X91067000Y-69791000D02*
X91067000Y-70116000D01*
X98317000Y-69791000D02*
X98317000Y-70116000D01*
X98317000Y-77041000D02*
X98317000Y-76716000D01*
X91067000Y-77041000D02*
X91067000Y-76716000D01*
X98317000Y-77041000D02*
X97992000Y-77041000D01*
X98317000Y-69791000D02*
X97992000Y-69791000D01*
X91067000Y-69791000D02*
X91392000Y-69791000D01*
X91067000Y-77041000D02*
X91292000Y-77041000D01*
D11*
%TO.C,F1*%
X97834064Y-62854000D02*
X96629936Y-62854000D01*
X97834064Y-64674000D02*
X96629936Y-64674000D01*
%TO.C,D3*%
X114294000Y-67668000D02*
X115444000Y-67668000D01*
X114294000Y-60368000D02*
X114294000Y-67668000D01*
X119794000Y-60368000D02*
X119794000Y-67668000D01*
%TO.C,C6*%
X125828000Y-90891252D02*
X125828000Y-89468748D01*
X124008000Y-90891252D02*
X124008000Y-89468748D01*
%TO.C,C5*%
X114254400Y-89468748D02*
X114254400Y-90891252D01*
X116074400Y-89468748D02*
X116074400Y-90891252D01*
%TO.C,C3*%
X85751252Y-71998000D02*
X84328748Y-71998000D01*
X85751252Y-73818000D02*
X84328748Y-73818000D01*
%TO.C,R4*%
D12*
X163613333Y-66460380D02*
X163280000Y-65984190D01*
X163041904Y-66460380D02*
X163041904Y-65460380D01*
X163422857Y-65460380D01*
X163518095Y-65508000D01*
X163565714Y-65555619D01*
X163613333Y-65650857D01*
X163613333Y-65793714D01*
X163565714Y-65888952D01*
X163518095Y-65936571D01*
X163422857Y-65984190D01*
X163041904Y-65984190D01*
X164470476Y-65793714D02*
X164470476Y-66460380D01*
X164232380Y-65412761D02*
X163994285Y-66127047D01*
X164613333Y-66127047D01*
%TO.C,SW9*%
X257656761Y-72661333D02*
X257704380Y-72518476D01*
X257704380Y-72280380D01*
X257656761Y-72185142D01*
X257609142Y-72137523D01*
X257513904Y-72089904D01*
X257418666Y-72089904D01*
X257323428Y-72137523D01*
X257275809Y-72185142D01*
X257228190Y-72280380D01*
X257180571Y-72470857D01*
X257132952Y-72566095D01*
X257085333Y-72613714D01*
X256990095Y-72661333D01*
X256894857Y-72661333D01*
X256799619Y-72613714D01*
X256752000Y-72566095D01*
X256704380Y-72470857D01*
X256704380Y-72232761D01*
X256752000Y-72089904D01*
X256704380Y-71756571D02*
X257704380Y-71518476D01*
X256990095Y-71328000D01*
X257704380Y-71137523D01*
X256704380Y-70899428D01*
X257704380Y-70470857D02*
X257704380Y-70280380D01*
X257656761Y-70185142D01*
X257609142Y-70137523D01*
X257466285Y-70042285D01*
X257275809Y-69994666D01*
X256894857Y-69994666D01*
X256799619Y-70042285D01*
X256752000Y-70089904D01*
X256704380Y-70185142D01*
X256704380Y-70375619D01*
X256752000Y-70470857D01*
X256799619Y-70518476D01*
X256894857Y-70566095D01*
X257132952Y-70566095D01*
X257228190Y-70518476D01*
X257275809Y-70470857D01*
X257323428Y-70375619D01*
X257323428Y-70185142D01*
X257275809Y-70089904D01*
X257228190Y-70042285D01*
X257132952Y-69994666D01*
%TO.C,SW8*%
X232764761Y-72661333D02*
X232812380Y-72518476D01*
X232812380Y-72280380D01*
X232764761Y-72185142D01*
X232717142Y-72137523D01*
X232621904Y-72089904D01*
X232526666Y-72089904D01*
X232431428Y-72137523D01*
X232383809Y-72185142D01*
X232336190Y-72280380D01*
X232288571Y-72470857D01*
X232240952Y-72566095D01*
X232193333Y-72613714D01*
X232098095Y-72661333D01*
X232002857Y-72661333D01*
X231907619Y-72613714D01*
X231860000Y-72566095D01*
X231812380Y-72470857D01*
X231812380Y-72232761D01*
X231860000Y-72089904D01*
X231812380Y-71756571D02*
X232812380Y-71518476D01*
X232098095Y-71328000D01*
X232812380Y-71137523D01*
X231812380Y-70899428D01*
X232240952Y-70375619D02*
X232193333Y-70470857D01*
X232145714Y-70518476D01*
X232050476Y-70566095D01*
X232002857Y-70566095D01*
X231907619Y-70518476D01*
X231860000Y-70470857D01*
X231812380Y-70375619D01*
X231812380Y-70185142D01*
X231860000Y-70089904D01*
X231907619Y-70042285D01*
X232002857Y-69994666D01*
X232050476Y-69994666D01*
X232145714Y-70042285D01*
X232193333Y-70089904D01*
X232240952Y-70185142D01*
X232240952Y-70375619D01*
X232288571Y-70470857D01*
X232336190Y-70518476D01*
X232431428Y-70566095D01*
X232621904Y-70566095D01*
X232717142Y-70518476D01*
X232764761Y-70470857D01*
X232812380Y-70375619D01*
X232812380Y-70185142D01*
X232764761Y-70089904D01*
X232717142Y-70042285D01*
X232621904Y-69994666D01*
X232431428Y-69994666D01*
X232336190Y-70042285D01*
X232288571Y-70089904D01*
X232240952Y-70185142D01*
%TO.C,SW7*%
X207880761Y-72717333D02*
X207928380Y-72574476D01*
X207928380Y-72336380D01*
X207880761Y-72241142D01*
X207833142Y-72193523D01*
X207737904Y-72145904D01*
X207642666Y-72145904D01*
X207547428Y-72193523D01*
X207499809Y-72241142D01*
X207452190Y-72336380D01*
X207404571Y-72526857D01*
X207356952Y-72622095D01*
X207309333Y-72669714D01*
X207214095Y-72717333D01*
X207118857Y-72717333D01*
X207023619Y-72669714D01*
X206976000Y-72622095D01*
X206928380Y-72526857D01*
X206928380Y-72288761D01*
X206976000Y-72145904D01*
X206928380Y-71812571D02*
X207928380Y-71574476D01*
X207214095Y-71384000D01*
X207928380Y-71193523D01*
X206928380Y-70955428D01*
X206928380Y-70669714D02*
X206928380Y-70003047D01*
X207928380Y-70431619D01*
%TO.C,SW6*%
X182734761Y-72717333D02*
X182782380Y-72574476D01*
X182782380Y-72336380D01*
X182734761Y-72241142D01*
X182687142Y-72193523D01*
X182591904Y-72145904D01*
X182496666Y-72145904D01*
X182401428Y-72193523D01*
X182353809Y-72241142D01*
X182306190Y-72336380D01*
X182258571Y-72526857D01*
X182210952Y-72622095D01*
X182163333Y-72669714D01*
X182068095Y-72717333D01*
X181972857Y-72717333D01*
X181877619Y-72669714D01*
X181830000Y-72622095D01*
X181782380Y-72526857D01*
X181782380Y-72288761D01*
X181830000Y-72145904D01*
X181782380Y-71812571D02*
X182782380Y-71574476D01*
X182068095Y-71384000D01*
X182782380Y-71193523D01*
X181782380Y-70955428D01*
X181782380Y-70145904D02*
X181782380Y-70336380D01*
X181830000Y-70431619D01*
X181877619Y-70479238D01*
X182020476Y-70574476D01*
X182210952Y-70622095D01*
X182591904Y-70622095D01*
X182687142Y-70574476D01*
X182734761Y-70526857D01*
X182782380Y-70431619D01*
X182782380Y-70241142D01*
X182734761Y-70145904D01*
X182687142Y-70098285D01*
X182591904Y-70050666D01*
X182353809Y-70050666D01*
X182258571Y-70098285D01*
X182210952Y-70145904D01*
X182163333Y-70241142D01*
X182163333Y-70431619D01*
X182210952Y-70526857D01*
X182258571Y-70574476D01*
X182353809Y-70622095D01*
%TO.C,SW5*%
X257664761Y-64081333D02*
X257712380Y-63938476D01*
X257712380Y-63700380D01*
X257664761Y-63605142D01*
X257617142Y-63557523D01*
X257521904Y-63509904D01*
X257426666Y-63509904D01*
X257331428Y-63557523D01*
X257283809Y-63605142D01*
X257236190Y-63700380D01*
X257188571Y-63890857D01*
X257140952Y-63986095D01*
X257093333Y-64033714D01*
X256998095Y-64081333D01*
X256902857Y-64081333D01*
X256807619Y-64033714D01*
X256760000Y-63986095D01*
X256712380Y-63890857D01*
X256712380Y-63652761D01*
X256760000Y-63509904D01*
X256712380Y-63176571D02*
X257712380Y-62938476D01*
X256998095Y-62748000D01*
X257712380Y-62557523D01*
X256712380Y-62319428D01*
X256712380Y-61462285D02*
X256712380Y-61938476D01*
X257188571Y-61986095D01*
X257140952Y-61938476D01*
X257093333Y-61843238D01*
X257093333Y-61605142D01*
X257140952Y-61509904D01*
X257188571Y-61462285D01*
X257283809Y-61414666D01*
X257521904Y-61414666D01*
X257617142Y-61462285D01*
X257664761Y-61509904D01*
X257712380Y-61605142D01*
X257712380Y-61843238D01*
X257664761Y-61938476D01*
X257617142Y-61986095D01*
%TO.C,SW4*%
X232764761Y-64025333D02*
X232812380Y-63882476D01*
X232812380Y-63644380D01*
X232764761Y-63549142D01*
X232717142Y-63501523D01*
X232621904Y-63453904D01*
X232526666Y-63453904D01*
X232431428Y-63501523D01*
X232383809Y-63549142D01*
X232336190Y-63644380D01*
X232288571Y-63834857D01*
X232240952Y-63930095D01*
X232193333Y-63977714D01*
X232098095Y-64025333D01*
X232002857Y-64025333D01*
X231907619Y-63977714D01*
X231860000Y-63930095D01*
X231812380Y-63834857D01*
X231812380Y-63596761D01*
X231860000Y-63453904D01*
X231812380Y-63120571D02*
X232812380Y-62882476D01*
X232098095Y-62692000D01*
X232812380Y-62501523D01*
X231812380Y-62263428D01*
X232145714Y-61453904D02*
X232812380Y-61453904D01*
X231764761Y-61692000D02*
X232479047Y-61930095D01*
X232479047Y-61311047D01*
%TO.C,SW3*%
X207880761Y-64081333D02*
X207928380Y-63938476D01*
X207928380Y-63700380D01*
X207880761Y-63605142D01*
X207833142Y-63557523D01*
X207737904Y-63509904D01*
X207642666Y-63509904D01*
X207547428Y-63557523D01*
X207499809Y-63605142D01*
X207452190Y-63700380D01*
X207404571Y-63890857D01*
X207356952Y-63986095D01*
X207309333Y-64033714D01*
X207214095Y-64081333D01*
X207118857Y-64081333D01*
X207023619Y-64033714D01*
X206976000Y-63986095D01*
X206928380Y-63890857D01*
X206928380Y-63652761D01*
X206976000Y-63509904D01*
X206928380Y-63176571D02*
X207928380Y-62938476D01*
X207214095Y-62748000D01*
X207928380Y-62557523D01*
X206928380Y-62319428D01*
X206928380Y-62033714D02*
X206928380Y-61414666D01*
X207309333Y-61748000D01*
X207309333Y-61605142D01*
X207356952Y-61509904D01*
X207404571Y-61462285D01*
X207499809Y-61414666D01*
X207737904Y-61414666D01*
X207833142Y-61462285D01*
X207880761Y-61509904D01*
X207928380Y-61605142D01*
X207928380Y-61890857D01*
X207880761Y-61986095D01*
X207833142Y-62033714D01*
%TO.C,SW2*%
X182726761Y-64025333D02*
X182774380Y-63882476D01*
X182774380Y-63644380D01*
X182726761Y-63549142D01*
X182679142Y-63501523D01*
X182583904Y-63453904D01*
X182488666Y-63453904D01*
X182393428Y-63501523D01*
X182345809Y-63549142D01*
X182298190Y-63644380D01*
X182250571Y-63834857D01*
X182202952Y-63930095D01*
X182155333Y-63977714D01*
X182060095Y-64025333D01*
X181964857Y-64025333D01*
X181869619Y-63977714D01*
X181822000Y-63930095D01*
X181774380Y-63834857D01*
X181774380Y-63596761D01*
X181822000Y-63453904D01*
X181774380Y-63120571D02*
X182774380Y-62882476D01*
X182060095Y-62692000D01*
X182774380Y-62501523D01*
X181774380Y-62263428D01*
X181869619Y-61930095D02*
X181822000Y-61882476D01*
X181774380Y-61787238D01*
X181774380Y-61549142D01*
X181822000Y-61453904D01*
X181869619Y-61406285D01*
X181964857Y-61358666D01*
X182060095Y-61358666D01*
X182202952Y-61406285D01*
X182774380Y-61977714D01*
X182774380Y-61358666D01*
%TO.C,C2*%
X169709333Y-70035142D02*
X169661714Y-70082761D01*
X169518857Y-70130380D01*
X169423619Y-70130380D01*
X169280761Y-70082761D01*
X169185523Y-69987523D01*
X169137904Y-69892285D01*
X169090285Y-69701809D01*
X169090285Y-69558952D01*
X169137904Y-69368476D01*
X169185523Y-69273238D01*
X169280761Y-69178000D01*
X169423619Y-69130380D01*
X169518857Y-69130380D01*
X169661714Y-69178000D01*
X169709333Y-69225619D01*
X170090285Y-69225619D02*
X170137904Y-69178000D01*
X170233142Y-69130380D01*
X170471238Y-69130380D01*
X170566476Y-69178000D01*
X170614095Y-69225619D01*
X170661714Y-69320857D01*
X170661714Y-69416095D01*
X170614095Y-69558952D01*
X170042666Y-70130380D01*
X170661714Y-70130380D01*
%TO.C,C1*%
X109455142Y-64438666D02*
X109502761Y-64486285D01*
X109550380Y-64629142D01*
X109550380Y-64724380D01*
X109502761Y-64867238D01*
X109407523Y-64962476D01*
X109312285Y-65010095D01*
X109121809Y-65057714D01*
X108978952Y-65057714D01*
X108788476Y-65010095D01*
X108693238Y-64962476D01*
X108598000Y-64867238D01*
X108550380Y-64724380D01*
X108550380Y-64629142D01*
X108598000Y-64486285D01*
X108645619Y-64438666D01*
X109550380Y-63486285D02*
X109550380Y-64057714D01*
X109550380Y-63772000D02*
X108550380Y-63772000D01*
X108693238Y-63867238D01*
X108788476Y-63962476D01*
X108836095Y-64057714D01*
%TO.C,J4*%
X170050666Y-65460380D02*
X170050666Y-66174666D01*
X170003047Y-66317523D01*
X169907809Y-66412761D01*
X169764952Y-66460380D01*
X169669714Y-66460380D01*
X170955428Y-65793714D02*
X170955428Y-66460380D01*
X170717333Y-65412761D02*
X170479238Y-66127047D01*
X171098285Y-66127047D01*
%TO.C,J8*%
X118826380Y-58001333D02*
X119540666Y-58001333D01*
X119683523Y-58048952D01*
X119778761Y-58144190D01*
X119826380Y-58287047D01*
X119826380Y-58382285D01*
X119254952Y-57382285D02*
X119207333Y-57477523D01*
X119159714Y-57525142D01*
X119064476Y-57572761D01*
X119016857Y-57572761D01*
X118921619Y-57525142D01*
X118874000Y-57477523D01*
X118826380Y-57382285D01*
X118826380Y-57191809D01*
X118874000Y-57096571D01*
X118921619Y-57048952D01*
X119016857Y-57001333D01*
X119064476Y-57001333D01*
X119159714Y-57048952D01*
X119207333Y-57096571D01*
X119254952Y-57191809D01*
X119254952Y-57382285D01*
X119302571Y-57477523D01*
X119350190Y-57525142D01*
X119445428Y-57572761D01*
X119635904Y-57572761D01*
X119731142Y-57525142D01*
X119778761Y-57477523D01*
X119826380Y-57382285D01*
X119826380Y-57191809D01*
X119778761Y-57096571D01*
X119731142Y-57048952D01*
X119635904Y-57001333D01*
X119445428Y-57001333D01*
X119350190Y-57048952D01*
X119302571Y-57096571D01*
X119254952Y-57191809D01*
%TO.C,R12*%
X137407142Y-59752380D02*
X137073809Y-59276190D01*
X136835714Y-59752380D02*
X136835714Y-58752380D01*
X137216666Y-58752380D01*
X137311904Y-58800000D01*
X137359523Y-58847619D01*
X137407142Y-58942857D01*
X137407142Y-59085714D01*
X137359523Y-59180952D01*
X137311904Y-59228571D01*
X137216666Y-59276190D01*
X136835714Y-59276190D01*
X138359523Y-59752380D02*
X137788095Y-59752380D01*
X138073809Y-59752380D02*
X138073809Y-58752380D01*
X137978571Y-58895238D01*
X137883333Y-58990476D01*
X137788095Y-59038095D01*
X138740476Y-58847619D02*
X138788095Y-58800000D01*
X138883333Y-58752380D01*
X139121428Y-58752380D01*
X139216666Y-58800000D01*
X139264285Y-58847619D01*
X139311904Y-58942857D01*
X139311904Y-59038095D01*
X139264285Y-59180952D01*
X138692857Y-59752380D01*
X139311904Y-59752380D01*
%TO.C,R11*%
X137213142Y-62252380D02*
X136879809Y-61776190D01*
X136641714Y-62252380D02*
X136641714Y-61252380D01*
X137022666Y-61252380D01*
X137117904Y-61300000D01*
X137165523Y-61347619D01*
X137213142Y-61442857D01*
X137213142Y-61585714D01*
X137165523Y-61680952D01*
X137117904Y-61728571D01*
X137022666Y-61776190D01*
X136641714Y-61776190D01*
X138165523Y-62252380D02*
X137594095Y-62252380D01*
X137879809Y-62252380D02*
X137879809Y-61252380D01*
X137784571Y-61395238D01*
X137689333Y-61490476D01*
X137594095Y-61538095D01*
X139117904Y-62252380D02*
X138546476Y-62252380D01*
X138832190Y-62252380D02*
X138832190Y-61252380D01*
X138736952Y-61395238D01*
X138641714Y-61490476D01*
X138546476Y-61538095D01*
%TO.C,R10*%
X137213142Y-64752380D02*
X136879809Y-64276190D01*
X136641714Y-64752380D02*
X136641714Y-63752380D01*
X137022666Y-63752380D01*
X137117904Y-63800000D01*
X137165523Y-63847619D01*
X137213142Y-63942857D01*
X137213142Y-64085714D01*
X137165523Y-64180952D01*
X137117904Y-64228571D01*
X137022666Y-64276190D01*
X136641714Y-64276190D01*
X138165523Y-64752380D02*
X137594095Y-64752380D01*
X137879809Y-64752380D02*
X137879809Y-63752380D01*
X137784571Y-63895238D01*
X137689333Y-63990476D01*
X137594095Y-64038095D01*
X138784571Y-63752380D02*
X138879809Y-63752380D01*
X138975047Y-63800000D01*
X139022666Y-63847619D01*
X139070285Y-63942857D01*
X139117904Y-64133333D01*
X139117904Y-64371428D01*
X139070285Y-64561904D01*
X139022666Y-64657142D01*
X138975047Y-64704761D01*
X138879809Y-64752380D01*
X138784571Y-64752380D01*
X138689333Y-64704761D01*
X138641714Y-64657142D01*
X138594095Y-64561904D01*
X138546476Y-64371428D01*
X138546476Y-64133333D01*
X138594095Y-63942857D01*
X138641714Y-63847619D01*
X138689333Y-63800000D01*
X138784571Y-63752380D01*
%TO.C,R9*%
X137181333Y-67252380D02*
X136848000Y-66776190D01*
X136609904Y-67252380D02*
X136609904Y-66252380D01*
X136990857Y-66252380D01*
X137086095Y-66300000D01*
X137133714Y-66347619D01*
X137181333Y-66442857D01*
X137181333Y-66585714D01*
X137133714Y-66680952D01*
X137086095Y-66728571D01*
X136990857Y-66776190D01*
X136609904Y-66776190D01*
X137657523Y-67252380D02*
X137848000Y-67252380D01*
X137943238Y-67204761D01*
X137990857Y-67157142D01*
X138086095Y-67014285D01*
X138133714Y-66823809D01*
X138133714Y-66442857D01*
X138086095Y-66347619D01*
X138038476Y-66300000D01*
X137943238Y-66252380D01*
X137752761Y-66252380D01*
X137657523Y-66300000D01*
X137609904Y-66347619D01*
X137562285Y-66442857D01*
X137562285Y-66680952D01*
X137609904Y-66776190D01*
X137657523Y-66823809D01*
X137752761Y-66871428D01*
X137943238Y-66871428D01*
X138038476Y-66823809D01*
X138086095Y-66776190D01*
X138133714Y-66680952D01*
%TO.C,R8*%
X137181333Y-69752380D02*
X136848000Y-69276190D01*
X136609904Y-69752380D02*
X136609904Y-68752380D01*
X136990857Y-68752380D01*
X137086095Y-68800000D01*
X137133714Y-68847619D01*
X137181333Y-68942857D01*
X137181333Y-69085714D01*
X137133714Y-69180952D01*
X137086095Y-69228571D01*
X136990857Y-69276190D01*
X136609904Y-69276190D01*
X137752761Y-69180952D02*
X137657523Y-69133333D01*
X137609904Y-69085714D01*
X137562285Y-68990476D01*
X137562285Y-68942857D01*
X137609904Y-68847619D01*
X137657523Y-68800000D01*
X137752761Y-68752380D01*
X137943238Y-68752380D01*
X138038476Y-68800000D01*
X138086095Y-68847619D01*
X138133714Y-68942857D01*
X138133714Y-68990476D01*
X138086095Y-69085714D01*
X138038476Y-69133333D01*
X137943238Y-69180952D01*
X137752761Y-69180952D01*
X137657523Y-69228571D01*
X137609904Y-69276190D01*
X137562285Y-69371428D01*
X137562285Y-69561904D01*
X137609904Y-69657142D01*
X137657523Y-69704761D01*
X137752761Y-69752380D01*
X137943238Y-69752380D01*
X138038476Y-69704761D01*
X138086095Y-69657142D01*
X138133714Y-69561904D01*
X138133714Y-69371428D01*
X138086095Y-69276190D01*
X138038476Y-69228571D01*
X137943238Y-69180952D01*
%TO.C,J7*%
X156334666Y-65460380D02*
X156334666Y-66174666D01*
X156287047Y-66317523D01*
X156191809Y-66412761D01*
X156048952Y-66460380D01*
X155953714Y-66460380D01*
X156715619Y-65460380D02*
X157382285Y-65460380D01*
X156953714Y-66460380D01*
%TO.C,RV4*%
X155752380Y-86095238D02*
X155276190Y-86428571D01*
X155752380Y-86666666D02*
X154752380Y-86666666D01*
X154752380Y-86285714D01*
X154800000Y-86190476D01*
X154847619Y-86142857D01*
X154942857Y-86095238D01*
X155085714Y-86095238D01*
X155180952Y-86142857D01*
X155228571Y-86190476D01*
X155276190Y-86285714D01*
X155276190Y-86666666D01*
X154752380Y-85809523D02*
X155752380Y-85476190D01*
X154752380Y-85142857D01*
X155085714Y-84380952D02*
X155752380Y-84380952D01*
X154704761Y-84619047D02*
X155419047Y-84857142D01*
X155419047Y-84238095D01*
%TO.C,R6*%
X148943333Y-64724380D02*
X148610000Y-64248190D01*
X148371904Y-64724380D02*
X148371904Y-63724380D01*
X148752857Y-63724380D01*
X148848095Y-63772000D01*
X148895714Y-63819619D01*
X148943333Y-63914857D01*
X148943333Y-64057714D01*
X148895714Y-64152952D01*
X148848095Y-64200571D01*
X148752857Y-64248190D01*
X148371904Y-64248190D01*
X149800476Y-63724380D02*
X149610000Y-63724380D01*
X149514761Y-63772000D01*
X149467142Y-63819619D01*
X149371904Y-63962476D01*
X149324285Y-64152952D01*
X149324285Y-64533904D01*
X149371904Y-64629142D01*
X149419523Y-64676761D01*
X149514761Y-64724380D01*
X149705238Y-64724380D01*
X149800476Y-64676761D01*
X149848095Y-64629142D01*
X149895714Y-64533904D01*
X149895714Y-64295809D01*
X149848095Y-64200571D01*
X149800476Y-64152952D01*
X149705238Y-64105333D01*
X149514761Y-64105333D01*
X149419523Y-64152952D01*
X149371904Y-64200571D01*
X149324285Y-64295809D01*
%TO.C,R5*%
X141769333Y-62184380D02*
X141436000Y-61708190D01*
X141197904Y-62184380D02*
X141197904Y-61184380D01*
X141578857Y-61184380D01*
X141674095Y-61232000D01*
X141721714Y-61279619D01*
X141769333Y-61374857D01*
X141769333Y-61517714D01*
X141721714Y-61612952D01*
X141674095Y-61660571D01*
X141578857Y-61708190D01*
X141197904Y-61708190D01*
X142674095Y-61184380D02*
X142197904Y-61184380D01*
X142150285Y-61660571D01*
X142197904Y-61612952D01*
X142293142Y-61565333D01*
X142531238Y-61565333D01*
X142626476Y-61612952D01*
X142674095Y-61660571D01*
X142721714Y-61755809D01*
X142721714Y-61993904D01*
X142674095Y-62089142D01*
X142626476Y-62136761D01*
X142531238Y-62184380D01*
X142293142Y-62184380D01*
X142197904Y-62136761D01*
X142150285Y-62089142D01*
%TO.C,U3*%
X121330095Y-90124380D02*
X121330095Y-90933904D01*
X121377714Y-91029142D01*
X121425333Y-91076761D01*
X121520571Y-91124380D01*
X121711047Y-91124380D01*
X121806285Y-91076761D01*
X121853904Y-91029142D01*
X121901523Y-90933904D01*
X121901523Y-90124380D01*
X122282476Y-90124380D02*
X122901523Y-90124380D01*
X122568190Y-90505333D01*
X122711047Y-90505333D01*
X122806285Y-90552952D01*
X122853904Y-90600571D01*
X122901523Y-90695809D01*
X122901523Y-90933904D01*
X122853904Y-91029142D01*
X122806285Y-91076761D01*
X122711047Y-91124380D01*
X122425333Y-91124380D01*
X122330095Y-91076761D01*
X122282476Y-91029142D01*
X115092000Y-95088666D02*
X115568190Y-95088666D01*
X114996761Y-95374380D02*
X115330095Y-94374380D01*
X115663428Y-95374380D01*
X115996761Y-95374380D02*
X115996761Y-94374380D01*
X116330095Y-95088666D01*
X116663428Y-94374380D01*
X116663428Y-95374380D01*
X117092000Y-95326761D02*
X117234857Y-95374380D01*
X117472952Y-95374380D01*
X117568190Y-95326761D01*
X117615809Y-95279142D01*
X117663428Y-95183904D01*
X117663428Y-95088666D01*
X117615809Y-94993428D01*
X117568190Y-94945809D01*
X117472952Y-94898190D01*
X117282476Y-94850571D01*
X117187238Y-94802952D01*
X117139619Y-94755333D01*
X117092000Y-94660095D01*
X117092000Y-94564857D01*
X117139619Y-94469619D01*
X117187238Y-94422000D01*
X117282476Y-94374380D01*
X117520571Y-94374380D01*
X117663428Y-94422000D01*
X118615809Y-95374380D02*
X118044380Y-95374380D01*
X118330095Y-95374380D02*
X118330095Y-94374380D01*
X118234857Y-94517238D01*
X118139619Y-94612476D01*
X118044380Y-94660095D01*
X119568190Y-95374380D02*
X118996761Y-95374380D01*
X119282476Y-95374380D02*
X119282476Y-94374380D01*
X119187238Y-94517238D01*
X119092000Y-94612476D01*
X118996761Y-94660095D01*
X120520571Y-95374380D02*
X119949142Y-95374380D01*
X120234857Y-95374380D02*
X120234857Y-94374380D01*
X120139619Y-94517238D01*
X120044380Y-94612476D01*
X119949142Y-94660095D01*
X120853904Y-94374380D02*
X121520571Y-94374380D01*
X121092000Y-95374380D01*
X121901523Y-94993428D02*
X122663428Y-94993428D01*
X123044380Y-94374380D02*
X123663428Y-94374380D01*
X123330095Y-94755333D01*
X123472952Y-94755333D01*
X123568190Y-94802952D01*
X123615809Y-94850571D01*
X123663428Y-94945809D01*
X123663428Y-95183904D01*
X123615809Y-95279142D01*
X123568190Y-95326761D01*
X123472952Y-95374380D01*
X123187238Y-95374380D01*
X123092000Y-95326761D01*
X123044380Y-95279142D01*
X124092000Y-95279142D02*
X124139619Y-95326761D01*
X124092000Y-95374380D01*
X124044380Y-95326761D01*
X124092000Y-95279142D01*
X124092000Y-95374380D01*
X124472952Y-94374380D02*
X125092000Y-94374380D01*
X124758666Y-94755333D01*
X124901523Y-94755333D01*
X124996761Y-94802952D01*
X125044380Y-94850571D01*
X125092000Y-94945809D01*
X125092000Y-95183904D01*
X125044380Y-95279142D01*
X124996761Y-95326761D01*
X124901523Y-95374380D01*
X124615809Y-95374380D01*
X124520571Y-95326761D01*
X124472952Y-95279142D01*
%TO.C,U2*%
X110738095Y-68452380D02*
X110738095Y-69261904D01*
X110785714Y-69357142D01*
X110833333Y-69404761D01*
X110928571Y-69452380D01*
X111119047Y-69452380D01*
X111214285Y-69404761D01*
X111261904Y-69357142D01*
X111309523Y-69261904D01*
X111309523Y-68452380D01*
X111738095Y-68547619D02*
X111785714Y-68500000D01*
X111880952Y-68452380D01*
X112119047Y-68452380D01*
X112214285Y-68500000D01*
X112261904Y-68547619D01*
X112309523Y-68642857D01*
X112309523Y-68738095D01*
X112261904Y-68880952D01*
X111690476Y-69452380D01*
X112309523Y-69452380D01*
%TO.C,C23*%
X262807142Y-82592857D02*
X262854761Y-82640476D01*
X262902380Y-82783333D01*
X262902380Y-82878571D01*
X262854761Y-83021428D01*
X262759523Y-83116666D01*
X262664285Y-83164285D01*
X262473809Y-83211904D01*
X262330952Y-83211904D01*
X262140476Y-83164285D01*
X262045238Y-83116666D01*
X261950000Y-83021428D01*
X261902380Y-82878571D01*
X261902380Y-82783333D01*
X261950000Y-82640476D01*
X261997619Y-82592857D01*
X261997619Y-82211904D02*
X261950000Y-82164285D01*
X261902380Y-82069047D01*
X261902380Y-81830952D01*
X261950000Y-81735714D01*
X261997619Y-81688095D01*
X262092857Y-81640476D01*
X262188095Y-81640476D01*
X262330952Y-81688095D01*
X262902380Y-82259523D01*
X262902380Y-81640476D01*
X261902380Y-81307142D02*
X261902380Y-80688095D01*
X262283333Y-81021428D01*
X262283333Y-80878571D01*
X262330952Y-80783333D01*
X262378571Y-80735714D01*
X262473809Y-80688095D01*
X262711904Y-80688095D01*
X262807142Y-80735714D01*
X262854761Y-80783333D01*
X262902380Y-80878571D01*
X262902380Y-81164285D01*
X262854761Y-81259523D01*
X262807142Y-81307142D01*
%TO.C,C22*%
X229407142Y-78442857D02*
X229454761Y-78490476D01*
X229502380Y-78633333D01*
X229502380Y-78728571D01*
X229454761Y-78871428D01*
X229359523Y-78966666D01*
X229264285Y-79014285D01*
X229073809Y-79061904D01*
X228930952Y-79061904D01*
X228740476Y-79014285D01*
X228645238Y-78966666D01*
X228550000Y-78871428D01*
X228502380Y-78728571D01*
X228502380Y-78633333D01*
X228550000Y-78490476D01*
X228597619Y-78442857D01*
X228597619Y-78061904D02*
X228550000Y-78014285D01*
X228502380Y-77919047D01*
X228502380Y-77680952D01*
X228550000Y-77585714D01*
X228597619Y-77538095D01*
X228692857Y-77490476D01*
X228788095Y-77490476D01*
X228930952Y-77538095D01*
X229502380Y-78109523D01*
X229502380Y-77490476D01*
X228597619Y-77109523D02*
X228550000Y-77061904D01*
X228502380Y-76966666D01*
X228502380Y-76728571D01*
X228550000Y-76633333D01*
X228597619Y-76585714D01*
X228692857Y-76538095D01*
X228788095Y-76538095D01*
X228930952Y-76585714D01*
X229502380Y-77157142D01*
X229502380Y-76538095D01*
%TO.C,C21*%
X214607142Y-78442857D02*
X214654761Y-78490476D01*
X214702380Y-78633333D01*
X214702380Y-78728571D01*
X214654761Y-78871428D01*
X214559523Y-78966666D01*
X214464285Y-79014285D01*
X214273809Y-79061904D01*
X214130952Y-79061904D01*
X213940476Y-79014285D01*
X213845238Y-78966666D01*
X213750000Y-78871428D01*
X213702380Y-78728571D01*
X213702380Y-78633333D01*
X213750000Y-78490476D01*
X213797619Y-78442857D01*
X213797619Y-78061904D02*
X213750000Y-78014285D01*
X213702380Y-77919047D01*
X213702380Y-77680952D01*
X213750000Y-77585714D01*
X213797619Y-77538095D01*
X213892857Y-77490476D01*
X213988095Y-77490476D01*
X214130952Y-77538095D01*
X214702380Y-78109523D01*
X214702380Y-77490476D01*
X214702380Y-76538095D02*
X214702380Y-77109523D01*
X214702380Y-76823809D02*
X213702380Y-76823809D01*
X213845238Y-76919047D01*
X213940476Y-77014285D01*
X213988095Y-77109523D01*
%TO.C,C20*%
X175821142Y-78342857D02*
X175868761Y-78390476D01*
X175916380Y-78533333D01*
X175916380Y-78628571D01*
X175868761Y-78771428D01*
X175773523Y-78866666D01*
X175678285Y-78914285D01*
X175487809Y-78961904D01*
X175344952Y-78961904D01*
X175154476Y-78914285D01*
X175059238Y-78866666D01*
X174964000Y-78771428D01*
X174916380Y-78628571D01*
X174916380Y-78533333D01*
X174964000Y-78390476D01*
X175011619Y-78342857D01*
X175011619Y-77961904D02*
X174964000Y-77914285D01*
X174916380Y-77819047D01*
X174916380Y-77580952D01*
X174964000Y-77485714D01*
X175011619Y-77438095D01*
X175106857Y-77390476D01*
X175202095Y-77390476D01*
X175344952Y-77438095D01*
X175916380Y-78009523D01*
X175916380Y-77390476D01*
X174916380Y-76771428D02*
X174916380Y-76676190D01*
X174964000Y-76580952D01*
X175011619Y-76533333D01*
X175106857Y-76485714D01*
X175297333Y-76438095D01*
X175535428Y-76438095D01*
X175725904Y-76485714D01*
X175821142Y-76533333D01*
X175868761Y-76580952D01*
X175916380Y-76676190D01*
X175916380Y-76771428D01*
X175868761Y-76866666D01*
X175821142Y-76914285D01*
X175725904Y-76961904D01*
X175535428Y-77009523D01*
X175297333Y-77009523D01*
X175106857Y-76961904D01*
X175011619Y-76914285D01*
X174964000Y-76866666D01*
X174916380Y-76771428D01*
%TO.C,C19*%
X154907142Y-78442857D02*
X154954761Y-78490476D01*
X155002380Y-78633333D01*
X155002380Y-78728571D01*
X154954761Y-78871428D01*
X154859523Y-78966666D01*
X154764285Y-79014285D01*
X154573809Y-79061904D01*
X154430952Y-79061904D01*
X154240476Y-79014285D01*
X154145238Y-78966666D01*
X154050000Y-78871428D01*
X154002380Y-78728571D01*
X154002380Y-78633333D01*
X154050000Y-78490476D01*
X154097619Y-78442857D01*
X155002380Y-77490476D02*
X155002380Y-78061904D01*
X155002380Y-77776190D02*
X154002380Y-77776190D01*
X154145238Y-77871428D01*
X154240476Y-77966666D01*
X154288095Y-78061904D01*
X155002380Y-77014285D02*
X155002380Y-76823809D01*
X154954761Y-76728571D01*
X154907142Y-76680952D01*
X154764285Y-76585714D01*
X154573809Y-76538095D01*
X154192857Y-76538095D01*
X154097619Y-76585714D01*
X154050000Y-76633333D01*
X154002380Y-76728571D01*
X154002380Y-76919047D01*
X154050000Y-77014285D01*
X154097619Y-77061904D01*
X154192857Y-77109523D01*
X154430952Y-77109523D01*
X154526190Y-77061904D01*
X154573809Y-77014285D01*
X154621428Y-76919047D01*
X154621428Y-76728571D01*
X154573809Y-76633333D01*
X154526190Y-76585714D01*
X154430952Y-76538095D01*
%TO.C,C18*%
X129507142Y-78442857D02*
X129554761Y-78490476D01*
X129602380Y-78633333D01*
X129602380Y-78728571D01*
X129554761Y-78871428D01*
X129459523Y-78966666D01*
X129364285Y-79014285D01*
X129173809Y-79061904D01*
X129030952Y-79061904D01*
X128840476Y-79014285D01*
X128745238Y-78966666D01*
X128650000Y-78871428D01*
X128602380Y-78728571D01*
X128602380Y-78633333D01*
X128650000Y-78490476D01*
X128697619Y-78442857D01*
X129602380Y-77490476D02*
X129602380Y-78061904D01*
X129602380Y-77776190D02*
X128602380Y-77776190D01*
X128745238Y-77871428D01*
X128840476Y-77966666D01*
X128888095Y-78061904D01*
X129030952Y-76919047D02*
X128983333Y-77014285D01*
X128935714Y-77061904D01*
X128840476Y-77109523D01*
X128792857Y-77109523D01*
X128697619Y-77061904D01*
X128650000Y-77014285D01*
X128602380Y-76919047D01*
X128602380Y-76728571D01*
X128650000Y-76633333D01*
X128697619Y-76585714D01*
X128792857Y-76538095D01*
X128840476Y-76538095D01*
X128935714Y-76585714D01*
X128983333Y-76633333D01*
X129030952Y-76728571D01*
X129030952Y-76919047D01*
X129078571Y-77014285D01*
X129126190Y-77061904D01*
X129221428Y-77109523D01*
X129411904Y-77109523D01*
X129507142Y-77061904D01*
X129554761Y-77014285D01*
X129602380Y-76919047D01*
X129602380Y-76728571D01*
X129554761Y-76633333D01*
X129507142Y-76585714D01*
X129411904Y-76538095D01*
X129221428Y-76538095D01*
X129126190Y-76585714D01*
X129078571Y-76633333D01*
X129030952Y-76728571D01*
%TO.C,C17*%
X104607142Y-78442857D02*
X104654761Y-78490476D01*
X104702380Y-78633333D01*
X104702380Y-78728571D01*
X104654761Y-78871428D01*
X104559523Y-78966666D01*
X104464285Y-79014285D01*
X104273809Y-79061904D01*
X104130952Y-79061904D01*
X103940476Y-79014285D01*
X103845238Y-78966666D01*
X103750000Y-78871428D01*
X103702380Y-78728571D01*
X103702380Y-78633333D01*
X103750000Y-78490476D01*
X103797619Y-78442857D01*
X104702380Y-77490476D02*
X104702380Y-78061904D01*
X104702380Y-77776190D02*
X103702380Y-77776190D01*
X103845238Y-77871428D01*
X103940476Y-77966666D01*
X103988095Y-78061904D01*
X103702380Y-77157142D02*
X103702380Y-76490476D01*
X104702380Y-76919047D01*
%TO.C,C16*%
X79507142Y-78367857D02*
X79554761Y-78415476D01*
X79602380Y-78558333D01*
X79602380Y-78653571D01*
X79554761Y-78796428D01*
X79459523Y-78891666D01*
X79364285Y-78939285D01*
X79173809Y-78986904D01*
X79030952Y-78986904D01*
X78840476Y-78939285D01*
X78745238Y-78891666D01*
X78650000Y-78796428D01*
X78602380Y-78653571D01*
X78602380Y-78558333D01*
X78650000Y-78415476D01*
X78697619Y-78367857D01*
X79602380Y-77415476D02*
X79602380Y-77986904D01*
X79602380Y-77701190D02*
X78602380Y-77701190D01*
X78745238Y-77796428D01*
X78840476Y-77891666D01*
X78888095Y-77986904D01*
X78602380Y-76558333D02*
X78602380Y-76748809D01*
X78650000Y-76844047D01*
X78697619Y-76891666D01*
X78840476Y-76986904D01*
X79030952Y-77034523D01*
X79411904Y-77034523D01*
X79507142Y-76986904D01*
X79554761Y-76939285D01*
X79602380Y-76844047D01*
X79602380Y-76653571D01*
X79554761Y-76558333D01*
X79507142Y-76510714D01*
X79411904Y-76463095D01*
X79173809Y-76463095D01*
X79078571Y-76510714D01*
X79030952Y-76558333D01*
X78983333Y-76653571D01*
X78983333Y-76844047D01*
X79030952Y-76939285D01*
X79078571Y-76986904D01*
X79173809Y-77034523D01*
X75902380Y-78844047D02*
X75902380Y-79415476D01*
X75902380Y-79129761D02*
X74902380Y-79129761D01*
X75045238Y-79225000D01*
X75140476Y-79320238D01*
X75188095Y-79415476D01*
X74902380Y-78225000D02*
X74902380Y-78129761D01*
X74950000Y-78034523D01*
X74997619Y-77986904D01*
X75092857Y-77939285D01*
X75283333Y-77891666D01*
X75521428Y-77891666D01*
X75711904Y-77939285D01*
X75807142Y-77986904D01*
X75854761Y-78034523D01*
X75902380Y-78129761D01*
X75902380Y-78225000D01*
X75854761Y-78320238D01*
X75807142Y-78367857D01*
X75711904Y-78415476D01*
X75521428Y-78463095D01*
X75283333Y-78463095D01*
X75092857Y-78415476D01*
X74997619Y-78367857D01*
X74950000Y-78320238D01*
X74902380Y-78225000D01*
X74902380Y-77272619D02*
X74902380Y-77177380D01*
X74950000Y-77082142D01*
X74997619Y-77034523D01*
X75092857Y-76986904D01*
X75283333Y-76939285D01*
X75521428Y-76939285D01*
X75711904Y-76986904D01*
X75807142Y-77034523D01*
X75854761Y-77082142D01*
X75902380Y-77177380D01*
X75902380Y-77272619D01*
X75854761Y-77367857D01*
X75807142Y-77415476D01*
X75711904Y-77463095D01*
X75521428Y-77510714D01*
X75283333Y-77510714D01*
X75092857Y-77463095D01*
X74997619Y-77415476D01*
X74950000Y-77367857D01*
X74902380Y-77272619D01*
X75235714Y-76510714D02*
X75902380Y-76510714D01*
X75330952Y-76510714D02*
X75283333Y-76463095D01*
X75235714Y-76367857D01*
X75235714Y-76225000D01*
X75283333Y-76129761D01*
X75378571Y-76082142D01*
X75902380Y-76082142D01*
%TO.C,C15*%
X259409142Y-96125142D02*
X259361523Y-96172761D01*
X259218666Y-96220380D01*
X259123428Y-96220380D01*
X258980571Y-96172761D01*
X258885333Y-96077523D01*
X258837714Y-95982285D01*
X258790095Y-95791809D01*
X258790095Y-95648952D01*
X258837714Y-95458476D01*
X258885333Y-95363238D01*
X258980571Y-95268000D01*
X259123428Y-95220380D01*
X259218666Y-95220380D01*
X259361523Y-95268000D01*
X259409142Y-95315619D01*
X260361523Y-96220380D02*
X259790095Y-96220380D01*
X260075809Y-96220380D02*
X260075809Y-95220380D01*
X259980571Y-95363238D01*
X259885333Y-95458476D01*
X259790095Y-95506095D01*
X261266285Y-95220380D02*
X260790095Y-95220380D01*
X260742476Y-95696571D01*
X260790095Y-95648952D01*
X260885333Y-95601333D01*
X261123428Y-95601333D01*
X261218666Y-95648952D01*
X261266285Y-95696571D01*
X261313904Y-95791809D01*
X261313904Y-96029904D01*
X261266285Y-96125142D01*
X261218666Y-96172761D01*
X261123428Y-96220380D01*
X260885333Y-96220380D01*
X260790095Y-96172761D01*
X260742476Y-96125142D01*
%TO.C,C14*%
X234765142Y-96125142D02*
X234717523Y-96172761D01*
X234574666Y-96220380D01*
X234479428Y-96220380D01*
X234336571Y-96172761D01*
X234241333Y-96077523D01*
X234193714Y-95982285D01*
X234146095Y-95791809D01*
X234146095Y-95648952D01*
X234193714Y-95458476D01*
X234241333Y-95363238D01*
X234336571Y-95268000D01*
X234479428Y-95220380D01*
X234574666Y-95220380D01*
X234717523Y-95268000D01*
X234765142Y-95315619D01*
X235717523Y-96220380D02*
X235146095Y-96220380D01*
X235431809Y-96220380D02*
X235431809Y-95220380D01*
X235336571Y-95363238D01*
X235241333Y-95458476D01*
X235146095Y-95506095D01*
X236574666Y-95553714D02*
X236574666Y-96220380D01*
X236336571Y-95172761D02*
X236098476Y-95887047D01*
X236717523Y-95887047D01*
%TO.C,C13*%
X209365142Y-96125142D02*
X209317523Y-96172761D01*
X209174666Y-96220380D01*
X209079428Y-96220380D01*
X208936571Y-96172761D01*
X208841333Y-96077523D01*
X208793714Y-95982285D01*
X208746095Y-95791809D01*
X208746095Y-95648952D01*
X208793714Y-95458476D01*
X208841333Y-95363238D01*
X208936571Y-95268000D01*
X209079428Y-95220380D01*
X209174666Y-95220380D01*
X209317523Y-95268000D01*
X209365142Y-95315619D01*
X210317523Y-96220380D02*
X209746095Y-96220380D01*
X210031809Y-96220380D02*
X210031809Y-95220380D01*
X209936571Y-95363238D01*
X209841333Y-95458476D01*
X209746095Y-95506095D01*
X210650857Y-95220380D02*
X211269904Y-95220380D01*
X210936571Y-95601333D01*
X211079428Y-95601333D01*
X211174666Y-95648952D01*
X211222285Y-95696571D01*
X211269904Y-95791809D01*
X211269904Y-96029904D01*
X211222285Y-96125142D01*
X211174666Y-96172761D01*
X211079428Y-96220380D01*
X210793714Y-96220380D01*
X210698476Y-96172761D01*
X210650857Y-96125142D01*
%TO.C,C12*%
X184473142Y-96125142D02*
X184425523Y-96172761D01*
X184282666Y-96220380D01*
X184187428Y-96220380D01*
X184044571Y-96172761D01*
X183949333Y-96077523D01*
X183901714Y-95982285D01*
X183854095Y-95791809D01*
X183854095Y-95648952D01*
X183901714Y-95458476D01*
X183949333Y-95363238D01*
X184044571Y-95268000D01*
X184187428Y-95220380D01*
X184282666Y-95220380D01*
X184425523Y-95268000D01*
X184473142Y-95315619D01*
X185425523Y-96220380D02*
X184854095Y-96220380D01*
X185139809Y-96220380D02*
X185139809Y-95220380D01*
X185044571Y-95363238D01*
X184949333Y-95458476D01*
X184854095Y-95506095D01*
X185806476Y-95315619D02*
X185854095Y-95268000D01*
X185949333Y-95220380D01*
X186187428Y-95220380D01*
X186282666Y-95268000D01*
X186330285Y-95315619D01*
X186377904Y-95410857D01*
X186377904Y-95506095D01*
X186330285Y-95648952D01*
X185758857Y-96220380D01*
X186377904Y-96220380D01*
%TO.C,C11*%
X155557142Y-94207142D02*
X155509523Y-94254761D01*
X155366666Y-94302380D01*
X155271428Y-94302380D01*
X155128571Y-94254761D01*
X155033333Y-94159523D01*
X154985714Y-94064285D01*
X154938095Y-93873809D01*
X154938095Y-93730952D01*
X154985714Y-93540476D01*
X155033333Y-93445238D01*
X155128571Y-93350000D01*
X155271428Y-93302380D01*
X155366666Y-93302380D01*
X155509523Y-93350000D01*
X155557142Y-93397619D01*
X156509523Y-94302380D02*
X155938095Y-94302380D01*
X156223809Y-94302380D02*
X156223809Y-93302380D01*
X156128571Y-93445238D01*
X156033333Y-93540476D01*
X155938095Y-93588095D01*
X157461904Y-94302380D02*
X156890476Y-94302380D01*
X157176190Y-94302380D02*
X157176190Y-93302380D01*
X157080952Y-93445238D01*
X156985714Y-93540476D01*
X156890476Y-93588095D01*
%TO.C,C10*%
X134689142Y-96125142D02*
X134641523Y-96172761D01*
X134498666Y-96220380D01*
X134403428Y-96220380D01*
X134260571Y-96172761D01*
X134165333Y-96077523D01*
X134117714Y-95982285D01*
X134070095Y-95791809D01*
X134070095Y-95648952D01*
X134117714Y-95458476D01*
X134165333Y-95363238D01*
X134260571Y-95268000D01*
X134403428Y-95220380D01*
X134498666Y-95220380D01*
X134641523Y-95268000D01*
X134689142Y-95315619D01*
X135641523Y-96220380D02*
X135070095Y-96220380D01*
X135355809Y-96220380D02*
X135355809Y-95220380D01*
X135260571Y-95363238D01*
X135165333Y-95458476D01*
X135070095Y-95506095D01*
X136260571Y-95220380D02*
X136355809Y-95220380D01*
X136451047Y-95268000D01*
X136498666Y-95315619D01*
X136546285Y-95410857D01*
X136593904Y-95601333D01*
X136593904Y-95839428D01*
X136546285Y-96029904D01*
X136498666Y-96125142D01*
X136451047Y-96172761D01*
X136355809Y-96220380D01*
X136260571Y-96220380D01*
X136165333Y-96172761D01*
X136117714Y-96125142D01*
X136070095Y-96029904D01*
X136022476Y-95839428D01*
X136022476Y-95601333D01*
X136070095Y-95410857D01*
X136117714Y-95315619D01*
X136165333Y-95268000D01*
X136260571Y-95220380D01*
%TO.C,C9*%
X109765333Y-96125142D02*
X109717714Y-96172761D01*
X109574857Y-96220380D01*
X109479619Y-96220380D01*
X109336761Y-96172761D01*
X109241523Y-96077523D01*
X109193904Y-95982285D01*
X109146285Y-95791809D01*
X109146285Y-95648952D01*
X109193904Y-95458476D01*
X109241523Y-95363238D01*
X109336761Y-95268000D01*
X109479619Y-95220380D01*
X109574857Y-95220380D01*
X109717714Y-95268000D01*
X109765333Y-95315619D01*
X110241523Y-96220380D02*
X110432000Y-96220380D01*
X110527238Y-96172761D01*
X110574857Y-96125142D01*
X110670095Y-95982285D01*
X110717714Y-95791809D01*
X110717714Y-95410857D01*
X110670095Y-95315619D01*
X110622476Y-95268000D01*
X110527238Y-95220380D01*
X110336761Y-95220380D01*
X110241523Y-95268000D01*
X110193904Y-95315619D01*
X110146285Y-95410857D01*
X110146285Y-95648952D01*
X110193904Y-95744190D01*
X110241523Y-95791809D01*
X110336761Y-95839428D01*
X110527238Y-95839428D01*
X110622476Y-95791809D01*
X110670095Y-95744190D01*
X110717714Y-95648952D01*
%TO.C,C8*%
X84639333Y-96633142D02*
X84591714Y-96680761D01*
X84448857Y-96728380D01*
X84353619Y-96728380D01*
X84210761Y-96680761D01*
X84115523Y-96585523D01*
X84067904Y-96490285D01*
X84020285Y-96299809D01*
X84020285Y-96156952D01*
X84067904Y-95966476D01*
X84115523Y-95871238D01*
X84210761Y-95776000D01*
X84353619Y-95728380D01*
X84448857Y-95728380D01*
X84591714Y-95776000D01*
X84639333Y-95823619D01*
X85210761Y-96156952D02*
X85115523Y-96109333D01*
X85067904Y-96061714D01*
X85020285Y-95966476D01*
X85020285Y-95918857D01*
X85067904Y-95823619D01*
X85115523Y-95776000D01*
X85210761Y-95728380D01*
X85401238Y-95728380D01*
X85496476Y-95776000D01*
X85544095Y-95823619D01*
X85591714Y-95918857D01*
X85591714Y-95966476D01*
X85544095Y-96061714D01*
X85496476Y-96109333D01*
X85401238Y-96156952D01*
X85210761Y-96156952D01*
X85115523Y-96204571D01*
X85067904Y-96252190D01*
X85020285Y-96347428D01*
X85020285Y-96537904D01*
X85067904Y-96633142D01*
X85115523Y-96680761D01*
X85210761Y-96728380D01*
X85401238Y-96728380D01*
X85496476Y-96680761D01*
X85544095Y-96633142D01*
X85591714Y-96537904D01*
X85591714Y-96347428D01*
X85544095Y-96252190D01*
X85496476Y-96204571D01*
X85401238Y-96156952D01*
X76300952Y-96220380D02*
X75729523Y-96220380D01*
X76015238Y-96220380D02*
X76015238Y-95220380D01*
X75920000Y-95363238D01*
X75824761Y-95458476D01*
X75729523Y-95506095D01*
X76920000Y-95220380D02*
X77015238Y-95220380D01*
X77110476Y-95268000D01*
X77158095Y-95315619D01*
X77205714Y-95410857D01*
X77253333Y-95601333D01*
X77253333Y-95839428D01*
X77205714Y-96029904D01*
X77158095Y-96125142D01*
X77110476Y-96172761D01*
X77015238Y-96220380D01*
X76920000Y-96220380D01*
X76824761Y-96172761D01*
X76777142Y-96125142D01*
X76729523Y-96029904D01*
X76681904Y-95839428D01*
X76681904Y-95601333D01*
X76729523Y-95410857D01*
X76777142Y-95315619D01*
X76824761Y-95268000D01*
X76920000Y-95220380D01*
X77872380Y-95220380D02*
X77967619Y-95220380D01*
X78062857Y-95268000D01*
X78110476Y-95315619D01*
X78158095Y-95410857D01*
X78205714Y-95601333D01*
X78205714Y-95839428D01*
X78158095Y-96029904D01*
X78110476Y-96125142D01*
X78062857Y-96172761D01*
X77967619Y-96220380D01*
X77872380Y-96220380D01*
X77777142Y-96172761D01*
X77729523Y-96125142D01*
X77681904Y-96029904D01*
X77634285Y-95839428D01*
X77634285Y-95601333D01*
X77681904Y-95410857D01*
X77729523Y-95315619D01*
X77777142Y-95268000D01*
X77872380Y-95220380D01*
X78634285Y-95553714D02*
X78634285Y-96220380D01*
X78634285Y-95648952D02*
X78681904Y-95601333D01*
X78777142Y-95553714D01*
X78920000Y-95553714D01*
X79015238Y-95601333D01*
X79062857Y-95696571D01*
X79062857Y-96220380D01*
%TO.C,C7*%
X166863333Y-95875142D02*
X166815714Y-95922761D01*
X166672857Y-95970380D01*
X166577619Y-95970380D01*
X166434761Y-95922761D01*
X166339523Y-95827523D01*
X166291904Y-95732285D01*
X166244285Y-95541809D01*
X166244285Y-95398952D01*
X166291904Y-95208476D01*
X166339523Y-95113238D01*
X166434761Y-95018000D01*
X166577619Y-94970380D01*
X166672857Y-94970380D01*
X166815714Y-95018000D01*
X166863333Y-95065619D01*
X167196666Y-94970380D02*
X167863333Y-94970380D01*
X167434761Y-95970380D01*
%TO.C,U7*%
X169114095Y-85060380D02*
X169114095Y-85869904D01*
X169161714Y-85965142D01*
X169209333Y-86012761D01*
X169304571Y-86060380D01*
X169495047Y-86060380D01*
X169590285Y-86012761D01*
X169637904Y-85965142D01*
X169685523Y-85869904D01*
X169685523Y-85060380D01*
X170066476Y-85060380D02*
X170733142Y-85060380D01*
X170304571Y-86060380D01*
X166137904Y-93188380D02*
X166804571Y-93188380D01*
X166376000Y-94188380D01*
X167614095Y-93521714D02*
X167614095Y-94188380D01*
X167376000Y-93140761D02*
X167137904Y-93855047D01*
X167756952Y-93855047D01*
X168137904Y-94188380D02*
X168137904Y-93188380D01*
X168137904Y-93664571D02*
X168709333Y-93664571D01*
X168709333Y-94188380D02*
X168709333Y-93188380D01*
X169756952Y-94093142D02*
X169709333Y-94140761D01*
X169566476Y-94188380D01*
X169471238Y-94188380D01*
X169328380Y-94140761D01*
X169233142Y-94045523D01*
X169185523Y-93950285D01*
X169137904Y-93759809D01*
X169137904Y-93616952D01*
X169185523Y-93426476D01*
X169233142Y-93331238D01*
X169328380Y-93236000D01*
X169471238Y-93188380D01*
X169566476Y-93188380D01*
X169709333Y-93236000D01*
X169756952Y-93283619D01*
X170614095Y-93521714D02*
X170614095Y-94188380D01*
X170376000Y-93140761D02*
X170137904Y-93855047D01*
X170756952Y-93855047D01*
X171328380Y-93188380D02*
X171423619Y-93188380D01*
X171518857Y-93236000D01*
X171566476Y-93283619D01*
X171614095Y-93378857D01*
X171661714Y-93569333D01*
X171661714Y-93807428D01*
X171614095Y-93997904D01*
X171566476Y-94093142D01*
X171518857Y-94140761D01*
X171423619Y-94188380D01*
X171328380Y-94188380D01*
X171233142Y-94140761D01*
X171185523Y-94093142D01*
X171137904Y-93997904D01*
X171090285Y-93807428D01*
X171090285Y-93569333D01*
X171137904Y-93378857D01*
X171185523Y-93283619D01*
X171233142Y-93236000D01*
X171328380Y-93188380D01*
X172566476Y-93188380D02*
X172090285Y-93188380D01*
X172042666Y-93664571D01*
X172090285Y-93616952D01*
X172185523Y-93569333D01*
X172423619Y-93569333D01*
X172518857Y-93616952D01*
X172566476Y-93664571D01*
X172614095Y-93759809D01*
X172614095Y-93997904D01*
X172566476Y-94093142D01*
X172518857Y-94140761D01*
X172423619Y-94188380D01*
X172185523Y-94188380D01*
X172090285Y-94140761D01*
X172042666Y-94093142D01*
X173566476Y-94188380D02*
X172995047Y-94188380D01*
X173280761Y-94188380D02*
X173280761Y-93188380D01*
X173185523Y-93331238D01*
X173090285Y-93426476D01*
X172995047Y-93474095D01*
%TO.C,RV8*%
X255852380Y-86095238D02*
X255376190Y-86428571D01*
X255852380Y-86666666D02*
X254852380Y-86666666D01*
X254852380Y-86285714D01*
X254900000Y-86190476D01*
X254947619Y-86142857D01*
X255042857Y-86095238D01*
X255185714Y-86095238D01*
X255280952Y-86142857D01*
X255328571Y-86190476D01*
X255376190Y-86285714D01*
X255376190Y-86666666D01*
X254852380Y-85809523D02*
X255852380Y-85476190D01*
X254852380Y-85142857D01*
X255280952Y-84666666D02*
X255233333Y-84761904D01*
X255185714Y-84809523D01*
X255090476Y-84857142D01*
X255042857Y-84857142D01*
X254947619Y-84809523D01*
X254900000Y-84761904D01*
X254852380Y-84666666D01*
X254852380Y-84476190D01*
X254900000Y-84380952D01*
X254947619Y-84333333D01*
X255042857Y-84285714D01*
X255090476Y-84285714D01*
X255185714Y-84333333D01*
X255233333Y-84380952D01*
X255280952Y-84476190D01*
X255280952Y-84666666D01*
X255328571Y-84761904D01*
X255376190Y-84809523D01*
X255471428Y-84857142D01*
X255661904Y-84857142D01*
X255757142Y-84809523D01*
X255804761Y-84761904D01*
X255852380Y-84666666D01*
X255852380Y-84476190D01*
X255804761Y-84380952D01*
X255757142Y-84333333D01*
X255661904Y-84285714D01*
X255471428Y-84285714D01*
X255376190Y-84333333D01*
X255328571Y-84380952D01*
X255280952Y-84476190D01*
%TO.C,RV7*%
X230852380Y-86095238D02*
X230376190Y-86428571D01*
X230852380Y-86666666D02*
X229852380Y-86666666D01*
X229852380Y-86285714D01*
X229900000Y-86190476D01*
X229947619Y-86142857D01*
X230042857Y-86095238D01*
X230185714Y-86095238D01*
X230280952Y-86142857D01*
X230328571Y-86190476D01*
X230376190Y-86285714D01*
X230376190Y-86666666D01*
X229852380Y-85809523D02*
X230852380Y-85476190D01*
X229852380Y-85142857D01*
X229852380Y-84904761D02*
X229852380Y-84238095D01*
X230852380Y-84666666D01*
%TO.C,RV6*%
X205852380Y-86095238D02*
X205376190Y-86428571D01*
X205852380Y-86666666D02*
X204852380Y-86666666D01*
X204852380Y-86285714D01*
X204900000Y-86190476D01*
X204947619Y-86142857D01*
X205042857Y-86095238D01*
X205185714Y-86095238D01*
X205280952Y-86142857D01*
X205328571Y-86190476D01*
X205376190Y-86285714D01*
X205376190Y-86666666D01*
X204852380Y-85809523D02*
X205852380Y-85476190D01*
X204852380Y-85142857D01*
X204852380Y-84380952D02*
X204852380Y-84571428D01*
X204900000Y-84666666D01*
X204947619Y-84714285D01*
X205090476Y-84809523D01*
X205280952Y-84857142D01*
X205661904Y-84857142D01*
X205757142Y-84809523D01*
X205804761Y-84761904D01*
X205852380Y-84666666D01*
X205852380Y-84476190D01*
X205804761Y-84380952D01*
X205757142Y-84333333D01*
X205661904Y-84285714D01*
X205423809Y-84285714D01*
X205328571Y-84333333D01*
X205280952Y-84380952D01*
X205233333Y-84476190D01*
X205233333Y-84666666D01*
X205280952Y-84761904D01*
X205328571Y-84809523D01*
X205423809Y-84857142D01*
%TO.C,RV5*%
X180752380Y-86095238D02*
X180276190Y-86428571D01*
X180752380Y-86666666D02*
X179752380Y-86666666D01*
X179752380Y-86285714D01*
X179800000Y-86190476D01*
X179847619Y-86142857D01*
X179942857Y-86095238D01*
X180085714Y-86095238D01*
X180180952Y-86142857D01*
X180228571Y-86190476D01*
X180276190Y-86285714D01*
X180276190Y-86666666D01*
X179752380Y-85809523D02*
X180752380Y-85476190D01*
X179752380Y-85142857D01*
X179752380Y-84333333D02*
X179752380Y-84809523D01*
X180228571Y-84857142D01*
X180180952Y-84809523D01*
X180133333Y-84714285D01*
X180133333Y-84476190D01*
X180180952Y-84380952D01*
X180228571Y-84333333D01*
X180323809Y-84285714D01*
X180561904Y-84285714D01*
X180657142Y-84333333D01*
X180704761Y-84380952D01*
X180752380Y-84476190D01*
X180752380Y-84714285D01*
X180704761Y-84809523D01*
X180657142Y-84857142D01*
%TO.C,RV3*%
X130852380Y-86095238D02*
X130376190Y-86428571D01*
X130852380Y-86666666D02*
X129852380Y-86666666D01*
X129852380Y-86285714D01*
X129900000Y-86190476D01*
X129947619Y-86142857D01*
X130042857Y-86095238D01*
X130185714Y-86095238D01*
X130280952Y-86142857D01*
X130328571Y-86190476D01*
X130376190Y-86285714D01*
X130376190Y-86666666D01*
X129852380Y-85809523D02*
X130852380Y-85476190D01*
X129852380Y-85142857D01*
X129852380Y-84904761D02*
X129852380Y-84285714D01*
X130233333Y-84619047D01*
X130233333Y-84476190D01*
X130280952Y-84380952D01*
X130328571Y-84333333D01*
X130423809Y-84285714D01*
X130661904Y-84285714D01*
X130757142Y-84333333D01*
X130804761Y-84380952D01*
X130852380Y-84476190D01*
X130852380Y-84761904D01*
X130804761Y-84857142D01*
X130757142Y-84904761D01*
%TO.C,RV2*%
X105952380Y-86095238D02*
X105476190Y-86428571D01*
X105952380Y-86666666D02*
X104952380Y-86666666D01*
X104952380Y-86285714D01*
X105000000Y-86190476D01*
X105047619Y-86142857D01*
X105142857Y-86095238D01*
X105285714Y-86095238D01*
X105380952Y-86142857D01*
X105428571Y-86190476D01*
X105476190Y-86285714D01*
X105476190Y-86666666D01*
X104952380Y-85809523D02*
X105952380Y-85476190D01*
X104952380Y-85142857D01*
X105047619Y-84857142D02*
X105000000Y-84809523D01*
X104952380Y-84714285D01*
X104952380Y-84476190D01*
X105000000Y-84380952D01*
X105047619Y-84333333D01*
X105142857Y-84285714D01*
X105238095Y-84285714D01*
X105380952Y-84333333D01*
X105952380Y-84904761D01*
X105952380Y-84285714D01*
%TO.C,RV1*%
X80852380Y-86195238D02*
X80376190Y-86528571D01*
X80852380Y-86766666D02*
X79852380Y-86766666D01*
X79852380Y-86385714D01*
X79900000Y-86290476D01*
X79947619Y-86242857D01*
X80042857Y-86195238D01*
X80185714Y-86195238D01*
X80280952Y-86242857D01*
X80328571Y-86290476D01*
X80376190Y-86385714D01*
X80376190Y-86766666D01*
X79852380Y-85909523D02*
X80852380Y-85576190D01*
X79852380Y-85242857D01*
X80852380Y-84385714D02*
X80852380Y-84957142D01*
X80852380Y-84671428D02*
X79852380Y-84671428D01*
X79995238Y-84766666D01*
X80090476Y-84861904D01*
X80138095Y-84957142D01*
%TO.C,D11*%
X261687714Y-79659380D02*
X261116285Y-79659380D01*
X261402000Y-79659380D02*
X261402000Y-78659380D01*
X261306761Y-78802238D01*
X261211523Y-78897476D01*
X261116285Y-78945095D01*
%TO.C,D10*%
X236735714Y-79659380D02*
X236164285Y-79659380D01*
X236450000Y-79659380D02*
X236450000Y-78659380D01*
X236354761Y-78802238D01*
X236259523Y-78897476D01*
X236164285Y-78945095D01*
%TO.C,D9*%
X211735714Y-79659380D02*
X211164285Y-79659380D01*
X211450000Y-79659380D02*
X211450000Y-78659380D01*
X211354761Y-78802238D01*
X211259523Y-78897476D01*
X211164285Y-78945095D01*
%TO.C,D8*%
X186735714Y-79659380D02*
X186164285Y-79659380D01*
X186450000Y-79659380D02*
X186450000Y-78659380D01*
X186354761Y-78802238D01*
X186259523Y-78897476D01*
X186164285Y-78945095D01*
%TO.C,D7*%
X161735714Y-79659380D02*
X161164285Y-79659380D01*
X161450000Y-79659380D02*
X161450000Y-78659380D01*
X161354761Y-78802238D01*
X161259523Y-78897476D01*
X161164285Y-78945095D01*
%TO.C,D6*%
X136719714Y-79659380D02*
X136148285Y-79659380D01*
X136434000Y-79659380D02*
X136434000Y-78659380D01*
X136338761Y-78802238D01*
X136243523Y-78897476D01*
X136148285Y-78945095D01*
%TO.C,D5*%
X111726114Y-79684780D02*
X111154685Y-79684780D01*
X111440400Y-79684780D02*
X111440400Y-78684780D01*
X111345161Y-78827638D01*
X111249923Y-78922876D01*
X111154685Y-78970495D01*
%TO.C,D4*%
X86732514Y-79786380D02*
X86161085Y-79786380D01*
X86446800Y-79786380D02*
X86446800Y-78786380D01*
X86351561Y-78929238D01*
X86256323Y-79024476D01*
X86161085Y-79072095D01*
%TO.C,U5*%
X91898095Y-71344380D02*
X91898095Y-72153904D01*
X91945714Y-72249142D01*
X91993333Y-72296761D01*
X92088571Y-72344380D01*
X92279047Y-72344380D01*
X92374285Y-72296761D01*
X92421904Y-72249142D01*
X92469523Y-72153904D01*
X92469523Y-71344380D01*
X93421904Y-71344380D02*
X92945714Y-71344380D01*
X92898095Y-71820571D01*
X92945714Y-71772952D01*
X93040952Y-71725333D01*
X93279047Y-71725333D01*
X93374285Y-71772952D01*
X93421904Y-71820571D01*
X93469523Y-71915809D01*
X93469523Y-72153904D01*
X93421904Y-72249142D01*
X93374285Y-72296761D01*
X93279047Y-72344380D01*
X93040952Y-72344380D01*
X92945714Y-72296761D01*
X92898095Y-72249142D01*
%TO.C,F1*%
D11*
X96915333Y-63706857D02*
X96648666Y-63706857D01*
X96648666Y-64125904D02*
X96648666Y-63325904D01*
X97029619Y-63325904D01*
X97753428Y-64125904D02*
X97296285Y-64125904D01*
X97524857Y-64125904D02*
X97524857Y-63325904D01*
X97448666Y-63440190D01*
X97372476Y-63516380D01*
X97296285Y-63554476D01*
%TO.C,D3*%
D12*
X119096380Y-59582285D02*
X119096380Y-60153714D01*
X119096380Y-59868000D02*
X118096380Y-59868000D01*
X118239238Y-59963238D01*
X118334476Y-60058476D01*
X118382095Y-60153714D01*
%TO.C,C6*%
X126115619Y-95410952D02*
X126068000Y-95363333D01*
X126020380Y-95268095D01*
X126020380Y-95030000D01*
X126068000Y-94934761D01*
X126115619Y-94887142D01*
X126210857Y-94839523D01*
X126306095Y-94839523D01*
X126448952Y-94887142D01*
X127020380Y-95458571D01*
X127020380Y-94839523D01*
X126925142Y-94410952D02*
X126972761Y-94363333D01*
X127020380Y-94410952D01*
X126972761Y-94458571D01*
X126925142Y-94410952D01*
X127020380Y-94410952D01*
X126115619Y-93982380D02*
X126068000Y-93934761D01*
X126020380Y-93839523D01*
X126020380Y-93601428D01*
X126068000Y-93506190D01*
X126115619Y-93458571D01*
X126210857Y-93410952D01*
X126306095Y-93410952D01*
X126448952Y-93458571D01*
X127020380Y-94030000D01*
X127020380Y-93410952D01*
X126353714Y-92553809D02*
X127020380Y-92553809D01*
X126353714Y-92982380D02*
X126877523Y-92982380D01*
X126972761Y-92934761D01*
X127020380Y-92839523D01*
X127020380Y-92696666D01*
X126972761Y-92601428D01*
X126925142Y-92553809D01*
X126496571Y-91744285D02*
X126496571Y-92077619D01*
X127020380Y-92077619D02*
X126020380Y-92077619D01*
X126020380Y-91601428D01*
D11*
X125203714Y-90313333D02*
X125241809Y-90351428D01*
X125279904Y-90465714D01*
X125279904Y-90541904D01*
X125241809Y-90656190D01*
X125165619Y-90732380D01*
X125089428Y-90770476D01*
X124937047Y-90808571D01*
X124822761Y-90808571D01*
X124670380Y-90770476D01*
X124594190Y-90732380D01*
X124518000Y-90656190D01*
X124479904Y-90541904D01*
X124479904Y-90465714D01*
X124518000Y-90351428D01*
X124556095Y-90313333D01*
X124479904Y-89627619D02*
X124479904Y-89780000D01*
X124518000Y-89856190D01*
X124556095Y-89894285D01*
X124670380Y-89970476D01*
X124822761Y-90008571D01*
X125127523Y-90008571D01*
X125203714Y-89970476D01*
X125241809Y-89932380D01*
X125279904Y-89856190D01*
X125279904Y-89703809D01*
X125241809Y-89627619D01*
X125203714Y-89589523D01*
X125127523Y-89551428D01*
X124937047Y-89551428D01*
X124860857Y-89589523D01*
X124822761Y-89627619D01*
X124784666Y-89703809D01*
X124784666Y-89856190D01*
X124822761Y-89932380D01*
X124860857Y-89970476D01*
X124937047Y-90008571D01*
%TO.C,C5*%
D12*
X113612019Y-96010952D02*
X113564400Y-95963333D01*
X113516780Y-95868095D01*
X113516780Y-95630000D01*
X113564400Y-95534761D01*
X113612019Y-95487142D01*
X113707257Y-95439523D01*
X113802495Y-95439523D01*
X113945352Y-95487142D01*
X114516780Y-96058571D01*
X114516780Y-95439523D01*
X114421542Y-95010952D02*
X114469161Y-94963333D01*
X114516780Y-95010952D01*
X114469161Y-95058571D01*
X114421542Y-95010952D01*
X114516780Y-95010952D01*
X113612019Y-94582380D02*
X113564400Y-94534761D01*
X113516780Y-94439523D01*
X113516780Y-94201428D01*
X113564400Y-94106190D01*
X113612019Y-94058571D01*
X113707257Y-94010952D01*
X113802495Y-94010952D01*
X113945352Y-94058571D01*
X114516780Y-94630000D01*
X114516780Y-94010952D01*
X113850114Y-93153809D02*
X114516780Y-93153809D01*
X113850114Y-93582380D02*
X114373923Y-93582380D01*
X114469161Y-93534761D01*
X114516780Y-93439523D01*
X114516780Y-93296666D01*
X114469161Y-93201428D01*
X114421542Y-93153809D01*
X113992971Y-92344285D02*
X113992971Y-92677619D01*
X114516780Y-92677619D02*
X113516780Y-92677619D01*
X113516780Y-92201428D01*
D11*
X115450114Y-90313333D02*
X115488209Y-90351428D01*
X115526304Y-90465714D01*
X115526304Y-90541904D01*
X115488209Y-90656190D01*
X115412019Y-90732380D01*
X115335828Y-90770476D01*
X115183447Y-90808571D01*
X115069161Y-90808571D01*
X114916780Y-90770476D01*
X114840590Y-90732380D01*
X114764400Y-90656190D01*
X114726304Y-90541904D01*
X114726304Y-90465714D01*
X114764400Y-90351428D01*
X114802495Y-90313333D01*
X114726304Y-89589523D02*
X114726304Y-89970476D01*
X115107257Y-90008571D01*
X115069161Y-89970476D01*
X115031066Y-89894285D01*
X115031066Y-89703809D01*
X115069161Y-89627619D01*
X115107257Y-89589523D01*
X115183447Y-89551428D01*
X115373923Y-89551428D01*
X115450114Y-89589523D01*
X115488209Y-89627619D01*
X115526304Y-89703809D01*
X115526304Y-89894285D01*
X115488209Y-89970476D01*
X115450114Y-90008571D01*
%TO.C,C3*%
D12*
X84170952Y-75060380D02*
X83599523Y-75060380D01*
X83885238Y-75060380D02*
X83885238Y-74060380D01*
X83790000Y-74203238D01*
X83694761Y-74298476D01*
X83599523Y-74346095D01*
X84790000Y-74060380D02*
X84885238Y-74060380D01*
X84980476Y-74108000D01*
X85028095Y-74155619D01*
X85075714Y-74250857D01*
X85123333Y-74441333D01*
X85123333Y-74679428D01*
X85075714Y-74869904D01*
X85028095Y-74965142D01*
X84980476Y-75012761D01*
X84885238Y-75060380D01*
X84790000Y-75060380D01*
X84694761Y-75012761D01*
X84647142Y-74965142D01*
X84599523Y-74869904D01*
X84551904Y-74679428D01*
X84551904Y-74441333D01*
X84599523Y-74250857D01*
X84647142Y-74155619D01*
X84694761Y-74108000D01*
X84790000Y-74060380D01*
X85742380Y-74060380D02*
X85837619Y-74060380D01*
X85932857Y-74108000D01*
X85980476Y-74155619D01*
X86028095Y-74250857D01*
X86075714Y-74441333D01*
X86075714Y-74679428D01*
X86028095Y-74869904D01*
X85980476Y-74965142D01*
X85932857Y-75012761D01*
X85837619Y-75060380D01*
X85742380Y-75060380D01*
X85647142Y-75012761D01*
X85599523Y-74965142D01*
X85551904Y-74869904D01*
X85504285Y-74679428D01*
X85504285Y-74441333D01*
X85551904Y-74250857D01*
X85599523Y-74155619D01*
X85647142Y-74108000D01*
X85742380Y-74060380D01*
X86504285Y-74393714D02*
X86504285Y-75060380D01*
X86504285Y-74488952D02*
X86551904Y-74441333D01*
X86647142Y-74393714D01*
X86790000Y-74393714D01*
X86885238Y-74441333D01*
X86932857Y-74536571D01*
X86932857Y-75060380D01*
%TD*%
M02*
