%TF.GenerationSoftware,KiCad,Pcbnew,(5.1.9-0-10_14)*%
%TF.CreationDate,2021-11-27T16:04:38+01:00*%
%TF.ProjectId,SoundCore Knobs,536f756e-6443-46f7-9265-204b6e6f6273,rev?*%
%TF.SameCoordinates,Original*%
%TF.FileFunction,Legend,Bot*%
%TF.FilePolarity,Positive*%
%FSLAX46Y46*%
G04 Gerber Fmt 4.6, Leading zero omitted, Abs format (unit mm)*
G04 Created by KiCad (PCBNEW (5.1.9-0-10_14)) date 2021-11-27 16:04:38*
%MOMM*%
%LPD*%
G01*
G04 APERTURE LIST*
%ADD10C,0.400000*%
%ADD11C,0.300000*%
%ADD12C,0.600000*%
%ADD13C,0.120000*%
%ADD14C,0.150000*%
G04 APERTURE END LIST*
D10*
X269223238Y-91475809D02*
X270556571Y-91475809D01*
X270175619Y-91475809D02*
X270366095Y-91380571D01*
X270461333Y-91285333D01*
X270556571Y-91094857D01*
X270556571Y-90904380D01*
X269223238Y-89952000D02*
X269318476Y-90142476D01*
X269413714Y-90237714D01*
X269604190Y-90332952D01*
X270175619Y-90332952D01*
X270366095Y-90237714D01*
X270461333Y-90142476D01*
X270556571Y-89952000D01*
X270556571Y-89666285D01*
X270461333Y-89475809D01*
X270366095Y-89380571D01*
X270175619Y-89285333D01*
X269604190Y-89285333D01*
X269413714Y-89380571D01*
X269318476Y-89475809D01*
X269223238Y-89666285D01*
X269223238Y-89952000D01*
X269223238Y-88428190D02*
X270556571Y-88428190D01*
X270366095Y-88428190D02*
X270461333Y-88332952D01*
X270556571Y-88142476D01*
X270556571Y-87856761D01*
X270461333Y-87666285D01*
X270270857Y-87571047D01*
X269223238Y-87571047D01*
X270270857Y-87571047D02*
X270461333Y-87475809D01*
X270556571Y-87285333D01*
X270556571Y-86999619D01*
X270461333Y-86809142D01*
X270270857Y-86713904D01*
X269223238Y-86713904D01*
X269223238Y-85761523D02*
X270556571Y-85761523D01*
X271223238Y-85761523D02*
X271128000Y-85856761D01*
X271032761Y-85761523D01*
X271128000Y-85666285D01*
X271223238Y-85761523D01*
X271032761Y-85761523D01*
X269223238Y-84999619D02*
X270556571Y-83952000D01*
X270556571Y-84999619D02*
X269223238Y-83952000D01*
X270175619Y-81952000D02*
X270270857Y-82047238D01*
X270366095Y-82237714D01*
X270366095Y-82428190D01*
X270270857Y-82618666D01*
X270175619Y-82713904D01*
X269985142Y-82809142D01*
X269794666Y-82809142D01*
X269604190Y-82713904D01*
X269508952Y-82618666D01*
X269413714Y-82428190D01*
X269413714Y-82237714D01*
X269508952Y-82047238D01*
X269604190Y-81952000D01*
X270366095Y-81952000D02*
X269604190Y-81952000D01*
X269508952Y-81856761D01*
X269508952Y-81761523D01*
X269604190Y-81571047D01*
X269794666Y-81475809D01*
X270270857Y-81475809D01*
X270556571Y-81666285D01*
X270747047Y-81952000D01*
X270842285Y-82332952D01*
X270747047Y-82713904D01*
X270556571Y-82999619D01*
X270270857Y-83190095D01*
X269889904Y-83285333D01*
X269508952Y-83190095D01*
X269223238Y-82999619D01*
X269032761Y-82713904D01*
X268937523Y-82332952D01*
X269032761Y-81952000D01*
X269223238Y-81666285D01*
X269223238Y-80618666D02*
X270556571Y-80618666D01*
X270366095Y-80618666D02*
X270461333Y-80523428D01*
X270556571Y-80332952D01*
X270556571Y-80047238D01*
X270461333Y-79856761D01*
X270270857Y-79761523D01*
X269223238Y-79761523D01*
X270270857Y-79761523D02*
X270461333Y-79666285D01*
X270556571Y-79475809D01*
X270556571Y-79190095D01*
X270461333Y-78999619D01*
X270270857Y-78904380D01*
X269223238Y-78904380D01*
X269223238Y-77094857D02*
X270270857Y-77094857D01*
X270461333Y-77190095D01*
X270556571Y-77380571D01*
X270556571Y-77761523D01*
X270461333Y-77952000D01*
X269318476Y-77094857D02*
X269223238Y-77285333D01*
X269223238Y-77761523D01*
X269318476Y-77952000D01*
X269508952Y-78047238D01*
X269699428Y-78047238D01*
X269889904Y-77952000D01*
X269985142Y-77761523D01*
X269985142Y-77285333D01*
X270080380Y-77094857D01*
X269318476Y-75285333D02*
X269223238Y-75475809D01*
X269223238Y-75856761D01*
X269318476Y-76047238D01*
X269413714Y-76142476D01*
X269604190Y-76237714D01*
X270175619Y-76237714D01*
X270366095Y-76142476D01*
X270461333Y-76047238D01*
X270556571Y-75856761D01*
X270556571Y-75475809D01*
X270461333Y-75285333D01*
X270556571Y-73571047D02*
X269223238Y-73571047D01*
X270556571Y-74428190D02*
X269508952Y-74428190D01*
X269318476Y-74332952D01*
X269223238Y-74142476D01*
X269223238Y-73856761D01*
X269318476Y-73666285D01*
X269413714Y-73571047D01*
X269318476Y-72713904D02*
X269223238Y-72523428D01*
X269223238Y-72142476D01*
X269318476Y-71952000D01*
X269508952Y-71856761D01*
X269604190Y-71856761D01*
X269794666Y-71952000D01*
X269889904Y-72142476D01*
X269889904Y-72428190D01*
X269985142Y-72618666D01*
X270175619Y-72713904D01*
X270270857Y-72713904D01*
X270461333Y-72618666D01*
X270556571Y-72428190D01*
X270556571Y-72142476D01*
X270461333Y-71952000D01*
X269318476Y-70237714D02*
X269223238Y-70428190D01*
X269223238Y-70809142D01*
X269318476Y-70999619D01*
X269508952Y-71094857D01*
X270270857Y-71094857D01*
X270461333Y-70999619D01*
X270556571Y-70809142D01*
X270556571Y-70428190D01*
X270461333Y-70237714D01*
X270270857Y-70142476D01*
X270080380Y-70142476D01*
X269889904Y-71094857D01*
X269223238Y-69285333D02*
X270556571Y-69285333D01*
X270175619Y-69285333D02*
X270366095Y-69190095D01*
X270461333Y-69094857D01*
X270556571Y-68904380D01*
X270556571Y-68713904D01*
X269413714Y-68047238D02*
X269318476Y-67952000D01*
X269223238Y-68047238D01*
X269318476Y-68142476D01*
X269413714Y-68047238D01*
X269223238Y-68047238D01*
X270556571Y-67094857D02*
X269223238Y-67094857D01*
X270366095Y-67094857D02*
X270461333Y-66999619D01*
X270556571Y-66809142D01*
X270556571Y-66523428D01*
X270461333Y-66332952D01*
X270270857Y-66237714D01*
X269223238Y-66237714D01*
X269223238Y-64999619D02*
X269318476Y-65190095D01*
X269508952Y-65285333D01*
X271223238Y-65285333D01*
X265823238Y-90618666D02*
X267823238Y-90618666D01*
X265918476Y-90618666D02*
X265823238Y-90809142D01*
X265823238Y-91190095D01*
X265918476Y-91380571D01*
X266013714Y-91475809D01*
X266204190Y-91571047D01*
X266775619Y-91571047D01*
X266966095Y-91475809D01*
X267061333Y-91380571D01*
X267156571Y-91190095D01*
X267156571Y-90809142D01*
X267061333Y-90618666D01*
X265918476Y-88904380D02*
X265823238Y-89094857D01*
X265823238Y-89475809D01*
X265918476Y-89666285D01*
X266108952Y-89761523D01*
X266870857Y-89761523D01*
X267061333Y-89666285D01*
X267156571Y-89475809D01*
X267156571Y-89094857D01*
X267061333Y-88904380D01*
X266870857Y-88809142D01*
X266680380Y-88809142D01*
X266489904Y-89761523D01*
X265918476Y-87094857D02*
X265823238Y-87285333D01*
X265823238Y-87666285D01*
X265918476Y-87856761D01*
X266013714Y-87952000D01*
X266204190Y-88047238D01*
X266775619Y-88047238D01*
X266966095Y-87952000D01*
X267061333Y-87856761D01*
X267156571Y-87666285D01*
X267156571Y-87285333D01*
X267061333Y-87094857D01*
X267632761Y-84809142D02*
X267728000Y-84713904D01*
X267823238Y-84523428D01*
X267823238Y-84047238D01*
X267728000Y-83856761D01*
X267632761Y-83761523D01*
X267442285Y-83666285D01*
X267251809Y-83666285D01*
X266966095Y-83761523D01*
X265823238Y-84904380D01*
X265823238Y-83666285D01*
X267823238Y-82428190D02*
X267823238Y-82237714D01*
X267728000Y-82047238D01*
X267632761Y-81952000D01*
X267442285Y-81856761D01*
X267061333Y-81761523D01*
X266585142Y-81761523D01*
X266204190Y-81856761D01*
X266013714Y-81952000D01*
X265918476Y-82047238D01*
X265823238Y-82237714D01*
X265823238Y-82428190D01*
X265918476Y-82618666D01*
X266013714Y-82713904D01*
X266204190Y-82809142D01*
X266585142Y-82904380D01*
X267061333Y-82904380D01*
X267442285Y-82809142D01*
X267632761Y-82713904D01*
X267728000Y-82618666D01*
X267823238Y-82428190D01*
X267632761Y-80999619D02*
X267728000Y-80904380D01*
X267823238Y-80713904D01*
X267823238Y-80237714D01*
X267728000Y-80047238D01*
X267632761Y-79952000D01*
X267442285Y-79856761D01*
X267251809Y-79856761D01*
X266966095Y-79952000D01*
X265823238Y-81094857D01*
X265823238Y-79856761D01*
X265823238Y-77952000D02*
X265823238Y-79094857D01*
X265823238Y-78523428D02*
X267823238Y-78523428D01*
X267537523Y-78713904D01*
X267347047Y-78904380D01*
X267251809Y-79094857D01*
D11*
X88755428Y-59280428D02*
X88755428Y-60780428D01*
X88898285Y-59851857D02*
X89326857Y-59280428D01*
X89326857Y-60280428D02*
X88755428Y-59709000D01*
X90541142Y-59351857D02*
X90398285Y-59280428D01*
X90112571Y-59280428D01*
X89969714Y-59351857D01*
X89898285Y-59494714D01*
X89898285Y-60066142D01*
X89969714Y-60209000D01*
X90112571Y-60280428D01*
X90398285Y-60280428D01*
X90541142Y-60209000D01*
X90612571Y-60066142D01*
X90612571Y-59923285D01*
X89898285Y-59780428D01*
X91112571Y-60280428D02*
X91469714Y-59280428D01*
X91826857Y-60280428D02*
X91469714Y-59280428D01*
X91326857Y-58923285D01*
X91255428Y-58851857D01*
X91112571Y-58780428D01*
X92398285Y-59280428D02*
X92398285Y-60780428D01*
X92398285Y-60209000D02*
X92541142Y-60280428D01*
X92826857Y-60280428D01*
X92969714Y-60209000D01*
X93041142Y-60137571D01*
X93112571Y-59994714D01*
X93112571Y-59566142D01*
X93041142Y-59423285D01*
X92969714Y-59351857D01*
X92826857Y-59280428D01*
X92541142Y-59280428D01*
X92398285Y-59351857D01*
X93969714Y-59280428D02*
X93826857Y-59351857D01*
X93755428Y-59423285D01*
X93684000Y-59566142D01*
X93684000Y-59994714D01*
X93755428Y-60137571D01*
X93826857Y-60209000D01*
X93969714Y-60280428D01*
X94184000Y-60280428D01*
X94326857Y-60209000D01*
X94398285Y-60137571D01*
X94469714Y-59994714D01*
X94469714Y-59566142D01*
X94398285Y-59423285D01*
X94326857Y-59351857D01*
X94184000Y-59280428D01*
X93969714Y-59280428D01*
X95755428Y-59280428D02*
X95755428Y-60066142D01*
X95684000Y-60209000D01*
X95541142Y-60280428D01*
X95255428Y-60280428D01*
X95112571Y-60209000D01*
X95755428Y-59351857D02*
X95612571Y-59280428D01*
X95255428Y-59280428D01*
X95112571Y-59351857D01*
X95041142Y-59494714D01*
X95041142Y-59637571D01*
X95112571Y-59780428D01*
X95255428Y-59851857D01*
X95612571Y-59851857D01*
X95755428Y-59923285D01*
X96469714Y-59280428D02*
X96469714Y-60280428D01*
X96469714Y-59994714D02*
X96541142Y-60137571D01*
X96612571Y-60209000D01*
X96755428Y-60280428D01*
X96898285Y-60280428D01*
X98041142Y-59280428D02*
X98041142Y-60780428D01*
X98041142Y-59351857D02*
X97898285Y-59280428D01*
X97612571Y-59280428D01*
X97469714Y-59351857D01*
X97398285Y-59423285D01*
X97326857Y-59566142D01*
X97326857Y-59994714D01*
X97398285Y-60137571D01*
X97469714Y-60209000D01*
X97612571Y-60280428D01*
X97898285Y-60280428D01*
X98041142Y-60209000D01*
X99826857Y-60851857D02*
X98541142Y-58923285D01*
X92148285Y-56730428D02*
X92148285Y-58230428D01*
X92791142Y-56730428D02*
X92791142Y-57516142D01*
X92719714Y-57659000D01*
X92576857Y-57730428D01*
X92362571Y-57730428D01*
X92219714Y-57659000D01*
X92148285Y-57587571D01*
X93719714Y-56730428D02*
X93576857Y-56801857D01*
X93505428Y-56873285D01*
X93434000Y-57016142D01*
X93434000Y-57444714D01*
X93505428Y-57587571D01*
X93576857Y-57659000D01*
X93719714Y-57730428D01*
X93934000Y-57730428D01*
X94076857Y-57659000D01*
X94148285Y-57587571D01*
X94219714Y-57444714D01*
X94219714Y-57016142D01*
X94148285Y-56873285D01*
X94076857Y-56801857D01*
X93934000Y-56730428D01*
X93719714Y-56730428D01*
X94791142Y-56801857D02*
X94934000Y-56730428D01*
X95219714Y-56730428D01*
X95362571Y-56801857D01*
X95434000Y-56944714D01*
X95434000Y-57016142D01*
X95362571Y-57159000D01*
X95219714Y-57230428D01*
X95005428Y-57230428D01*
X94862571Y-57301857D01*
X94791142Y-57444714D01*
X94791142Y-57516142D01*
X94862571Y-57659000D01*
X95005428Y-57730428D01*
X95219714Y-57730428D01*
X95362571Y-57659000D01*
X95862571Y-57730428D02*
X96434000Y-57730428D01*
X96076857Y-58230428D02*
X96076857Y-56944714D01*
X96148285Y-56801857D01*
X96291142Y-56730428D01*
X96434000Y-56730428D01*
D12*
X270417142Y-63454285D02*
X269988571Y-63597142D01*
X269274285Y-63597142D01*
X268988571Y-63454285D01*
X268845714Y-63311428D01*
X268702857Y-63025714D01*
X268702857Y-62740000D01*
X268845714Y-62454285D01*
X268988571Y-62311428D01*
X269274285Y-62168571D01*
X269845714Y-62025714D01*
X270131428Y-61882857D01*
X270274285Y-61740000D01*
X270417142Y-61454285D01*
X270417142Y-61168571D01*
X270274285Y-60882857D01*
X270131428Y-60740000D01*
X269845714Y-60597142D01*
X269131428Y-60597142D01*
X268702857Y-60740000D01*
X266988571Y-63597142D02*
X267274285Y-63454285D01*
X267417142Y-63311428D01*
X267560000Y-63025714D01*
X267560000Y-62168571D01*
X267417142Y-61882857D01*
X267274285Y-61740000D01*
X266988571Y-61597142D01*
X266560000Y-61597142D01*
X266274285Y-61740000D01*
X266131428Y-61882857D01*
X265988571Y-62168571D01*
X265988571Y-63025714D01*
X266131428Y-63311428D01*
X266274285Y-63454285D01*
X266560000Y-63597142D01*
X266988571Y-63597142D01*
X263417142Y-61597142D02*
X263417142Y-63597142D01*
X264702857Y-61597142D02*
X264702857Y-63168571D01*
X264560000Y-63454285D01*
X264274285Y-63597142D01*
X263845714Y-63597142D01*
X263560000Y-63454285D01*
X263417142Y-63311428D01*
X261988571Y-61597142D02*
X261988571Y-63597142D01*
X261988571Y-61882857D02*
X261845714Y-61740000D01*
X261560000Y-61597142D01*
X261131428Y-61597142D01*
X260845714Y-61740000D01*
X260702857Y-62025714D01*
X260702857Y-63597142D01*
X257988571Y-63597142D02*
X257988571Y-60597142D01*
X257988571Y-63454285D02*
X258274285Y-63597142D01*
X258845714Y-63597142D01*
X259131428Y-63454285D01*
X259274285Y-63311428D01*
X259417142Y-63025714D01*
X259417142Y-62168571D01*
X259274285Y-61882857D01*
X259131428Y-61740000D01*
X258845714Y-61597142D01*
X258274285Y-61597142D01*
X257988571Y-61740000D01*
X254845714Y-63311428D02*
X254988571Y-63454285D01*
X255417142Y-63597142D01*
X255702857Y-63597142D01*
X256131428Y-63454285D01*
X256417142Y-63168571D01*
X256559999Y-62882857D01*
X256702857Y-62311428D01*
X256702857Y-61882857D01*
X256559999Y-61311428D01*
X256417142Y-61025714D01*
X256131428Y-60740000D01*
X255702857Y-60597142D01*
X255417142Y-60597142D01*
X254988571Y-60740000D01*
X254845714Y-60882857D01*
X253131428Y-63597142D02*
X253417142Y-63454285D01*
X253559999Y-63311428D01*
X253702857Y-63025714D01*
X253702857Y-62168571D01*
X253559999Y-61882857D01*
X253417142Y-61740000D01*
X253131428Y-61597142D01*
X252702857Y-61597142D01*
X252417142Y-61740000D01*
X252274285Y-61882857D01*
X252131428Y-62168571D01*
X252131428Y-63025714D01*
X252274285Y-63311428D01*
X252417142Y-63454285D01*
X252702857Y-63597142D01*
X253131428Y-63597142D01*
X250845714Y-63597142D02*
X250845714Y-61597142D01*
X250845714Y-62168571D02*
X250702857Y-61882857D01*
X250559999Y-61740000D01*
X250274285Y-61597142D01*
X249988571Y-61597142D01*
X247845714Y-63454285D02*
X248131428Y-63597142D01*
X248702857Y-63597142D01*
X248988571Y-63454285D01*
X249131428Y-63168571D01*
X249131428Y-62025714D01*
X248988571Y-61740000D01*
X248702857Y-61597142D01*
X248131428Y-61597142D01*
X247845714Y-61740000D01*
X247702857Y-62025714D01*
X247702857Y-62311428D01*
X249131428Y-62597142D01*
X244131428Y-63597142D02*
X244131428Y-60597142D01*
X242417142Y-63597142D02*
X243702857Y-61882857D01*
X242417142Y-60597142D02*
X244131428Y-62311428D01*
X241131428Y-61597142D02*
X241131428Y-63597142D01*
X241131428Y-61882857D02*
X240988571Y-61740000D01*
X240702857Y-61597142D01*
X240274285Y-61597142D01*
X239988571Y-61740000D01*
X239845714Y-62025714D01*
X239845714Y-63597142D01*
X237988571Y-63597142D02*
X238274285Y-63454285D01*
X238417142Y-63311428D01*
X238560000Y-63025714D01*
X238560000Y-62168571D01*
X238417142Y-61882857D01*
X238274285Y-61740000D01*
X237988571Y-61597142D01*
X237560000Y-61597142D01*
X237274285Y-61740000D01*
X237131428Y-61882857D01*
X236988571Y-62168571D01*
X236988571Y-63025714D01*
X237131428Y-63311428D01*
X237274285Y-63454285D01*
X237560000Y-63597142D01*
X237988571Y-63597142D01*
X235702857Y-63597142D02*
X235702857Y-60597142D01*
X235702857Y-61740000D02*
X235417142Y-61597142D01*
X234845714Y-61597142D01*
X234560000Y-61740000D01*
X234417142Y-61882857D01*
X234274285Y-62168571D01*
X234274285Y-63025714D01*
X234417142Y-63311428D01*
X234560000Y-63454285D01*
X234845714Y-63597142D01*
X235417142Y-63597142D01*
X235702857Y-63454285D01*
X233131428Y-63454285D02*
X232845714Y-63597142D01*
X232274285Y-63597142D01*
X231988571Y-63454285D01*
X231845714Y-63168571D01*
X231845714Y-63025714D01*
X231988571Y-62740000D01*
X232274285Y-62597142D01*
X232702857Y-62597142D01*
X232988571Y-62454285D01*
X233131428Y-62168571D01*
X233131428Y-62025714D01*
X232988571Y-61740000D01*
X232702857Y-61597142D01*
X232274285Y-61597142D01*
X231988571Y-61740000D01*
X226702857Y-63597142D02*
X228417142Y-63597142D01*
X227560000Y-63597142D02*
X227560000Y-60597142D01*
X227845714Y-61025714D01*
X228131428Y-61311428D01*
X228417142Y-61454285D01*
X225417142Y-63311428D02*
X225274285Y-63454285D01*
X225417142Y-63597142D01*
X225560000Y-63454285D01*
X225417142Y-63311428D01*
X225417142Y-63597142D01*
X223417142Y-60597142D02*
X223131428Y-60597142D01*
X222845714Y-60740000D01*
X222702857Y-60882857D01*
X222560000Y-61168571D01*
X222417142Y-61740000D01*
X222417142Y-62454285D01*
X222560000Y-63025714D01*
X222702857Y-63311428D01*
X222845714Y-63454285D01*
X223131428Y-63597142D01*
X223417142Y-63597142D01*
X223702857Y-63454285D01*
X223845714Y-63311428D01*
X223988571Y-63025714D01*
X224131428Y-62454285D01*
X224131428Y-61740000D01*
X223988571Y-61168571D01*
X223845714Y-60882857D01*
X223702857Y-60740000D01*
X223417142Y-60597142D01*
X219845714Y-63597142D02*
X219845714Y-62025714D01*
X219988571Y-61740000D01*
X220274285Y-61597142D01*
X220845714Y-61597142D01*
X221131428Y-61740000D01*
X219845714Y-63454285D02*
X220131428Y-63597142D01*
X220845714Y-63597142D01*
X221131428Y-63454285D01*
X221274285Y-63168571D01*
X221274285Y-62882857D01*
X221131428Y-62597142D01*
X220845714Y-62454285D01*
X220131428Y-62454285D01*
X219845714Y-62311428D01*
D13*
%TO.C,gnd1*%
X91070000Y-96276000D02*
G75*
G03*
X91070000Y-96276000I-950000J0D01*
G01*
%TO.C,3v1*%
X93610000Y-96276000D02*
G75*
G03*
X93610000Y-96276000I-950000J0D01*
G01*
%TO.C,swdio1*%
X98690000Y-96276000D02*
G75*
G03*
X98690000Y-96276000I-950000J0D01*
G01*
%TO.C,swclk1*%
X96150000Y-96276000D02*
G75*
G03*
X96150000Y-96276000I-950000J0D01*
G01*
%TO.C,gnd1*%
D14*
X89905714Y-92061333D02*
X90715238Y-92061333D01*
X90810476Y-92013714D01*
X90858095Y-91966095D01*
X90905714Y-91870857D01*
X90905714Y-91728000D01*
X90858095Y-91632761D01*
X90524761Y-92061333D02*
X90572380Y-91966095D01*
X90572380Y-91775619D01*
X90524761Y-91680380D01*
X90477142Y-91632761D01*
X90381904Y-91585142D01*
X90096190Y-91585142D01*
X90000952Y-91632761D01*
X89953333Y-91680380D01*
X89905714Y-91775619D01*
X89905714Y-91966095D01*
X89953333Y-92061333D01*
X89905714Y-92537523D02*
X90572380Y-92537523D01*
X90000952Y-92537523D02*
X89953333Y-92585142D01*
X89905714Y-92680380D01*
X89905714Y-92823238D01*
X89953333Y-92918476D01*
X90048571Y-92966095D01*
X90572380Y-92966095D01*
X90572380Y-93870857D02*
X89572380Y-93870857D01*
X90524761Y-93870857D02*
X90572380Y-93775619D01*
X90572380Y-93585142D01*
X90524761Y-93489904D01*
X90477142Y-93442285D01*
X90381904Y-93394666D01*
X90096190Y-93394666D01*
X90000952Y-93442285D01*
X89953333Y-93489904D01*
X89905714Y-93585142D01*
X89905714Y-93775619D01*
X89953333Y-93870857D01*
X90572380Y-94870857D02*
X90572380Y-94299428D01*
X90572380Y-94585142D02*
X89572380Y-94585142D01*
X89715238Y-94489904D01*
X89810476Y-94394666D01*
X89858095Y-94299428D01*
%TO.C,3v1*%
X92112380Y-92335523D02*
X92112380Y-92954571D01*
X92493333Y-92621238D01*
X92493333Y-92764095D01*
X92540952Y-92859333D01*
X92588571Y-92906952D01*
X92683809Y-92954571D01*
X92921904Y-92954571D01*
X93017142Y-92906952D01*
X93064761Y-92859333D01*
X93112380Y-92764095D01*
X93112380Y-92478380D01*
X93064761Y-92383142D01*
X93017142Y-92335523D01*
X92445714Y-93287904D02*
X93112380Y-93526000D01*
X92445714Y-93764095D01*
X93112380Y-94668857D02*
X93112380Y-94097428D01*
X93112380Y-94383142D02*
X92112380Y-94383142D01*
X92255238Y-94287904D01*
X92350476Y-94192666D01*
X92398095Y-94097428D01*
%TO.C,swdio1*%
X98194761Y-89854857D02*
X98242380Y-89950095D01*
X98242380Y-90140571D01*
X98194761Y-90235809D01*
X98099523Y-90283428D01*
X98051904Y-90283428D01*
X97956666Y-90235809D01*
X97909047Y-90140571D01*
X97909047Y-89997714D01*
X97861428Y-89902476D01*
X97766190Y-89854857D01*
X97718571Y-89854857D01*
X97623333Y-89902476D01*
X97575714Y-89997714D01*
X97575714Y-90140571D01*
X97623333Y-90235809D01*
X97575714Y-90616761D02*
X98242380Y-90807238D01*
X97766190Y-90997714D01*
X98242380Y-91188190D01*
X97575714Y-91378666D01*
X98242380Y-92188190D02*
X97242380Y-92188190D01*
X98194761Y-92188190D02*
X98242380Y-92092952D01*
X98242380Y-91902476D01*
X98194761Y-91807238D01*
X98147142Y-91759619D01*
X98051904Y-91712000D01*
X97766190Y-91712000D01*
X97670952Y-91759619D01*
X97623333Y-91807238D01*
X97575714Y-91902476D01*
X97575714Y-92092952D01*
X97623333Y-92188190D01*
X98242380Y-92664380D02*
X97575714Y-92664380D01*
X97242380Y-92664380D02*
X97290000Y-92616761D01*
X97337619Y-92664380D01*
X97290000Y-92712000D01*
X97242380Y-92664380D01*
X97337619Y-92664380D01*
X98242380Y-93283428D02*
X98194761Y-93188190D01*
X98147142Y-93140571D01*
X98051904Y-93092952D01*
X97766190Y-93092952D01*
X97670952Y-93140571D01*
X97623333Y-93188190D01*
X97575714Y-93283428D01*
X97575714Y-93426285D01*
X97623333Y-93521523D01*
X97670952Y-93569142D01*
X97766190Y-93616761D01*
X98051904Y-93616761D01*
X98147142Y-93569142D01*
X98194761Y-93521523D01*
X98242380Y-93426285D01*
X98242380Y-93283428D01*
X98242380Y-94569142D02*
X98242380Y-93997714D01*
X98242380Y-94283428D02*
X97242380Y-94283428D01*
X97385238Y-94188190D01*
X97480476Y-94092952D01*
X97528095Y-93997714D01*
%TO.C,swclk1*%
X95604761Y-90516476D02*
X95652380Y-90611714D01*
X95652380Y-90802190D01*
X95604761Y-90897428D01*
X95509523Y-90945047D01*
X95461904Y-90945047D01*
X95366666Y-90897428D01*
X95319047Y-90802190D01*
X95319047Y-90659333D01*
X95271428Y-90564095D01*
X95176190Y-90516476D01*
X95128571Y-90516476D01*
X95033333Y-90564095D01*
X94985714Y-90659333D01*
X94985714Y-90802190D01*
X95033333Y-90897428D01*
X94985714Y-91278380D02*
X95652380Y-91468857D01*
X95176190Y-91659333D01*
X95652380Y-91849809D01*
X94985714Y-92040285D01*
X95604761Y-92849809D02*
X95652380Y-92754571D01*
X95652380Y-92564095D01*
X95604761Y-92468857D01*
X95557142Y-92421238D01*
X95461904Y-92373619D01*
X95176190Y-92373619D01*
X95080952Y-92421238D01*
X95033333Y-92468857D01*
X94985714Y-92564095D01*
X94985714Y-92754571D01*
X95033333Y-92849809D01*
X95652380Y-93421238D02*
X95604761Y-93326000D01*
X95509523Y-93278380D01*
X94652380Y-93278380D01*
X95652380Y-93802190D02*
X94652380Y-93802190D01*
X95271428Y-93897428D02*
X95652380Y-94183142D01*
X94985714Y-94183142D02*
X95366666Y-93802190D01*
X95652380Y-95135523D02*
X95652380Y-94564095D01*
X95652380Y-94849809D02*
X94652380Y-94849809D01*
X94795238Y-94754571D01*
X94890476Y-94659333D01*
X94938095Y-94564095D01*
%TD*%
M02*
