M48
; DRILL file {KiCad (5.1.9-0-10_14)} date Saturday, November 27, 2021 at 04:04:41 PM
; FORMAT={-:-/ absolute / metric / decimal}
; #@! TF.CreationDate,2021-11-27T16:04:41+01:00
; #@! TF.GenerationSoftware,Kicad,Pcbnew,(5.1.9-0-10_14)
; #@! TF.FileFunction,Plated,1,2,PTH
FMAT,2
METRIC
T1C0.400
T2C0.500
T3C0.550
T4C0.762
T5C0.800
T6C0.950
T7C1.000
T8C1.100
%
G90
G05
T1
X86.939Y-75.944
X89.317Y-77.054
X90.484Y-77.096
X92.895Y-75.966
X93.691Y-75.347
X96.533Y-67.746
X97.508Y-71.724
X97.552Y-67.668
X98.909Y-66.481
X100.873Y-78.24
X101.931Y-67.063
X104.605Y-77.407
X114.97Y-83.55
X141.57Y-61.732
X145.261Y-64.748
X164.52Y-82.789
X165.472Y-87.636
X165.647Y-77.162
X165.943Y-83.322
X169.6Y-84.035
X170.112Y-76.866
X170.216Y-86.578
X170.319Y-91.934
X170.648Y-88.085
X170.747Y-75.286
X170.772Y-83.11
X174.085Y-74.211
X196.277Y-70.697
T4
X76.13Y-60.19
X76.13Y-62.73
X76.13Y-65.27
X76.13Y-67.81
T5
X182.322Y-59.442
X182.322Y-64.442
X182.33Y-68.134
X182.33Y-73.134
X207.476Y-59.498
X207.476Y-64.498
X207.476Y-68.134
X207.476Y-73.134
X232.36Y-59.442
X232.36Y-64.442
X232.36Y-68.078
X232.36Y-73.078
X257.252Y-68.078
X257.252Y-73.078
X257.26Y-59.498
X257.26Y-64.498
T6
X124.674Y-61.236
X124.674Y-65.636
T7
X79.9Y-93.2
X82.4Y-93.2
X84.9Y-93.2
X105.0Y-93.1
X107.5Y-93.1
X109.424Y-57.668
X110.0Y-93.1
X111.964Y-57.668
X114.504Y-57.668
X117.044Y-57.668
X129.9Y-93.1
X132.4Y-93.1
X134.9Y-93.1
X154.8Y-93.1
X157.3Y-93.1
X159.8Y-93.1
X179.8Y-93.1
X182.3Y-93.1
X184.8Y-93.1
X204.9Y-93.1
X207.4Y-93.1
X209.9Y-93.1
X229.9Y-93.1
X232.4Y-93.1
X234.9Y-93.1
X254.9Y-93.1
X257.4Y-93.1
X259.9Y-93.1
T2
G00X90.684Y-58.725
M15
G01X90.684Y-58.075
M16
G05
G00X97.684Y-58.725
M15
G01X97.684Y-58.075
M16
G05
T3
G00X91.834Y-61.1
M15
G01X91.534Y-61.1
M16
G05
G00X96.834Y-61.1
M15
G01X96.534Y-61.1
M16
G05
T8
G00X77.6Y-86.15
M15
G01X77.6Y-85.25
M16
G05
G00X87.2Y-86.15
M15
G01X87.2Y-85.25
M16
G05
G00X102.7Y-86.05
M15
G01X102.7Y-85.15
M16
G05
G00X112.3Y-86.05
M15
G01X112.3Y-85.15
M16
G05
G00X127.6Y-86.05
M15
G01X127.6Y-85.15
M16
G05
G00X137.2Y-86.05
M15
G01X137.2Y-85.15
M16
G05
G00X152.5Y-86.05
M15
G01X152.5Y-85.15
M16
G05
G00X162.1Y-86.05
M15
G01X162.1Y-85.15
M16
G05
G00X177.5Y-86.05
M15
G01X177.5Y-85.15
M16
G05
G00X187.1Y-86.05
M15
G01X187.1Y-85.15
M16
G05
G00X202.6Y-86.05
M15
G01X202.6Y-85.15
M16
G05
G00X212.2Y-86.05
M15
G01X212.2Y-85.15
M16
G05
G00X227.6Y-86.05
M15
G01X227.6Y-85.15
M16
G05
G00X237.2Y-86.05
M15
G01X237.2Y-85.15
M16
G05
G00X252.6Y-86.05
M15
G01X252.6Y-85.15
M16
G05
G00X262.2Y-86.05
M15
G01X262.2Y-85.15
M16
G05
T0
M30
